<?xml version="1.0" encoding="UTF-8" standalone="no"?>
<svg width="98px" height="88px" viewBox="0 0 98 88" version="1.1" xmlns="http://www.w3.org/2000/svg" xmlns:xlink="http://www.w3.org/1999/xlink" xmlns:sketch="http://www.bohemiancoding.com/sketch/ns">
    <!-- Generator: Sketch 3.3 (11970) - http://www.bohemiancoding.com/sketch -->
    <title>Group</title>
    <desc>Created with Sketch.</desc>
    <defs></defs>
    <g id="Page-1" stroke="none" stroke-width="1" fill="none" fill-rule="evenodd" sketch:type="MSPage">
        <g id="blab-feed-laptop-large-copy" sketch:type="MSArtboardGroup" transform="translate(-1275.000000, -1389.000000)" fill="#6C7683">
            <g id="Group" sketch:type="MSLayerGroup" transform="translate(1275.000000, 1389.000000)">
                <path d="M86.999,87.65 L11.097,87.65 C6.646,87.65 3.063,85.867 1.267,82.754 C-0.528,79.646 -0.282,75.65 1.944,71.797 L39.894,6.064 C42.122,2.21 45.458,0 49.049,0 C52.641,0 55.977,2.211 58.202,6.065 L96.15,71.799 C98.377,75.653 98.624,79.647 96.829,82.756 C95.033,85.867 91.45,87.65 86.999,87.65 L86.999,87.65 Z M49.049,7.978 C48.528,7.978 47.632,8.62 46.804,10.055 L8.853,75.787 C8.024,77.221 7.916,78.318 8.176,78.769 C8.436,79.217 9.44,79.672 11.097,79.672 L86.999,79.672 C88.656,79.672 89.659,79.217 89.92,78.767 C90.18,78.318 90.07,77.222 89.242,75.787 L51.292,10.054 C50.465,8.62 49.568,7.978 49.049,7.978 L49.049,7.978 Z" id="Shape" sketch:type="MSShapeGroup"></path>
                <path d="M45.394,57.295 C46.044,58.703 47.25,59.447 48.884,59.447 C50.483,59.447 51.697,58.693 52.397,57.267 C52.966,56.103 53.325,54.523 53.489,52.449 L54.895,36.329 C55.05,34.82 55.129,33.304 55.129,31.825 C55.129,29.182 54.782,27.183 54.065,25.712 C53.489,24.531 52.19,23.125 49.278,23.125 C47.406,23.125 45.865,23.758 44.698,25.006 C43.549,26.235 42.966,27.922 42.966,30.026 C42.966,31.382 43.066,33.619 43.263,36.681 L44.313,52.395 C44.523,54.574 44.876,56.176 45.394,57.295 Z" id="Shape" sketch:type="MSShapeGroup"></path>
                <path d="M49.016,62.895 C47.333,62.895 45.89,63.49 44.724,64.653 C43.557,65.819 42.966,67.254 42.966,68.912 C42.966,70.801 43.599,72.308 44.848,73.391 C46.049,74.436 47.473,74.962 49.081,74.962 C50.671,74.962 52.082,74.427 53.275,73.366 C54.504,72.271 55.129,70.775 55.129,68.911 C55.129,67.247 54.525,65.81 53.329,64.642 C52.143,63.484 50.691,62.895 49.016,62.895 L49.016,62.895 Z" id="Shape" sketch:type="MSShapeGroup"></path>
            </g>
        </g>
    </g>
</svg>