<?xml version="1.0" encoding="UTF-8" standalone="no"?>
<svg width="27px" height="27px" viewBox="0 0 27 27" version="1.1" xmlns="http://www.w3.org/2000/svg" xmlns:xlink="http://www.w3.org/1999/xlink" xmlns:sketch="http://www.bohemiancoding.com/sketch/ns">
    <!-- Generator: Sketch 3.3 (11970) - http://www.bohemiancoding.com/sketch -->
    <title>noun_10412_cc</title>
    <desc>Created with Sketch.</desc>
    <defs></defs>
    <g id="Landing" stroke="none" stroke-width="1" fill="none" fill-rule="evenodd" sketch:type="MSPage">
        <g id="blab-profile-activity" sketch:type="MSArtboardGroup" transform="translate(-348.000000, -112.000000)" fill="#000000">
            <g id="main_feed" sketch:type="MSLayerGroup" transform="translate(312.000000, 47.000000)">
                <g id="featured" sketch:type="MSShapeGroup">
                    <g id="card">
                        <g id="noun_10412_cc" transform="translate(36.000000, 65.000000)">
                            <g id="Group">
                                <path d="M25.2344227,10.3393299 C27.5355464,8.03764948 27.5355464,4.30636082 25.2344227,2.00468041 C22.9324639,-0.297 19.2008969,-0.297 16.8994948,2.00468041 L13.6196907,5.28476289 L5.28476289,13.6194124 L2.00468041,16.8997732 C-0.297,19.2014536 -0.297,22.9330206 2.00468041,25.2344227 C4.30636082,27.5358247 8.03764948,27.5358247 10.3390515,25.2344227 L13.6196907,21.9543402 L21.9540619,13.6194124 L25.2344227,10.3393299 L25.2344227,10.3393299 Z M14.9106804,8.10194845 C15.2666907,7.74649485 15.7988969,7.67635052 16.2247732,7.89040206 L16.7302577,8.3958866 C16.9445876,8.82204124 16.8747216,9.35424742 16.5187113,9.70997938 C16.0747423,10.1539485 15.3546495,10.1539485 14.9106804,9.70997938 C14.467268,9.26601031 14.467268,8.54647423 14.9106804,8.10194845 L14.9106804,8.10194845 Z M12.6557629,10.3574227 C13.099732,9.91345361 13.8195464,9.91345361 14.2635155,10.3574227 C14.7077629,10.8016701 14.7077629,11.5217629 14.2635155,11.965732 C13.8195464,12.409701 13.0994536,12.409701 12.6557629,11.965732 C12.2115155,11.5217629 12.2115155,10.8016701 12.6557629,10.3574227 L12.6557629,10.3574227 Z M9.75228866,16.4764021 C9.30831959,16.9209278 8.5882268,16.9209278 8.14453608,16.4764021 C7.70028866,16.032433 7.70028866,15.3126186 8.14453608,14.8689278 C8.58850515,14.4246804 9.30859794,14.4244021 9.75228866,14.8689278 C10.1965361,15.3128969 10.1965361,16.0327113 9.75228866,16.4764021 L9.75228866,16.4764021 Z M10.399732,12.6131753 C10.843701,12.1692062 11.5637938,12.1692062 12.0077629,12.6131753 C12.451732,13.0571443 12.451732,13.7772371 12.0077629,14.2214845 C11.5635155,14.6654536 10.8434227,14.6654536 10.399732,14.2214845 C9.95604124,13.7772371 9.95604124,13.0571443 10.399732,12.6131753 L10.399732,12.6131753 Z M12.5037835,19.2281753 C12.0595361,19.6721443 11.3397216,19.6721443 10.8954742,19.2281753 C10.4515052,18.7839278 10.4515052,18.0638351 10.8954742,17.6201443 C11.3397216,17.1761753 12.0595361,17.1761753 12.5037835,17.6201443 C12.9477526,18.0638351 12.9477526,18.7839278 12.5037835,19.2281753 L12.5037835,19.2281753 Z M14.7589794,16.9724227 C14.314732,17.4169485 13.5951959,17.4169485 13.1512268,16.9724227 C12.7069794,16.5281753 12.7069794,15.8083608 13.1512268,15.3646701 C13.5951959,14.920701 14.3150103,14.920701 14.7589794,15.3646701 C15.2029485,15.8086392 15.2032268,16.5281753 14.7589794,16.9724227 L14.7589794,16.9724227 Z M17.014732,14.7169485 C16.5707629,15.1611959 15.8503918,15.1611959 15.4072577,14.7169485 C14.962732,14.2729794 14.962732,13.5528866 15.4072577,13.1091959 C15.8506701,12.6649485 16.5710412,12.6649485 17.014732,13.1091959 C17.458701,13.5528866 17.458701,14.2729794 17.014732,14.7169485 L17.014732,14.7169485 Z M19.2704845,12.4617526 C18.8262371,12.9057216 18.1061443,12.9057216 17.6624536,12.4617526 C17.2184845,12.0175052 17.2184845,11.2974124 17.6624536,10.8537216 C18.0176289,10.4979897 18.5501134,10.4281237 18.976268,10.6418969 L19.4817526,11.1473814 C19.6963608,11.5735361 19.6262165,12.1057423 19.2704845,12.4617526 L19.2704845,12.4617526 Z" id="Shape"></path>
                                <path d="M4.45945361,12.7941031 L12.7938247,4.45945361 L10.3387732,2.00440206 C8.03737113,-0.297278351 4.30608247,-0.297278351 2.00440206,2.00440206 C-0.297278351,4.30608247 -0.297278351,8.03737113 2.00440206,10.3390515 L4.45945361,12.7941031 L4.45945361,12.7941031 Z" id="Shape"></path>
                                <path d="M22.7788144,14.4444433 L14.4444433,22.7790928 L16.8994948,25.2344227 C19.2011753,27.5358247 22.9327423,27.5358247 25.2344227,25.2344227 C27.5355464,22.9327423 27.5355464,19.2011753 25.2344227,16.8997732 L22.7788144,14.4444433 L22.7788144,14.4444433 Z" id="Shape"></path>
                            </g>
                        </g>
                    </g>
                </g>
            </g>
        </g>
    </g>
</svg>