<?xml version="1.0" encoding="UTF-8" standalone="no"?>
<svg width="30px" height="30px" viewBox="0 0 30 30" version="1.1" xmlns="http://www.w3.org/2000/svg" xmlns:xlink="http://www.w3.org/1999/xlink" xmlns:sketch="http://www.bohemiancoding.com/sketch/ns">
    <!-- Generator: Sketch 3.3.3 (12072) - http://www.bohemiancoding.com/sketch -->
    <title>logo</title>
    <desc>Created with Sketch.</desc>
    <defs></defs>
    <g id="Landing" stroke="none" stroke-width="1" fill="none" fill-rule="evenodd" sketch:type="MSPage">
        <g id="blab-feed-phone" sketch:type="MSArtboardGroup" transform="translate(-20.000000, -15.000000)">
            <g id="header" sketch:type="MSLayerGroup">
                <g id="logo" transform="translate(20.000000, 15.000000)" sketch:type="MSShapeGroup">
                    <g id="owl-svg">
                        <path d="M28.8638014,15.0986301 C28.8638014,7.46373288 22.6743493,1.27428082 15.0393493,1.27428082 C7.40434932,1.27428082 1.215,7.46373288 1.215,15.0986301 C1.215,22.7336301 7.40434932,28.9230822 15.0393493,28.9230822 C22.6743493,28.9230822 28.8638014,22.7336301 28.8638014,15.0986301" id="Fill-1" fill="#FFFFFF"></path>
                        <path d="M25.7073288,15.0196233 C25.7073288,9.10047945 20.9089726,4.30202055 14.9898288,4.30202055 C9.07058219,4.30202055 4.27222603,9.10047945 4.27222603,15.0196233 C4.27222603,20.9387671 9.07058219,25.737226 14.9898288,25.737226 C20.9089726,25.737226 25.7073288,20.9387671 25.7073288,15.0196233" id="Fill-2" fill="#563E85"></path>
                        <path d="M24.0579452,15.5517123 C24.0579452,12.8367123 21.8570548,10.6358219 19.1420548,10.6358219 C17.3954795,10.6358219 15.8617808,11.5468151 14.9898288,12.9194178 C14.117774,11.5468151 12.5840753,10.6358219 10.8375,10.6358219 C8.1225,10.6358219 5.92150685,12.8367123 5.92150685,15.5517123 C5.92150685,15.969863 5.97390411,16.3756849 6.07212329,16.7632192 C6.65044521,20.3532534 10.4223288,23.1249658 14.9898288,23.1249658 C19.5571233,23.1249658 23.3291096,20.3532534 23.9074315,16.7632192 C24.0056507,16.3756849 24.0579452,15.969863 24.0579452,15.5517123" id="Fill-3" fill="#FFFFFF"></path>
                        <path d="M15.6966781,19.8116096 C15.6966781,20.2746575 14.9898288,21.4063356 14.9898288,21.4063356 C14.9898288,21.4063356 14.282774,20.2746575 14.282774,19.8116096 C14.282774,19.3485616 14.5993151,18.9731507 14.9898288,18.9731507 C15.3802397,18.9731507 15.6966781,19.3485616 15.6966781,19.8116096" id="Fill-4" fill="#F9C862"></path>
                        <path d="M20.9452397,16.8803425 C20.9452397,16.0777397 20.294589,15.427089 19.4919863,15.427089 C18.6892808,15.427089 18.0386301,16.0777397 18.0386301,16.8803425 C18.0386301,17.6830479 18.6892808,18.3336986 19.4919863,18.3336986 C20.294589,18.3336986 20.9452397,17.6830479 20.9452397,16.8803425" id="Fill-5" fill="#131125"></path>
                        <path d="M11.9409247,16.8803425 C11.9409247,16.0777397 11.2901712,15.427089 10.4875685,15.427089 C9.68496575,15.427089 9.03431507,16.0777397 9.03431507,16.8803425 C9.03431507,17.6830479 9.68496575,18.3336986 10.4875685,18.3336986 C11.2901712,18.3336986 11.9409247,17.6830479 11.9409247,16.8803425" id="Fill-6" fill="#131125"></path>
                        <path d="M8.60743151,15.0287671 C8.60743151,13.9903767 9.44917808,13.1485274 10.4875685,13.1485274 C11.5259589,13.1485274 12.3677055,13.9903767 12.3677055,15.0287671 L8.60743151,15.0287671" id="Fill-7" fill="#FFFFFF"></path>
                        <path d="M17.6117466,15.0287671 C17.6117466,13.9903767 18.4535959,13.1485274 19.4919863,13.1485274 C20.5303767,13.1485274 21.3721233,13.9903767 21.3721233,15.0287671 L17.6117466,15.0287671" id="Fill-8" fill="#FFFFFF"></path>
                        <path d="M21.3721233,18.6560959 C21.3721233,19.6944863 20.5303767,20.5362329 19.4919863,20.5362329 C18.4535959,20.5362329 17.6117466,19.6944863 17.6117466,18.6560959 L21.3721233,18.6560959" id="Fill-9" fill="#FFFFFF"></path>
                        <path d="M12.3677055,18.6560959 C12.3677055,19.6944863 11.5259589,20.5362329 10.4875685,20.5362329 C9.44917808,20.5362329 8.60743151,19.6944863 8.60743151,18.6560959 L12.3677055,18.6560959" id="Fill-10" fill="#FFFFFF"></path>
                        <path d="M17.1761301,1.03181507 C16.8042123,1.11113014 16.4380479,1.20493151 16.0775342,1.31270548 C23.227911,1.84325342 28.8638014,7.81273973 28.8638014,15.0986301 C28.8638014,22.0920205 23.6712329,27.8724658 16.9311986,28.7946575 C17.1516781,28.8458219 17.3744178,28.8919521 17.5986986,28.9327397 C16.7680479,29.0837671 15.9136644,29.1667808 15.0393493,29.1667808 C7.20791096,29.1667808 0.854383562,22.8381164 0.813390411,15.0162329 C0.813184932,15.0435616 0.813184932,15.0713014 0.813184932,15.0986301 C0.813184932,22.9556507 7.18243151,29.3248973 15.0393493,29.3248973 C22.8963699,29.3248973 29.2656164,22.9556507 29.2656164,15.0986301 C29.2656164,7.96777397 24.0196233,2.06239726 17.1761301,1.03181507" id="Fill-11" fill="#C5CEDF"></path>
                        <path d="M16.0775342,1.31270548 C13.2366781,2.16195205 10.767637,3.87482877 8.97719178,6.14619863 C10.6916096,4.98226027 12.7614041,4.30202055 14.9898288,4.30202055 C19.9139384,4.30202055 24.0624658,7.62277397 25.3180479,12.1471233 C25.3995205,12.037089 25.4635274,11.9129795 25.5058562,11.7789041 L25.5905137,11.5107534 L25.675274,11.7789041 C25.7980479,12.1679795 26.102774,12.4727055 26.4917466,12.5954795 L26.76,12.6802397 L26.4917466,12.7648973 C26.102774,12.8876712 25.7980479,13.1923973 25.675274,13.5813699 L25.6299658,13.7248973 C25.6810274,14.1494178 25.7073288,14.5814384 25.7073288,15.0196233 C25.7073288,20.9387671 20.9089726,25.737226 14.9898288,25.737226 C12.8795548,25.737226 10.9119863,25.1274658 9.25335616,24.0743836 C11.2015068,26.3959932 13.8781849,28.0864726 16.9311986,28.7946575 C23.6712329,27.8724658 28.8638014,22.0920205 28.8638014,15.0986301 C28.8638014,7.81273973 23.227911,1.84325342 16.0775342,1.31270548" id="Fill-12" fill="#C5CEDF"></path>
                        <path d="M14.9898288,4.30202055 C12.7614041,4.30202055 10.6916096,4.98226027 8.97719178,6.14619863 C8.50787671,6.7414726 8.08530822,7.37506849 7.71472603,8.04174658 C7.93386986,8.24856164 8.19945205,8.40688356 8.49503425,8.50027397 L8.92921233,8.63732877 L8.49503425,8.77438356 C7.86554795,8.97318493 7.37239726,9.46633562 7.17359589,10.0959247 L7.0365411,10.53 L6.89938356,10.0959247 C6.88171233,10.0398288 6.86167808,9.98486301 6.83938356,9.9310274 C6.25263699,11.4890753 5.93188356,13.1769863 5.93188356,14.9405137 C5.93188356,15.0261986 5.93260274,15.1117808 5.93414384,15.1971575 C6.11599315,12.647774 8.24178082,10.6358219 10.8375,10.6358219 C12.5840753,10.6358219 14.117774,11.5468151 14.9898288,12.9194178 C15.8617808,11.5468151 17.3954795,10.6358219 19.1420548,10.6358219 C21.8570548,10.6358219 24.0579452,12.8367123 24.0579452,15.5517123 C24.0579452,15.969863 24.0056507,16.3756849 23.9074315,16.7632192 C23.3291096,20.3532534 19.5571233,23.1249658 14.9898288,23.1249658 C10.4223288,23.1249658 6.65044521,20.3532534 6.07212329,16.7632192 C6.05321918,16.6884247 6.0359589,16.6130137 6.02044521,16.5368836 C6.33914384,19.3901712 7.50174658,21.9871233 9.25335616,24.0743836 C10.9119863,25.1274658 12.8795548,25.737226 14.9898288,25.737226 C20.9089726,25.737226 25.7073288,20.9387671 25.7073288,15.0196233 C25.7073288,14.5814384 25.6810274,14.1494178 25.6299658,13.7248973 L25.5905137,13.8496233 L25.5058562,13.5813699 C25.3829795,13.1923973 25.0782534,12.8876712 24.6892808,12.7648973 L24.4211301,12.6802397 L24.6892808,12.5954795 C24.9442808,12.5149315 25.1630137,12.3564041 25.3180479,12.1471233 C24.0624658,7.62277397 19.9139384,4.30202055 14.9898288,4.30202055" id="Fill-13" fill="#5A5493"></path>
                        <path d="M19.1420548,10.6358219 C17.3954795,10.6358219 15.8617808,11.5468151 14.9898288,12.9194178 C14.117774,11.5468151 12.5840753,10.6358219 10.8375,10.6358219 C8.24178082,10.6358219 6.11599315,12.647774 5.93414384,15.1971575 C5.94215753,15.6491096 5.97123288,16.0961301 6.02044521,16.5368836 C6.0359589,16.6130137 6.05321918,16.6884247 6.07212329,16.7632192 C6.65044521,20.3532534 10.4223288,23.1249658 14.9898288,23.1249658 C19.5571233,23.1249658 23.3291096,20.3532534 23.9074315,16.7632192 C24.0056507,16.3756849 24.0579452,15.969863 24.0579452,15.5517123 C24.0579452,12.8367123 21.8570548,10.6358219 19.1420548,10.6358219" id="Fill-14" fill="#C5CEDF"></path>
                        <path d="M14.9898288,18.9731507 C14.5993151,18.9731507 14.282774,19.3485616 14.282774,19.8116096 C14.282774,20.2746575 14.9898288,21.4063356 14.9898288,21.4063356 C14.9898288,21.4063356 15.6966781,20.2746575 15.6966781,19.8116096 C15.6966781,19.3485616 15.3802397,18.9731507 14.9898288,18.9731507" id="Fill-15" fill="#C8AF81"></path>
                        <path d="M19.4919863,15.427089 C18.6892808,15.427089 18.0386301,16.0777397 18.0386301,16.8803425 C18.0386301,17.6830479 18.6892808,18.3336986 19.4919863,18.3336986 C20.294589,18.3336986 20.9452397,17.6830479 20.9452397,16.8803425 C20.9452397,16.0777397 20.294589,15.427089 19.4919863,15.427089" id="Fill-16" fill="#282C47"></path>
                        <path d="M10.4875685,15.427089 C9.68496575,15.427089 9.03431507,16.0777397 9.03431507,16.8803425 C9.03431507,17.6830479 9.68496575,18.3336986 10.4875685,18.3336986 C11.2901712,18.3336986 11.9409247,17.6830479 11.9409247,16.8803425 C11.9409247,16.0777397 11.2901712,15.427089 10.4875685,15.427089" id="Fill-17" fill="#282C47"></path>
                        <path d="M15.0393493,0.714349315 C7.18243151,0.714349315 0.813184932,7.08359589 0.813184932,14.9405137 C0.813184932,14.9659932 0.813184932,14.9908562 0.813390411,15.0162329 C0.857465753,7.19702055 7.20976027,0.872465753 15.0393493,0.872465753 C15.765411,0.872465753 16.4793493,0.926917808 17.1761301,1.03181507 C17.3163699,1.00191781 17.4570205,0.974075342 17.5986986,0.948390411 C16.7680479,0.797363014 15.9136644,0.714349315 15.0393493,0.714349315" id="Fill-22" fill="#C5CEDF"></path>
                        <path d="M15.0393493,0.872465753 C7.20976027,0.872465753 0.857465753,7.19702055 0.813390411,15.0162329 C0.854383562,22.8381164 7.20791096,29.1667808 15.0393493,29.1667808 C15.9136644,29.1667808 16.7680479,29.0837671 17.5986986,28.9327397 C17.3744178,28.8919521 17.1516781,28.8458219 16.9311986,28.7946575 C16.3127055,28.8793151 15.6810616,28.9230822 15.0393493,28.9230822 C7.40434932,28.9230822 1.215,22.7336301 1.215,15.0986301 C1.215,7.46373288 7.40434932,1.27428082 15.0393493,1.27428082 C15.3884589,1.27428082 15.735,1.28732877 16.0775342,1.31270548 C16.4380479,1.20493151 16.8042123,1.11113014 17.1761301,1.03181507 C16.4793493,0.926917808 15.765411,0.872465753 15.0393493,0.872465753" id="Fill-23" fill="#A5B2D0"></path>
                        <path d="M6.5780137,24.2425685 L6.49335616,23.9743151 C6.37047945,23.5853425 6.06575342,23.2806164 5.67678082,23.1578425 L5.4085274,23.0730822 L5.67678082,22.9884247 C6.06575342,22.8655479 6.37047945,22.5609247 6.49335616,22.1718493 L6.5780137,21.9035959 L6.66267123,22.1718493 C6.78554795,22.5609247 7.09027397,22.8655479 7.47924658,22.9884247 L7.7475,23.0730822 L7.47924658,23.1578425 C7.09027397,23.2806164 6.78554795,23.5853425 6.66267123,23.9743151 L6.5780137,24.2425685 M15.0393493,1.27428082 C7.40434932,1.27428082 1.215,7.46373288 1.215,15.0986301 C1.215,22.7336301 7.40434932,28.9230822 15.0393493,28.9230822 C15.6810616,28.9230822 16.3127055,28.8793151 16.9311986,28.7946575 C13.8781849,28.0864726 11.2015068,26.3959932 9.25335616,24.0743836 C6.25931507,22.1735959 4.27222603,18.8285959 4.27222603,15.0196233 C4.27222603,12.8003425 4.94702055,10.7381507 6.10232877,9.02773973 C5.94256849,8.91976027 5.76636986,8.83386986 5.57794521,8.77438356 L5.14386986,8.63732877 L5.57794521,8.50027397 C6.20753425,8.3014726 6.70058219,7.80832192 6.89938356,7.17883562 L7.0365411,6.74465753 L7.17359589,7.17883562 C7.21243151,7.30171233 7.26246575,7.41955479 7.32256849,7.53092466 C7.82558219,7.01589041 8.37955479,6.55191781 8.97719178,6.14619863 C10.767637,3.87482877 13.2366781,2.16195205 16.0775342,1.31270548 C15.735,1.28732877 15.3884589,1.27428082 15.0393493,1.27428082" id="Fill-24" fill="#A5B3D0"></path>
                        <path d="M6.10232877,9.02773973 C4.94702055,10.7381507 4.27222603,12.8003425 4.27222603,15.0196233 C4.27222603,18.8285959 6.25931507,22.1735959 9.25335616,24.0743836 C7.50174658,21.9871233 6.33914384,19.3901712 6.02044521,16.5368836 C5.95571918,16.2185959 5.92150685,15.8891096 5.92150685,15.5517123 C5.92150685,15.4324315 5.92582192,15.3142808 5.93414384,15.1971575 C5.93260274,15.1117808 5.93188356,15.0261986 5.93188356,14.9405137 C5.93188356,13.1769863 6.25263699,11.4890753 6.83938356,9.9310274 C6.68650685,9.56157534 6.42873288,9.24842466 6.10232877,9.02773973 M8.97719178,6.14619863 C8.37955479,6.55191781 7.82558219,7.01589041 7.32256849,7.53092466 C7.42571918,7.72191781 7.55835616,7.89410959 7.71472603,8.04174658 C8.08530822,7.37506849 8.50787671,6.7414726 8.97719178,6.14619863" id="Fill-25" fill="#5D619C"></path>
                        <path id="Fill-26" fill="#A5B3D0" d="M5.93414384,15.1971575 C5.92582192,15.3142808 5.92150685,15.4324315 5.92150685,15.5517123 C5.92150685,15.8891096 5.95571918,16.2185959 6.02044521,16.5368836 C5.97123288,16.0961301 5.94215753,15.6491096 5.93414384,15.1971575"></path>
                        <path d="M7.71472603,8.04174658 C7.37886986,8.64575342 7.08575342,9.2769863 6.83938356,9.9310274 C6.86167808,9.98486301 6.88171233,10.0398288 6.89938356,10.0959247 L7.0365411,10.53 L7.17359589,10.0959247 C7.37239726,9.46633562 7.86554795,8.97318493 8.49503425,8.77438356 L8.92921233,8.63732877 L8.49503425,8.50027397 C8.19945205,8.40688356 7.93386986,8.24856164 7.71472603,8.04174658" id="Fill-27" fill="#9D97BE"></path>
                        <path d="M7.0365411,6.74465753 L6.89938356,7.17883562 C6.70058219,7.80832192 6.20753425,8.3014726 5.57794521,8.50027397 L5.14386986,8.63732877 L5.57794521,8.77438356 C5.76636986,8.83386986 5.94256849,8.91976027 6.10232877,9.02773973 C6.4639726,8.49236301 6.87267123,7.99150685 7.32256849,7.53092466 C7.26246575,7.41955479 7.21243151,7.30171233 7.17359589,7.17883562 L7.0365411,6.74465753" id="Fill-28" fill="#CED5E4"></path>
                        <path d="M7.32256849,7.53092466 C6.87267123,7.99150685 6.4639726,8.49236301 6.10232877,9.02773973 C6.42873288,9.24842466 6.68650685,9.56157534 6.83938356,9.9310274 C7.08575342,9.2769863 7.37886986,8.64575342 7.71472603,8.04174658 C7.55835616,7.89410959 7.42571918,7.72191781 7.32256849,7.53092466" id="Fill-29" fill="#A0A0C4"></path>
                        <path d="M25.5905137,11.5107534 L25.5058562,11.7789041 C25.4635274,11.9129795 25.3995205,12.037089 25.3180479,12.1471233 C25.4599315,12.6585616 25.5650342,13.1857192 25.6299658,13.7248973 L25.675274,13.5813699 C25.7980479,13.1923973 26.102774,12.8876712 26.4917466,12.7648973 L26.76,12.6802397 L26.4917466,12.5954795 C26.102774,12.4727055 25.7980479,12.1679795 25.675274,11.7789041 L25.5905137,11.5107534" id="Fill-30" fill="#E2E6EE"></path>
                        <path d="M25.3180479,12.1471233 C25.1630137,12.3564041 24.9442808,12.5149315 24.6892808,12.5954795 L24.4211301,12.6802397 L24.6892808,12.7648973 C25.0782534,12.8876712 25.3829795,13.1923973 25.5058562,13.5813699 L25.5905137,13.8496233 L25.6299658,13.7248973 C25.5650342,13.1857192 25.4599315,12.6585616 25.3180479,12.1471233" id="Fill-31" fill="#9D97BE"></path>
                        <path d="M6.5780137,21.9035959 L6.49335616,22.1718493 C6.37047945,22.5609247 6.06575342,22.8655479 5.67678082,22.9884247 L5.4085274,23.0730822 L5.67678082,23.1578425 C6.06575342,23.2806164 6.37047945,23.5853425 6.49335616,23.9743151 L6.5780137,24.2425685 L6.66267123,23.9743151 C6.78554795,23.5853425 7.09027397,23.2806164 7.47924658,23.1578425 L7.7475,23.0730822 L7.47924658,22.9884247 C7.09027397,22.8655479 6.78554795,22.5609247 6.66267123,22.1718493 L6.5780137,21.9035959" id="Fill-32" fill="#CED5E4"></path>
                        <path d="M15.0393493,29.9954795 C11.0391781,29.9954795 7.27839041,28.4377397 4.44986301,25.6092123 C1.62123288,22.7805822 0.0634931507,19.0197945 0.0634931507,15.0196233 C0.0634931507,11.0193493 1.62123288,7.25866438 4.44986301,4.43003425 C7.27839041,1.60150685 11.0391781,0.0437671233 15.0393493,0.0437671233 C19.0396233,0.0437671233 22.800411,1.60150685 25.6289384,4.43003425 C28.4575685,7.25866438 30.0153082,11.0193493 30.0153082,15.0196233 C30.0153082,19.0197945 28.4575685,22.7805822 25.6289384,25.6092123 C22.800411,28.4377397 19.0396233,29.9954795 15.0393493,29.9954795 L15.0393493,29.9954795 Z M15.0393493,1.44267123 C11.4128425,1.44267123 8.00342466,2.85493151 5.4390411,5.41931507 C2.87476027,7.98359589 1.4625,11.3931164 1.4625,15.0196233 C1.4625,18.6461301 2.87476027,22.0556507 5.4390411,24.6199315 C8.00342466,27.1843151 11.4128425,28.5964726 15.0393493,28.5964726 C18.6658562,28.5964726 22.0753767,27.1843151 24.6397603,24.6199315 C27.2040411,22.0556507 28.6163014,18.6461301 28.6163014,15.0196233 C28.6163014,11.3931164 27.2040411,7.98359589 24.6397603,5.41931507 C22.0753767,2.85493151 18.6658562,1.44267123 15.0393493,1.44267123 L15.0393493,1.44267123 Z" id="Fill-33" fill="#FFFFFF"></path>
                    </g>
                </g>
            </g>
        </g>
    </g>
</svg>