<?xml version="1.0" encoding="UTF-8" standalone="no"?>
<svg width="104px" height="30px" viewBox="0 0 104 30" version="1.1" xmlns="http://www.w3.org/2000/svg" xmlns:xlink="http://www.w3.org/1999/xlink" xmlns:sketch="http://www.bohemiancoding.com/sketch/ns">
    <!-- Generator: Sketch 3.3.3 (12072) - http://www.bohemiancoding.com/sketch -->
    <title>logo</title>
    <desc>Created with Sketch.</desc>
    <defs></defs>
    <g id="Landing" stroke="none" stroke-width="1" fill="none" fill-rule="evenodd" sketch:type="MSPage">
        <g id="blab-profile-alt" sketch:type="MSArtboardGroup" transform="translate(-70.000000, -15.000000)">
            <g id="header" sketch:type="MSLayerGroup">
                <g id="logo" transform="translate(70.000000, 15.000000)" sketch:type="MSShapeGroup">
                    <path d="M47.3942857,14.2628571 C47.8857167,14.5828587 48.2599987,15.0028545 48.5171429,15.5228571 C48.774287,16.0428597 48.9028571,16.6399966 48.9028571,17.3142857 C48.9028571,17.8857171 48.7971439,18.3999977 48.5857143,18.8571429 C48.3742847,19.314288 48.1000017,19.6999984 47.7628571,20.0142857 C47.4257126,20.328573 47.0542877,20.5714277 46.6485714,20.7428571 C46.2428551,20.9142866 45.8457162,21 45.4571429,21 L41.8571429,21 C41.6285703,21 41.4285723,20.9171437 41.2571429,20.7514286 C41.0857134,20.5857135 41,20.3885726 41,20.16 L41,9.84 C41,9.61142743 41.0857134,9.41428654 41.2571429,9.24857143 C41.4285723,9.08285631 41.6285703,9 41.8571429,9 L44.7028571,9 C44.7485717,9 44.9228556,9.0199998 45.2257143,9.06 C45.5285729,9.1000002 45.8628553,9.21142766 46.2285714,9.39428571 C47.3142911,9.94285989 47.8571429,10.8685649 47.8571429,12.1714286 C47.8571429,12.5257161 47.8142861,12.8599984 47.7285714,13.1742857 C47.6428567,13.488573 47.5142866,13.7657131 47.3428571,14.0057143 L47.3942857,14.2628571 Z M42.7142857,13.6457143 L44.4285714,13.6457143 C44.5085718,13.6457143 44.6428562,13.6342858 44.8314286,13.6114286 C45.0200009,13.5885713 45.2114276,13.531429 45.4057143,13.44 C45.600001,13.348571 45.7742849,13.2028581 45.9285714,13.0028571 C46.0828579,12.8028561 46.16,12.5257161 46.16,12.1714286 C46.16,11.8399983 46.1085719,11.5771438 46.0057143,11.3828571 C45.9028566,11.1885705 45.7800007,11.0428576 45.6371429,10.9457143 C45.494285,10.8485709 45.3485722,10.7857144 45.2,10.7571429 C45.0514278,10.7285713 44.931429,10.7142857 44.84,10.7142857 L42.7142857,10.7142857 L42.7142857,13.6457143 Z M46.3314286,19.0285714 C46.5257153,18.9142851 46.6799994,18.785715 46.7942857,18.6428571 C46.908572,18.4999993 46.9942854,18.3514293 47.0514286,18.1971429 C47.1085717,18.0428564 47.1457142,17.8914293 47.1628571,17.7428571 C47.1800001,17.594285 47.1885714,17.4514293 47.1885714,17.3142857 C47.1885714,17.1314277 47.1571432,16.9257154 47.0942857,16.6971429 C47.0314283,16.4685703 46.9285721,16.2542867 46.7857143,16.0542857 C46.6428564,15.8542847 46.4542869,15.685715 46.22,15.5485714 C45.9857131,15.4114279 45.6914303,15.3428571 45.3371429,15.3428571 L42.7142857,15.3428571 L42.7142857,19.2857143 L45.3371429,19.2857143 C45.3485715,19.2857143 45.4599989,19.2742858 45.6714286,19.2514286 C45.8828582,19.2285713 46.102856,19.1542863 46.3314286,19.0285714 L46.3314286,19.0285714 Z M51.2685714,21 C51.0285702,21 50.822858,20.9171437 50.6514286,20.7514286 C50.4799991,20.5857135 50.3942857,20.3885726 50.3942857,20.16 L50.3942857,9.84 C50.3942857,9.61142743 50.4799991,9.41428654 50.6514286,9.24857143 C50.822858,9.08285631 51.0285702,9 51.2685714,9 C51.497144,9 51.6942849,9.08285631 51.86,9.24857143 C52.0257151,9.41428654 52.1085714,9.61142743 52.1085714,9.84 L52.1085714,19.2857143 L55.88,19.2857143 C56.1200012,19.2857143 56.3257134,19.3714277 56.4971429,19.5428571 C56.6685723,19.7142866 56.7542857,19.9199988 56.7542857,20.16 C56.7542857,20.3885726 56.6685723,20.5857135 56.4971429,20.7514286 C56.3257134,20.9171437 56.1200012,21 55.88,21 L51.2685714,21 Z M68.1371429,19.8342857 C68.1714287,19.9257147 68.1885714,20.0342851 68.1885714,20.16 C68.1885714,20.3771439 68.1142865,20.5714277 67.9657143,20.7428571 C67.8171421,20.9142866 67.6114299,21 67.3485714,21 C67.1885706,21 67.0342865,20.9428577 66.8857143,20.8285714 C66.7371421,20.7142851 66.6228575,20.5885721 66.5428571,20.4514286 L65.7371429,18.4285714 L60.7142857,18.4285714 L59.8914286,20.4514286 C59.8228568,20.5885721 59.7142865,20.7142851 59.5657143,20.8285714 C59.4171421,20.9428577 59.2628579,21 59.1028571,21 C58.8514273,21 58.6485722,20.9114295 58.4942857,20.7342857 C58.3399992,20.557142 58.2628571,20.3657153 58.2628571,20.16 C58.2628571,20.0342851 58.2799998,19.9257147 58.3142857,19.8342857 C58.9657175,18.1771346 59.6485679,16.462866 60.3628571,14.6914286 C61.0771464,12.9199911 61.765711,11.2057226 62.4285714,9.54857143 C62.5085718,9.39999926 62.6199993,9.27142911 62.7628571,9.16285714 C62.905715,9.05428517 63.0628563,9 63.2342857,9 C63.3942865,9 63.5457136,9.05428517 63.6885714,9.16285714 C63.8314293,9.27142911 63.9428567,9.39999926 64.0228571,9.54857143 L68.1371429,19.8342857 Z M65.0342857,16.7314286 L63.2342857,12.1371429 L61.4171429,16.7314286 L65.0342857,16.7314286 Z M76.0228571,14.2628571 C76.5142882,14.5828587 76.8885701,15.0028545 77.1457143,15.5228571 C77.4028584,16.0428597 77.5314286,16.6399966 77.5314286,17.3142857 C77.5314286,17.8857171 77.4257153,18.3999977 77.2142857,18.8571429 C77.0028561,19.314288 76.7285731,19.6999984 76.3914286,20.0142857 C76.054284,20.328573 75.6828592,20.5714277 75.2771429,20.7428571 C74.8714265,20.9142866 74.4742877,21 74.0857143,21 L70.4857143,21 C70.2571417,21 70.0571437,20.9171437 69.8857143,20.7514286 C69.7142849,20.5857135 69.6285714,20.3885726 69.6285714,20.16 L69.6285714,9.84 C69.6285714,9.61142743 69.7142849,9.41428654 69.8857143,9.24857143 C70.0571437,9.08285631 70.2571417,9 70.4857143,9 L73.3314286,9 C73.3771431,9 73.5514271,9.0199998 73.8542857,9.06 C74.1571444,9.1000002 74.4914267,9.21142766 74.8571429,9.39428571 C75.9428626,9.94285989 76.4857143,10.8685649 76.4857143,12.1714286 C76.4857143,12.5257161 76.4428576,12.8599984 76.3571429,13.1742857 C76.2714281,13.488573 76.142858,13.7657131 75.9714286,14.0057143 L76.0228571,14.2628571 Z M71.3428571,13.6457143 L73.0571429,13.6457143 C73.1371433,13.6457143 73.2714276,13.6342858 73.46,13.6114286 C73.6485724,13.5885713 73.839999,13.531429 74.0342857,13.44 C74.2285724,13.348571 74.4028564,13.2028581 74.5571429,13.0028571 C74.7114293,12.8028561 74.7885714,12.5257161 74.7885714,12.1714286 C74.7885714,11.8399983 74.7371434,11.5771438 74.6342857,11.3828571 C74.5314281,11.1885705 74.4085721,11.0428576 74.2657143,10.9457143 C74.1228564,10.8485709 73.9771436,10.7857144 73.8285714,10.7571429 C73.6799993,10.7285713 73.5600005,10.7142857 73.4685714,10.7142857 L71.3428571,10.7142857 L71.3428571,13.6457143 Z M74.96,19.0285714 C75.1542867,18.9142851 75.3085709,18.785715 75.4228571,18.6428571 C75.5371434,18.4999993 75.6228569,18.3514293 75.68,18.1971429 C75.7371431,18.0428564 75.7742856,17.8914293 75.7914286,17.7428571 C75.8085715,17.594285 75.8171429,17.4514293 75.8171429,17.3142857 C75.8171429,17.1314277 75.7857146,16.9257154 75.7228571,16.6971429 C75.6599997,16.4685703 75.5571436,16.2542867 75.4142857,16.0542857 C75.2714279,15.8542847 75.0828583,15.685715 74.8485714,15.5485714 C74.6142845,15.4114279 74.3200018,15.3428571 73.9657143,15.3428571 L71.3428571,15.3428571 L71.3428571,19.2857143 L73.9657143,19.2857143 C73.9771429,19.2857143 74.0885704,19.2742858 74.3,19.2514286 C74.5114296,19.2285713 74.7314274,19.1542863 74.96,19.0285714 L74.96,19.0285714 Z" id="BLAB" fill="#242B34"></path>
                    <path d="M84.3371429,15.9714286 L84.3371429,13.6628571 C84.3371429,13.2971429 84.04,13 83.6628571,13 C83.2971429,13 83,13.2971429 83,13.6628571 L83,20.3371429 C83,20.7028571 83.2971429,21 83.6628571,21 C83.9257143,21 84.1428571,20.8514286 84.2571429,20.6457143 C84.6228571,20.8742857 85.0457143,21 85.5028571,21 C86.8742857,21 87.9942857,19.8 87.9942857,18.3371429 C87.9942857,16.8628571 86.8742857,15.6628571 85.5028571,15.6628571 C85.08,15.6628571 84.68,15.7771429 84.3371429,15.9714286 Z M85.5028571,19.6628571 C84.8514286,19.6628571 84.3371429,19.0685714 84.3371429,18.3371429 C84.3371429,17.5942857 84.8514286,17 85.5028571,17 C86.1428571,17 86.6685714,17.5942857 86.6685714,18.3371429 C86.6685714,19.0685714 86.1428571,19.6628571 85.5028571,19.6628571 L85.5028571,19.6628571 Z M91.4,21 C91.72,21 92.2914286,20.9428571 92.84,20.5771429 C93.0342857,20.4514286 93.1485714,20.2228571 93.1485714,20.0057143 C93.1485714,19.88 93.1142857,19.7542857 93.0342857,19.6514286 C92.9085714,19.4571429 92.6914286,19.3542857 92.4742857,19.3542857 C92.3485714,19.3542857 92.2228571,19.3885714 92.1085714,19.4571429 C91.8228571,19.6628571 91.5028571,19.6628571 91.3314286,19.6628571 L91.2628571,19.6628571 C90.68,19.64 90.4285714,19.2514286 90.3142857,18.8857143 L92.9085714,18.8857143 C93.2742857,18.8857143 93.5714286,18.5771429 93.5714286,18.2114286 C93.5714286,17.5257143 93.3428571,16.8857143 92.9085714,16.4171429 C92.4742857,15.9257143 91.88,15.6628571 91.24,15.6628571 C89.96,15.6628571 88.9085714,16.8514286 88.9085714,18.3257143 C88.9085714,19.0342857 89.1028571,19.6628571 89.48,20.1428571 C89.8914286,20.6571429 90.4971429,20.9542857 91.1942857,20.9885714 C91.24,21 91.3085714,21 91.4,21 L91.4,21 Z M90.44,17.5485714 C90.6228571,17.2171429 90.92,16.9885714 91.24,16.9885714 C91.6171429,16.9885714 91.9257143,17.2057143 92.0971429,17.5485714 L90.44,17.5485714 Z M97.3657143,15.6628571 L96.6914286,15.6628571 L96.6914286,13.6628571 C96.6914286,13.2971429 96.3942857,13 96.0285714,13 C95.6628571,13 95.3657143,13.2971429 95.3657143,13.6628571 L95.3657143,15.6628571 L94.6914286,15.6628571 C94.3257143,15.6628571 94.0285714,15.96 94.0285714,16.3371429 C94.0285714,16.7028571 94.3257143,17 94.6914286,17 L95.3657143,17 L95.3657143,20.3371429 C95.3657143,20.7028571 95.6628571,21 96.0285714,21 C96.3942857,21 96.6914286,20.7028571 96.6914286,20.3371429 L96.6914286,17 L97.3657143,17 C97.7314286,17 98.0285714,16.7028571 98.0285714,16.3371429 C98.0285714,15.96 97.7314286,15.6628571 97.3657143,15.6628571 L97.3657143,15.6628571 Z M103.251429,19.6057143 L103.251429,17.8114286 C103.251429,17.6857143 103.217143,16.4857143 102.302857,15.9714286 C101.948571,15.7771429 101.514286,15.6742857 101.057143,15.6742857 C100.954286,15.6742857 100.862857,15.6742857 100.76,15.6857143 C100.142857,15.7428571 99.5828571,15.9828571 99.1257143,16.36 C98.9657143,16.4857143 98.8857143,16.68 98.8857143,16.8742857 C98.8857143,17.0228571 98.9314286,17.1714286 99.0342857,17.2971429 C99.1714286,17.4571429 99.3542857,17.5371429 99.5485714,17.5371429 C99.6971429,17.5371429 99.8457143,17.4914286 99.9714286,17.3885714 C100.211429,17.1942857 100.645714,17 101.08,17 C101.274286,17 101.48,17.0457143 101.651429,17.1371429 C101.765714,17.2057143 101.845714,17.4 101.88,17.5828571 C101.72,17.56 101.571429,17.56 101.445714,17.56 C101.274286,17.56 101.114286,17.5714286 100.942857,17.5714286 C99.7085714,17.6171429 99.16,18.0285714 98.8971429,18.3714286 C98.7028571,18.6228571 98.6,18.9314286 98.6,19.2514286 C98.6,19.3771429 98.6114286,19.5028571 98.6457143,19.6285714 C98.8514286,20.4971429 99.5257143,20.9885714 100.497143,20.9885714 C100.851429,20.9885714 101.125714,20.92 101.217143,20.9085714 C101.502857,20.8514286 101.765714,20.76 102.005714,20.6342857 C102.108571,20.8514286 102.337143,21 102.6,21 C102.965714,21 103.262857,20.6914286 103.262857,20.3371429 L103.251429,19.6057143 Z M101.777143,19.0571429 C101.662857,19.2628571 101.4,19.5142857 100.977143,19.5942857 C100.965714,19.5942857 100.954286,19.5942857 100.931429,19.6057143 C100.874286,19.6171429 100.702857,19.6514286 100.497143,19.6514286 C100.017143,19.6514286 99.9714286,19.4571429 99.9371429,19.32 C99.9371429,19.2971429 99.9257143,19.2742857 99.9257143,19.2628571 C99.9257143,19.2171429 99.9485714,19.1942857 99.96,19.1714286 C100.04,19.0685714 100.337143,18.9314286 100.862857,18.9085714 C101.137143,18.8971429 101.297143,18.8971429 101.445714,18.8971429 C101.628571,18.8971429 101.754286,18.9085714 101.834286,18.92 L101.777143,19.0571429 Z" id="beta" fill="#242B34"></path>
                    <g id="owl-svg">
                        <path d="M28.8638014,15.0986301 C28.8638014,7.46373288 22.6743493,1.27428082 15.0393493,1.27428082 C7.40434932,1.27428082 1.215,7.46373288 1.215,15.0986301 C1.215,22.7336301 7.40434932,28.9230822 15.0393493,28.9230822 C22.6743493,28.9230822 28.8638014,22.7336301 28.8638014,15.0986301" id="Fill-1" fill="#FFFFFF"></path>
                        <path d="M25.7073288,15.0196233 C25.7073288,9.10047945 20.9089726,4.30202055 14.9898288,4.30202055 C9.07058219,4.30202055 4.27222603,9.10047945 4.27222603,15.0196233 C4.27222603,20.9387671 9.07058219,25.737226 14.9898288,25.737226 C20.9089726,25.737226 25.7073288,20.9387671 25.7073288,15.0196233" id="Fill-2" fill="#563E85"></path>
                        <path d="M24.0579452,15.5517123 C24.0579452,12.8367123 21.8570548,10.6358219 19.1420548,10.6358219 C17.3954795,10.6358219 15.8617808,11.5468151 14.9898288,12.9194178 C14.117774,11.5468151 12.5840753,10.6358219 10.8375,10.6358219 C8.1225,10.6358219 5.92150685,12.8367123 5.92150685,15.5517123 C5.92150685,15.969863 5.97390411,16.3756849 6.07212329,16.7632192 C6.65044521,20.3532534 10.4223288,23.1249658 14.9898288,23.1249658 C19.5571233,23.1249658 23.3291096,20.3532534 23.9074315,16.7632192 C24.0056507,16.3756849 24.0579452,15.969863 24.0579452,15.5517123" id="Fill-3" fill="#FFFFFF"></path>
                        <path d="M15.6966781,19.8116096 C15.6966781,20.2746575 14.9898288,21.4063356 14.9898288,21.4063356 C14.9898288,21.4063356 14.282774,20.2746575 14.282774,19.8116096 C14.282774,19.3485616 14.5993151,18.9731507 14.9898288,18.9731507 C15.3802397,18.9731507 15.6966781,19.3485616 15.6966781,19.8116096" id="Fill-4" fill="#F9C862"></path>
                        <path d="M20.9452397,16.8803425 C20.9452397,16.0777397 20.294589,15.427089 19.4919863,15.427089 C18.6892808,15.427089 18.0386301,16.0777397 18.0386301,16.8803425 C18.0386301,17.6830479 18.6892808,18.3336986 19.4919863,18.3336986 C20.294589,18.3336986 20.9452397,17.6830479 20.9452397,16.8803425" id="Fill-5" fill="#131125"></path>
                        <path d="M11.9409247,16.8803425 C11.9409247,16.0777397 11.2901712,15.427089 10.4875685,15.427089 C9.68496575,15.427089 9.03431507,16.0777397 9.03431507,16.8803425 C9.03431507,17.6830479 9.68496575,18.3336986 10.4875685,18.3336986 C11.2901712,18.3336986 11.9409247,17.6830479 11.9409247,16.8803425" id="Fill-6" fill="#131125"></path>
                        <path d="M8.60743151,15.0287671 C8.60743151,13.9903767 9.44917808,13.1485274 10.4875685,13.1485274 C11.5259589,13.1485274 12.3677055,13.9903767 12.3677055,15.0287671 L8.60743151,15.0287671" id="Fill-7" fill="#FFFFFF"></path>
                        <path d="M17.6117466,15.0287671 C17.6117466,13.9903767 18.4535959,13.1485274 19.4919863,13.1485274 C20.5303767,13.1485274 21.3721233,13.9903767 21.3721233,15.0287671 L17.6117466,15.0287671" id="Fill-8" fill="#FFFFFF"></path>
                        <path d="M21.3721233,18.6560959 C21.3721233,19.6944863 20.5303767,20.5362329 19.4919863,20.5362329 C18.4535959,20.5362329 17.6117466,19.6944863 17.6117466,18.6560959 L21.3721233,18.6560959" id="Fill-9" fill="#FFFFFF"></path>
                        <path d="M12.3677055,18.6560959 C12.3677055,19.6944863 11.5259589,20.5362329 10.4875685,20.5362329 C9.44917808,20.5362329 8.60743151,19.6944863 8.60743151,18.6560959 L12.3677055,18.6560959" id="Fill-10" fill="#FFFFFF"></path>
                        <path d="M17.1761301,1.03181507 C16.8042123,1.11113014 16.4380479,1.20493151 16.0775342,1.31270548 C23.227911,1.84325342 28.8638014,7.81273973 28.8638014,15.0986301 C28.8638014,22.0920205 23.6712329,27.8724658 16.9311986,28.7946575 C17.1516781,28.8458219 17.3744178,28.8919521 17.5986986,28.9327397 C16.7680479,29.0837671 15.9136644,29.1667808 15.0393493,29.1667808 C7.20791096,29.1667808 0.854383562,22.8381164 0.813390411,15.0162329 C0.813184932,15.0435616 0.813184932,15.0713014 0.813184932,15.0986301 C0.813184932,22.9556507 7.18243151,29.3248973 15.0393493,29.3248973 C22.8963699,29.3248973 29.2656164,22.9556507 29.2656164,15.0986301 C29.2656164,7.96777397 24.0196233,2.06239726 17.1761301,1.03181507" id="Fill-11" fill="#C5CEDF"></path>
                        <path d="M16.0775342,1.31270548 C13.2366781,2.16195205 10.767637,3.87482877 8.97719178,6.14619863 C10.6916096,4.98226027 12.7614041,4.30202055 14.9898288,4.30202055 C19.9139384,4.30202055 24.0624658,7.62277397 25.3180479,12.1471233 C25.3995205,12.037089 25.4635274,11.9129795 25.5058562,11.7789041 L25.5905137,11.5107534 L25.675274,11.7789041 C25.7980479,12.1679795 26.102774,12.4727055 26.4917466,12.5954795 L26.76,12.6802397 L26.4917466,12.7648973 C26.102774,12.8876712 25.7980479,13.1923973 25.675274,13.5813699 L25.6299658,13.7248973 C25.6810274,14.1494178 25.7073288,14.5814384 25.7073288,15.0196233 C25.7073288,20.9387671 20.9089726,25.737226 14.9898288,25.737226 C12.8795548,25.737226 10.9119863,25.1274658 9.25335616,24.0743836 C11.2015068,26.3959932 13.8781849,28.0864726 16.9311986,28.7946575 C23.6712329,27.8724658 28.8638014,22.0920205 28.8638014,15.0986301 C28.8638014,7.81273973 23.227911,1.84325342 16.0775342,1.31270548" id="Fill-12" fill="#C5CEDF"></path>
                        <path d="M14.9898288,4.30202055 C12.7614041,4.30202055 10.6916096,4.98226027 8.97719178,6.14619863 C8.50787671,6.7414726 8.08530822,7.37506849 7.71472603,8.04174658 C7.93386986,8.24856164 8.19945205,8.40688356 8.49503425,8.50027397 L8.92921233,8.63732877 L8.49503425,8.77438356 C7.86554795,8.97318493 7.37239726,9.46633562 7.17359589,10.0959247 L7.0365411,10.53 L6.89938356,10.0959247 C6.88171233,10.0398288 6.86167808,9.98486301 6.83938356,9.9310274 C6.25263699,11.4890753 5.93188356,13.1769863 5.93188356,14.9405137 C5.93188356,15.0261986 5.93260274,15.1117808 5.93414384,15.1971575 C6.11599315,12.647774 8.24178082,10.6358219 10.8375,10.6358219 C12.5840753,10.6358219 14.117774,11.5468151 14.9898288,12.9194178 C15.8617808,11.5468151 17.3954795,10.6358219 19.1420548,10.6358219 C21.8570548,10.6358219 24.0579452,12.8367123 24.0579452,15.5517123 C24.0579452,15.969863 24.0056507,16.3756849 23.9074315,16.7632192 C23.3291096,20.3532534 19.5571233,23.1249658 14.9898288,23.1249658 C10.4223288,23.1249658 6.65044521,20.3532534 6.07212329,16.7632192 C6.05321918,16.6884247 6.0359589,16.6130137 6.02044521,16.5368836 C6.33914384,19.3901712 7.50174658,21.9871233 9.25335616,24.0743836 C10.9119863,25.1274658 12.8795548,25.737226 14.9898288,25.737226 C20.9089726,25.737226 25.7073288,20.9387671 25.7073288,15.0196233 C25.7073288,14.5814384 25.6810274,14.1494178 25.6299658,13.7248973 L25.5905137,13.8496233 L25.5058562,13.5813699 C25.3829795,13.1923973 25.0782534,12.8876712 24.6892808,12.7648973 L24.4211301,12.6802397 L24.6892808,12.5954795 C24.9442808,12.5149315 25.1630137,12.3564041 25.3180479,12.1471233 C24.0624658,7.62277397 19.9139384,4.30202055 14.9898288,4.30202055" id="Fill-13" fill="#5A5493"></path>
                        <path d="M19.1420548,10.6358219 C17.3954795,10.6358219 15.8617808,11.5468151 14.9898288,12.9194178 C14.117774,11.5468151 12.5840753,10.6358219 10.8375,10.6358219 C8.24178082,10.6358219 6.11599315,12.647774 5.93414384,15.1971575 C5.94215753,15.6491096 5.97123288,16.0961301 6.02044521,16.5368836 C6.0359589,16.6130137 6.05321918,16.6884247 6.07212329,16.7632192 C6.65044521,20.3532534 10.4223288,23.1249658 14.9898288,23.1249658 C19.5571233,23.1249658 23.3291096,20.3532534 23.9074315,16.7632192 C24.0056507,16.3756849 24.0579452,15.969863 24.0579452,15.5517123 C24.0579452,12.8367123 21.8570548,10.6358219 19.1420548,10.6358219" id="Fill-14" fill="#C5CEDF"></path>
                        <path d="M14.9898288,18.9731507 C14.5993151,18.9731507 14.282774,19.3485616 14.282774,19.8116096 C14.282774,20.2746575 14.9898288,21.4063356 14.9898288,21.4063356 C14.9898288,21.4063356 15.6966781,20.2746575 15.6966781,19.8116096 C15.6966781,19.3485616 15.3802397,18.9731507 14.9898288,18.9731507" id="Fill-15" fill="#C8AF81"></path>
                        <path d="M19.4919863,15.427089 C18.6892808,15.427089 18.0386301,16.0777397 18.0386301,16.8803425 C18.0386301,17.6830479 18.6892808,18.3336986 19.4919863,18.3336986 C20.294589,18.3336986 20.9452397,17.6830479 20.9452397,16.8803425 C20.9452397,16.0777397 20.294589,15.427089 19.4919863,15.427089" id="Fill-16" fill="#282C47"></path>
                        <path d="M10.4875685,15.427089 C9.68496575,15.427089 9.03431507,16.0777397 9.03431507,16.8803425 C9.03431507,17.6830479 9.68496575,18.3336986 10.4875685,18.3336986 C11.2901712,18.3336986 11.9409247,17.6830479 11.9409247,16.8803425 C11.9409247,16.0777397 11.2901712,15.427089 10.4875685,15.427089" id="Fill-17" fill="#282C47"></path>
                        <path d="M15.0393493,0.714349315 C7.18243151,0.714349315 0.813184932,7.08359589 0.813184932,14.9405137 C0.813184932,14.9659932 0.813184932,14.9908562 0.813390411,15.0162329 C0.857465753,7.19702055 7.20976027,0.872465753 15.0393493,0.872465753 C15.765411,0.872465753 16.4793493,0.926917808 17.1761301,1.03181507 C17.3163699,1.00191781 17.4570205,0.974075342 17.5986986,0.948390411 C16.7680479,0.797363014 15.9136644,0.714349315 15.0393493,0.714349315" id="Fill-22" fill="#C5CEDF"></path>
                        <path d="M15.0393493,0.872465753 C7.20976027,0.872465753 0.857465753,7.19702055 0.813390411,15.0162329 C0.854383562,22.8381164 7.20791096,29.1667808 15.0393493,29.1667808 C15.9136644,29.1667808 16.7680479,29.0837671 17.5986986,28.9327397 C17.3744178,28.8919521 17.1516781,28.8458219 16.9311986,28.7946575 C16.3127055,28.8793151 15.6810616,28.9230822 15.0393493,28.9230822 C7.40434932,28.9230822 1.215,22.7336301 1.215,15.0986301 C1.215,7.46373288 7.40434932,1.27428082 15.0393493,1.27428082 C15.3884589,1.27428082 15.735,1.28732877 16.0775342,1.31270548 C16.4380479,1.20493151 16.8042123,1.11113014 17.1761301,1.03181507 C16.4793493,0.926917808 15.765411,0.872465753 15.0393493,0.872465753" id="Fill-23" fill="#A5B2D0"></path>
                        <path d="M6.5780137,24.2425685 L6.49335616,23.9743151 C6.37047945,23.5853425 6.06575342,23.2806164 5.67678082,23.1578425 L5.4085274,23.0730822 L5.67678082,22.9884247 C6.06575342,22.8655479 6.37047945,22.5609247 6.49335616,22.1718493 L6.5780137,21.9035959 L6.66267123,22.1718493 C6.78554795,22.5609247 7.09027397,22.8655479 7.47924658,22.9884247 L7.7475,23.0730822 L7.47924658,23.1578425 C7.09027397,23.2806164 6.78554795,23.5853425 6.66267123,23.9743151 L6.5780137,24.2425685 M15.0393493,1.27428082 C7.40434932,1.27428082 1.215,7.46373288 1.215,15.0986301 C1.215,22.7336301 7.40434932,28.9230822 15.0393493,28.9230822 C15.6810616,28.9230822 16.3127055,28.8793151 16.9311986,28.7946575 C13.8781849,28.0864726 11.2015068,26.3959932 9.25335616,24.0743836 C6.25931507,22.1735959 4.27222603,18.8285959 4.27222603,15.0196233 C4.27222603,12.8003425 4.94702055,10.7381507 6.10232877,9.02773973 C5.94256849,8.91976027 5.76636986,8.83386986 5.57794521,8.77438356 L5.14386986,8.63732877 L5.57794521,8.50027397 C6.20753425,8.3014726 6.70058219,7.80832192 6.89938356,7.17883562 L7.0365411,6.74465753 L7.17359589,7.17883562 C7.21243151,7.30171233 7.26246575,7.41955479 7.32256849,7.53092466 C7.82558219,7.01589041 8.37955479,6.55191781 8.97719178,6.14619863 C10.767637,3.87482877 13.2366781,2.16195205 16.0775342,1.31270548 C15.735,1.28732877 15.3884589,1.27428082 15.0393493,1.27428082" id="Fill-24" fill="#A5B3D0"></path>
                        <path d="M6.10232877,9.02773973 C4.94702055,10.7381507 4.27222603,12.8003425 4.27222603,15.0196233 C4.27222603,18.8285959 6.25931507,22.1735959 9.25335616,24.0743836 C7.50174658,21.9871233 6.33914384,19.3901712 6.02044521,16.5368836 C5.95571918,16.2185959 5.92150685,15.8891096 5.92150685,15.5517123 C5.92150685,15.4324315 5.92582192,15.3142808 5.93414384,15.1971575 C5.93260274,15.1117808 5.93188356,15.0261986 5.93188356,14.9405137 C5.93188356,13.1769863 6.25263699,11.4890753 6.83938356,9.9310274 C6.68650685,9.56157534 6.42873288,9.24842466 6.10232877,9.02773973 M8.97719178,6.14619863 C8.37955479,6.55191781 7.82558219,7.01589041 7.32256849,7.53092466 C7.42571918,7.72191781 7.55835616,7.89410959 7.71472603,8.04174658 C8.08530822,7.37506849 8.50787671,6.7414726 8.97719178,6.14619863" id="Fill-25" fill="#5D619C"></path>
                        <path id="Fill-26" fill="#A5B3D0" d="M5.93414384,15.1971575 C5.92582192,15.3142808 5.92150685,15.4324315 5.92150685,15.5517123 C5.92150685,15.8891096 5.95571918,16.2185959 6.02044521,16.5368836 C5.97123288,16.0961301 5.94215753,15.6491096 5.93414384,15.1971575"></path>
                        <path d="M7.71472603,8.04174658 C7.37886986,8.64575342 7.08575342,9.2769863 6.83938356,9.9310274 C6.86167808,9.98486301 6.88171233,10.0398288 6.89938356,10.0959247 L7.0365411,10.53 L7.17359589,10.0959247 C7.37239726,9.46633562 7.86554795,8.97318493 8.49503425,8.77438356 L8.92921233,8.63732877 L8.49503425,8.50027397 C8.19945205,8.40688356 7.93386986,8.24856164 7.71472603,8.04174658" id="Fill-27" fill="#9D97BE"></path>
                        <path d="M7.0365411,6.74465753 L6.89938356,7.17883562 C6.70058219,7.80832192 6.20753425,8.3014726 5.57794521,8.50027397 L5.14386986,8.63732877 L5.57794521,8.77438356 C5.76636986,8.83386986 5.94256849,8.91976027 6.10232877,9.02773973 C6.4639726,8.49236301 6.87267123,7.99150685 7.32256849,7.53092466 C7.26246575,7.41955479 7.21243151,7.30171233 7.17359589,7.17883562 L7.0365411,6.74465753" id="Fill-28" fill="#CED5E4"></path>
                        <path d="M7.32256849,7.53092466 C6.87267123,7.99150685 6.4639726,8.49236301 6.10232877,9.02773973 C6.42873288,9.24842466 6.68650685,9.56157534 6.83938356,9.9310274 C7.08575342,9.2769863 7.37886986,8.64575342 7.71472603,8.04174658 C7.55835616,7.89410959 7.42571918,7.72191781 7.32256849,7.53092466" id="Fill-29" fill="#A0A0C4"></path>
                        <path d="M25.5905137,11.5107534 L25.5058562,11.7789041 C25.4635274,11.9129795 25.3995205,12.037089 25.3180479,12.1471233 C25.4599315,12.6585616 25.5650342,13.1857192 25.6299658,13.7248973 L25.675274,13.5813699 C25.7980479,13.1923973 26.102774,12.8876712 26.4917466,12.7648973 L26.76,12.6802397 L26.4917466,12.5954795 C26.102774,12.4727055 25.7980479,12.1679795 25.675274,11.7789041 L25.5905137,11.5107534" id="Fill-30" fill="#E2E6EE"></path>
                        <path d="M25.3180479,12.1471233 C25.1630137,12.3564041 24.9442808,12.5149315 24.6892808,12.5954795 L24.4211301,12.6802397 L24.6892808,12.7648973 C25.0782534,12.8876712 25.3829795,13.1923973 25.5058562,13.5813699 L25.5905137,13.8496233 L25.6299658,13.7248973 C25.5650342,13.1857192 25.4599315,12.6585616 25.3180479,12.1471233" id="Fill-31" fill="#9D97BE"></path>
                        <path d="M6.5780137,21.9035959 L6.49335616,22.1718493 C6.37047945,22.5609247 6.06575342,22.8655479 5.67678082,22.9884247 L5.4085274,23.0730822 L5.67678082,23.1578425 C6.06575342,23.2806164 6.37047945,23.5853425 6.49335616,23.9743151 L6.5780137,24.2425685 L6.66267123,23.9743151 C6.78554795,23.5853425 7.09027397,23.2806164 7.47924658,23.1578425 L7.7475,23.0730822 L7.47924658,22.9884247 C7.09027397,22.8655479 6.78554795,22.5609247 6.66267123,22.1718493 L6.5780137,21.9035959" id="Fill-32" fill="#CED5E4"></path>
                        <path d="M15.0393493,29.9954795 C11.0391781,29.9954795 7.27839041,28.4377397 4.44986301,25.6092123 C1.62123288,22.7805822 0.0634931507,19.0197945 0.0634931507,15.0196233 C0.0634931507,11.0193493 1.62123288,7.25866438 4.44986301,4.43003425 C7.27839041,1.60150685 11.0391781,0.0437671233 15.0393493,0.0437671233 C19.0396233,0.0437671233 22.800411,1.60150685 25.6289384,4.43003425 C28.4575685,7.25866438 30.0153082,11.0193493 30.0153082,15.0196233 C30.0153082,19.0197945 28.4575685,22.7805822 25.6289384,25.6092123 C22.800411,28.4377397 19.0396233,29.9954795 15.0393493,29.9954795 L15.0393493,29.9954795 Z M15.0393493,1.44267123 C11.4128425,1.44267123 8.00342466,2.85493151 5.4390411,5.41931507 C2.87476027,7.98359589 1.4625,11.3931164 1.4625,15.0196233 C1.4625,18.6461301 2.87476027,22.0556507 5.4390411,24.6199315 C8.00342466,27.1843151 11.4128425,28.5964726 15.0393493,28.5964726 C18.6658562,28.5964726 22.0753767,27.1843151 24.6397603,24.6199315 C27.2040411,22.0556507 28.6163014,18.6461301 28.6163014,15.0196233 C28.6163014,11.3931164 27.2040411,7.98359589 24.6397603,5.41931507 C22.0753767,2.85493151 18.6658562,1.44267123 15.0393493,1.44267123 L15.0393493,1.44267123 Z" id="Fill-33" fill="#FFFFFF"></path>
                    </g>
                </g>
            </g>
        </g>
    </g>
</svg>