<?xml version="1.0" encoding="UTF-8" standalone="no"?>
<svg width="22px" height="21px" viewBox="0 0 22 21" version="1.1" xmlns="http://www.w3.org/2000/svg" xmlns:xlink="http://www.w3.org/1999/xlink" xmlns:sketch="http://www.bohemiancoding.com/sketch/ns">
    <!-- Generator: Sketch 3.3 (11970) - http://www.bohemiancoding.com/sketch -->
    <title>Rectangle 481 Copy</title>
    <desc>Created with Sketch.</desc>
    <defs></defs>
    <g id="Page-1" stroke="none" stroke-width="1" fill="none" fill-rule="evenodd" sketch:type="MSPage">
        <g id="blab-feed-laptop-large-copy-3" sketch:type="MSArtboardGroup" transform="translate(-1282.000000, -19.000000)" fill="#FFFFFF">
            <path d="M1294.76777,29.8535534 L1302.72405,21.8972697 C1303.20784,21.4134797 1303.21087,20.6189905 1302.72272,20.1308351 C1302.23116,19.6392765 1301.4437,19.6420832 1300.95628,20.1295027 L1293,28.0857864 L1285.04372,20.1295027 C1284.55993,19.6457128 1283.76544,19.6426798 1283.27728,20.1308351 C1282.78572,20.6223938 1282.78853,21.4098502 1283.27595,21.8972697 L1291.23223,29.8535534 L1283.6295,37.4562837 C1283.14571,37.9400737 1283.14268,38.7345629 1283.63084,39.2227182 C1284.12239,39.7142769 1284.90985,39.7114701 1285.39727,39.2240506 L1293,31.6213203 L1300.60273,39.2240506 C1301.08652,39.7078406 1301.88101,39.7108736 1302.36916,39.2227182 C1302.86072,38.7311595 1302.85792,37.9437032 1302.3705,37.4562837 L1294.76777,29.8535534 L1294.76777,29.8535534 Z" id="Rectangle-481-Copy" sketch:type="MSShapeGroup"></path>
        </g>
    </g>
</svg>