<?xml version="1.0" encoding="UTF-8" standalone="no"?>
<svg width="34px" height="35px" viewBox="0 0 34 35" version="1.1" xmlns="http://www.w3.org/2000/svg" xmlns:xlink="http://www.w3.org/1999/xlink" xmlns:sketch="http://www.bohemiancoding.com/sketch/ns">
    <!-- Generator: Sketch 3.3 (11970) - http://www.bohemiancoding.com/sketch -->
    <title>Rectangle 30</title>
    <desc>Created with Sketch.</desc>
    <defs></defs>
    <g id="Page-1" stroke="none" stroke-width="1" fill="none" fill-rule="evenodd" sketch:type="MSPage">
        <g id="main_page_web_02-copy-11" sketch:type="MSArtboardGroup" transform="translate(-1262.000000, -60.000000)" fill="#FFFFFF">
            <path d="M1281.4,75 L1281.4,57.4996341 C1281.4,56.1123657 1280.28071,55 1278.9,55 C1277.50966,55 1276.4,56.1191243 1276.4,57.4996341 L1276.4,75 L1258.89963,75 C1257.51237,75 1256.4,76.1192881 1256.4,77.5 C1256.4,78.8903379 1257.51912,80 1258.89963,80 L1276.4,80 L1276.4,97.5003659 C1276.4,98.8876343 1277.51929,100 1278.9,100 C1280.29034,100 1281.4,98.8808757 1281.4,97.5003659 L1281.4,80 L1298.90037,80 C1300.28763,80 1301.4,78.8807119 1301.4,77.5 C1301.4,76.1096621 1300.28088,75 1298.90037,75 L1281.4,75 Z" id="Rectangle-30" sketch:type="MSShapeGroup" transform="translate(1278.900000, 77.500000) rotate(-45.000000) translate(-1278.900000, -77.500000) "></path>
        </g>
    </g>
</svg>