<?xml version="1.0" encoding="UTF-8" standalone="no"?>
<svg width="15px" height="15px" viewBox="0 0 15 15" version="1.1" xmlns="http://www.w3.org/2000/svg" xmlns:xlink="http://www.w3.org/1999/xlink" xmlns:sketch="http://www.bohemiancoding.com/sketch/ns">
    <!-- Generator: Sketch 3.3.2 (12043) - http://www.bohemiancoding.com/sketch -->
    <title>create-topic</title>
    <desc>Created with Sketch.</desc>
    <defs></defs>
    <g id="Landing" stroke="none" stroke-width="1" fill="none" fill-rule="evenodd" sketch:type="MSPage">
        <g id="blab-newblab-copy" sketch:type="MSArtboardGroup" transform="translate(-418.000000, -180.000000)" fill="#FFFFFF">
            <g id="signup_form" sketch:type="MSLayerGroup" transform="translate(408.000000, 93.000000)">
                <path d="M15.9755652,96.919913 L13.7191304,97.6947826 C13.4963478,97.7708696 13.2826957,97.5578261 13.3593913,97.3344348 L14.1336522,95.078 C14.1884348,94.9197391 14.3905217,94.8728696 14.5092174,94.9915652 L16.0626087,96.5449565 C16.1813043,96.6636522 16.1344348,96.8657391 15.9755652,96.919913 Z M22.0241739,90.9589565 L16.866087,96.1170435 C16.7090435,96.274087 16.4594783,96.2783478 16.307913,96.1267826 L14.858,94.6768696 C14.7064348,94.5253043 14.7106957,94.2751304 14.8671304,94.1186957 L20.0252174,88.9606087 C20.1822609,88.8035652 20.4318261,88.7993043 20.5833913,88.9508696 L22.033913,90.4013913 C22.1848696,90.5523478 22.1806087,90.8025217 22.0241739,90.9589565 Z M23.8472174,89.274087 L22.9968696,90.1250435 C22.8404348,90.2814783 22.586,90.2814783 22.4295652,90.1250435 L20.9291304,88.6246087 C20.772087,88.4675652 20.772087,88.2137391 20.9291304,88.0566957 L21.7794783,87.2063478 C22.0546087,86.9312174 22.5007826,86.9312174 22.775913,87.2063478 L23.8472174,88.2782609 C24.1223478,88.5533913 24.1223478,88.9989565 23.8472174,89.274087 Z M18.0043478,88.813913 C18.0043478,88.4943478 17.7450435,88.224087 17.426087,88.224087 L10.8844348,88.224087 C10.3956522,88.224087 10,88.6197391 10,89.1085217 L10,100.147826 C10,100.636609 10.3956522,101.03287 10.8844348,101.03287 L21.9237391,101.03287 C22.4125217,101.03287 22.8087826,100.636609 22.8087826,100.147826 L22.8087826,93.594 C22.8087826,93.2744348 22.5354783,93.0157391 22.215913,93.0157391 C21.8963478,93.0157391 21.6376522,93.2744348 21.6376522,93.594 L21.6376522,99.4125217 C21.6376522,99.677913 21.4227826,99.8927826 21.1573913,99.8927826 L11.6173043,99.8927826 C11.3525217,99.8927826 11.1376522,99.677913 11.1376522,99.4125217 L11.1376522,89.8724348 C11.1376522,89.6076522 11.3525217,89.3927826 11.6173043,89.3927826 L17.426087,89.3927826 C17.7450435,89.3927826 18.0043478,89.1334783 18.0043478,88.813913 Z" id="create-topic" sketch:type="MSShapeGroup"></path>
            </g>
        </g>
    </g>
</svg>