<?xml version="1.0" encoding="UTF-8" standalone="no"?>
<svg width="14px" height="14px" viewBox="0 0 14 14" version="1.1" xmlns="http://www.w3.org/2000/svg" xmlns:xlink="http://www.w3.org/1999/xlink" xmlns:sketch="http://www.bohemiancoding.com/sketch/ns">
    <!-- Generator: Sketch 3.3.2 (12043) - http://www.bohemiancoding.com/sketch -->
    <title>create-category</title>
    <desc>Created with Sketch.</desc>
    <defs></defs>
    <g id="Landing" stroke="none" stroke-width="1" fill="none" fill-rule="evenodd" sketch:type="MSPage">
        <g id="blab-newblab-copy" sketch:type="MSArtboardGroup" transform="translate(-418.000000, -319.000000)" fill="#FFFFFF">
            <g id="signup_form" sketch:type="MSLayerGroup" transform="translate(408.000000, 93.000000)">
                <path d="M15.9028194,239.740182 L10.2597167,234.0968 C9.91335777,233.750441 9.91349777,233.189043 10.2597167,232.842964 L16.8429165,226.259764 C17.0524958,226.050185 17.3530749,225.959185 17.643854,226.017145 L22.3465796,226.957662 C22.6975585,227.027662 22.9719576,227.301781 23.0420974,227.65304 L23.9828945,232.355485 C24.0407144,232.646124 23.9499946,232.946843 23.7404153,233.156423 L17.1566555,239.740182 C16.8105766,240.086681 16.2491783,240.086681 15.9028194,239.740182 L15.9028194,239.740182 Z M12.1406109,233.470162 L16.5298774,237.859288 L22.1508602,232.238026 L21.4192224,228.580537 L17.7613137,227.849039 L12.1406109,233.470162 Z M20.3900856,230.82655 C20.7260845,230.490271 20.7258045,229.945673 20.3903656,229.609674 C20.0540866,229.273675 19.5094883,229.273395 19.1730693,229.609674 C18.8372103,229.945393 18.8372103,230.490411 19.1733493,230.82655 C19.5092083,231.162409 20.0542266,231.162409 20.3900856,230.82655 Z" id="create-category" sketch:type="MSShapeGroup"></path>
            </g>
        </g>
    </g>
</svg>