<?xml version="1.0" encoding="UTF-8" standalone="no"?>
<svg width="14px" height="14px" viewBox="0 0 14 14" version="1.1" xmlns="http://www.w3.org/2000/svg" xmlns:xlink="http://www.w3.org/1999/xlink" xmlns:sketch="http://www.bohemiancoding.com/sketch/ns">
    <!-- Generator: Sketch 3.3.2 (12043) - http://www.bohemiancoding.com/sketch -->
    <title>create-time</title>
    <desc>Created with Sketch.</desc>
    <defs></defs>
    <g id="Landing" stroke="none" stroke-width="1" fill="none" fill-rule="evenodd" sketch:type="MSPage">
        <g id="blab-newblab-copy" sketch:type="MSArtboardGroup" transform="translate(-418.000000, -458.000000)" fill="#FFFFFF">
            <g id="signup_form" sketch:type="MSLayerGroup" transform="translate(408.000000, 93.000000)">
                <path d="M10,372.000394 C10,375.859274 13.1402855,379 17.0000787,379 C20.859557,379 24,375.859274 24,372.000394 C24,368.140568 20.8597145,365 17.0000787,365 C13.140128,365 10,368.140568 10,372.000394 Z M17.5384615,372.206249 L17.5384615,368.123957 C17.5384615,367.763199 17.2454225,367.471913 16.8839405,367.471913 C16.5199383,367.471913 16.2294194,367.763843 16.2294194,368.123957 L16.2294194,372.859121 C16.2294194,373.026085 16.2921874,373.178168 16.3954584,373.293381 C16.515023,373.429765 16.6904265,373.515291 16.8859125,373.515291 L20.0676186,373.515291 C20.4256176,373.515291 20.7199854,373.222252 20.7199854,372.86077 C20.7199854,372.496768 20.4279109,372.206249 20.0676186,372.206249 L17.5384615,372.206249 Z M11.3074225,372.000369 C11.3074225,368.861341 13.86117,366.307364 17.0000663,366.307364 C20.1388113,366.307364 22.6921049,368.861341 22.6921049,372.000369 C22.6921049,375.138489 20.13866,377.692163 17.0000663,377.692163 C13.86117,377.692315 11.3074225,375.13864 11.3074225,372.000369 L11.3074225,372.000369 L11.3074225,372.000369 Z" id="create-time" sketch:type="MSShapeGroup"></path>
            </g>
        </g>
    </g>
</svg>