<?xml version="1.0" encoding="UTF-8" standalone="no"?>
<svg width="20px" height="20px" viewBox="0 0 20 20" version="1.1" xmlns="http://www.w3.org/2000/svg" xmlns:xlink="http://www.w3.org/1999/xlink" xmlns:sketch="http://www.bohemiancoding.com/sketch/ns">
    <!-- Generator: Sketch 3.3.3 (12072) - http://www.bohemiancoding.com/sketch -->
    <title>feed-questions-icon</title>
    <desc>Created with Sketch.</desc>
    <defs></defs>
    <g id="Page-1" stroke="none" stroke-width="1" fill="none" fill-rule="evenodd" sketch:type="MSPage">
        <g id="feed-questions-icon" sketch:type="MSLayerGroup">
            <g id="Group" sketch:type="MSShapeGroup">
                <path d="M10,20 C15.5228475,20 20,15.5228475 20,10 C20,4.4771525 15.5228475,0 10,0 C4.4771525,0 0,4.4771525 0,10 C0,15.5228475 4.4771525,20 10,20 Z" id="Oval-1" fill="#4D8FFB"></path>
                <path d="M14.2022462,14.0399444 C14.1081871,14.2714743 13.9381598,14.4668248 13.6921592,14.6260017 C13.4461586,14.7851786 13.1603681,14.8647658 12.834779,14.8647658 C12.3717191,14.8647658 11.9774005,14.754429 11.6518115,14.533752 C11.3262224,14.3130749 11.0331967,14.0363284 10.7727254,13.7035041 C10.4543717,13.7758572 10.0745235,13.8120332 9.63316951,13.8120332 C9.06157986,13.8120332 8.52979243,13.7432988 8.03779119,13.6058278 C7.54578998,13.4683569 7.12072178,13.240448 6.76257383,12.9220943 C6.40442589,12.6037406 6.12225296,12.1877163 5.91604657,11.6740092 C5.70984017,11.1603021 5.60673852,10.5272218 5.60673852,9.7747493 C5.60673852,9.10186526 5.68632576,8.49591702 5.84550263,7.95688626 C6.00467949,7.41785551 6.25429401,6.9584201 6.59435367,6.57856622 C6.93441334,6.19871234 7.36852554,5.9074954 7.89670332,5.70490667 C8.42488109,5.50231794 9.05796139,5.40102508 9.79596321,5.40102508 C10.3747881,5.40102508 10.912002,5.47337712 11.4076209,5.61808336 C11.9032398,5.7627896 12.3301168,5.99974251 12.6882647,6.32894921 C13.0464127,6.6581559 13.3267768,7.09045931 13.5293655,7.62587239 C13.7319542,8.16128551 13.8332471,8.81968898 13.8332471,9.60110269 C13.8332471,10.4693402 13.6776903,11.2163748 13.3665718,11.8422294 C13.0554534,12.4680839 12.5815476,12.9546513 11.9448401,13.3019463 C12.1401936,13.5117703 12.3500144,13.6799888 12.5743091,13.8066067 C12.7986038,13.9332247 13.0409831,13.9965327 13.3014543,13.9965327 C13.5763962,13.9965327 13.7789819,13.8988575 13.9092175,13.7035041 L14.2022462,14.0399444 L14.2022462,14.0399444 Z M11.1742833,12.2166549 C11.5505195,11.9778896 11.8109868,11.6360263 11.955693,11.1910545 C12.1003993,10.7460828 12.1727513,10.2414274 12.1727513,9.67707308 C12.1727513,9.00418904 12.1166785,8.45069602 12.0045312,8.01657729 C11.8923838,7.58245857 11.7350181,7.2387864 11.5324294,6.98555048 C11.3298407,6.73231456 11.0856526,6.55505208 10.7998577,6.45375771 C10.5140629,6.35246335 10.1975228,6.30181692 9.85022778,6.30181692 C9.40163842,6.30181692 9.01455508,6.36874255 8.68896602,6.50259582 C8.36337695,6.6364491 8.09567445,6.82999079 7.8858504,7.08322671 C7.67602636,7.33646263 7.52227828,7.64757637 7.42460157,8.01657729 C7.32692486,8.38557816 7.27808723,8.80522001 7.27808723,9.27551527 C7.27808723,9.77475179 7.30521925,10.208864 7.35948409,10.5778649 C7.41374893,10.9468658 7.49152737,11.2652148 7.59282173,11.5329213 C7.80264578,11.2796854 8.02331951,11.1042317 8.25484947,11.006555 C8.48637942,10.9088783 8.72514119,10.8600407 8.97114177,10.8600407 C9.20267173,10.8600407 9.42153663,10.8944079 9.62774305,10.9631434 C9.83394947,11.0318789 10.0274911,11.1277453 10.2083739,11.2507456 C10.3892567,11.3737459 10.559284,11.5166411 10.7184609,11.6794357 C10.8776378,11.8422302 11.029577,12.0213015 11.1742833,12.2166549 L11.1742833,12.2166549 L11.1742833,12.2166549 Z M7.77732126,12.0430083 C7.97990997,12.3903032 8.2367597,12.6290649 8.54787814,12.7593006 C8.85899658,12.8895362 9.22075675,12.954653 9.63316951,12.954653 C9.74169917,12.954653 9.84660962,12.9510354 9.947904,12.9438001 C10.0491984,12.9365648 10.1468736,12.9220944 10.2409327,12.9003885 C9.96599084,12.5024463 9.70552347,12.1895237 9.45952289,11.9616114 C9.2135223,11.7336991 8.92049657,11.6197446 8.58043688,11.6197446 C8.45743659,11.6197446 8.3272029,11.6523031 8.18973199,11.7174209 C8.05226107,11.7825386 7.91479218,11.8910667 7.77732126,12.0430083 L7.77732126,12.0430083 L7.77732126,12.0430083 Z" id="Q" fill="#FFFFFF"></path>
            </g>
        </g>
    </g>
</svg>