<?xml version="1.0" encoding="utf-8"?>
<!-- Generator: Adobe Illustrator 17.0.0, SVG Export Plug-In . SVG Version: 6.00 Build 0)  -->
<!DOCTYPE svg PUBLIC "-//W3C//DTD SVG 1.1//EN" "http://www.w3.org/Graphics/SVG/1.1/DTD/svg11.dtd">
<svg version="1.1" id="Layer_1" xmlns:sketch="http://www.bohemiancoding.com/sketch/ns"
	 xmlns="http://www.w3.org/2000/svg" xmlns:xlink="http://www.w3.org/1999/xlink" x="0px" y="0px" width="20px" height="20px"
	 viewBox="0 0 20 20" enable-background="new 0 0 20 20" xml:space="preserve">
<title>feed-questions-icon</title>
<desc>Created with Sketch.</desc>
<g id="Page-1" sketch:type="MSPage">
	<g id="feed-questions-icon" sketch:type="MSLayerGroup">
		<g id="Group" sketch:type="MSShapeGroup">
			<path id="Oval-1" fill="#FC0000" d="M10,20c5.523,0,10-4.477,10-10S15.523,0,10,0S0,4.477,0,10S4.477,20,10,20z"/>
			<path id="Q" fill="#FFFFFF" d="M14.202,14.04c-0.094,0.232-0.264,0.427-0.51,0.586c-0.246,0.159-0.532,0.239-0.857,0.239
				c-0.463,0-0.857-0.11-1.183-0.331c-0.326-0.221-0.619-0.497-0.879-0.83c-0.318,0.072-0.698,0.109-1.14,0.109
				c-0.572,0-1.103-0.069-1.595-0.206c-0.492-0.137-0.917-0.365-1.275-0.684c-0.358-0.318-0.64-0.734-0.847-1.248
				s-0.309-1.147-0.309-1.899c0-0.673,0.08-1.279,0.239-1.818c0.159-0.539,0.409-0.998,0.749-1.378
				c0.34-0.38,0.774-0.671,1.302-0.874c0.528-0.203,1.161-0.304,1.899-0.304c0.579,0,1.116,0.072,1.612,0.217
				C11.903,5.763,12.33,6,12.688,6.329c0.358,0.329,0.639,0.762,0.841,1.297s0.304,1.194,0.304,1.975
				c0,0.868-0.156,1.615-0.467,2.241c-0.311,0.626-0.785,1.112-1.422,1.46c0.195,0.21,0.405,0.378,0.629,0.505
				c0.224,0.127,0.467,0.19,0.727,0.19c0.275,0,0.478-0.098,0.608-0.293L14.202,14.04L14.202,14.04z M11.174,12.217
				c0.376-0.239,0.637-0.581,0.781-1.026c0.145-0.445,0.217-0.95,0.217-1.514c0-0.673-0.056-1.226-0.168-1.66
				c-0.112-0.434-0.27-0.778-0.472-1.031c-0.203-0.253-0.447-0.43-0.733-0.532c-0.286-0.101-0.602-0.152-0.95-0.152
				c-0.449,0-0.836,0.067-1.161,0.201S8.096,6.83,7.886,7.083S7.522,7.648,7.425,8.017C7.327,8.386,7.278,8.805,7.278,9.276
				c0,0.499,0.027,0.933,0.081,1.302c0.054,0.369,0.132,0.687,0.233,0.955c0.21-0.253,0.43-0.429,0.662-0.526
				c0.232-0.098,0.47-0.147,0.716-0.147c0.232,0,0.45,0.034,0.657,0.103s0.4,0.165,0.581,0.288s0.351,0.266,0.51,0.429
				C10.878,11.842,11.03,12.021,11.174,12.217L11.174,12.217L11.174,12.217z M7.777,12.043c0.203,0.347,0.459,0.586,0.771,0.716
				s0.673,0.195,1.085,0.195c0.109,0,0.213-0.004,0.315-0.011c0.101-0.007,0.199-0.022,0.293-0.043
				c-0.275-0.398-0.535-0.711-0.781-0.939C9.214,11.734,8.92,11.62,8.58,11.62c-0.123,0-0.253,0.033-0.391,0.098
				C8.052,11.783,7.915,11.891,7.777,12.043L7.777,12.043L7.777,12.043z"/>
		</g>
	</g>
</g>
</svg>
