<?xml version="1.0" encoding="UTF-8" standalone="no"?>
<svg width="29px" height="24px" viewBox="0 0 29 24" version="1.1" xmlns="http://www.w3.org/2000/svg" xmlns:xlink="http://www.w3.org/1999/xlink" xmlns:sketch="http://www.bohemiancoding.com/sketch/ns">
    <!-- Generator: Sketch 3.3 (11970) - http://www.bohemiancoding.com/sketch -->
    <title>follow_button copy</title>
    <desc>Created with Sketch.</desc>
    <defs></defs>
    <g id="Page" stroke="none" stroke-width="1" fill="none" fill-rule="evenodd" sketch:type="MSPage">
        <g id="buttons,-boxes,-icons" sketch:type="MSArtboardGroup" transform="translate(-1057.000000, -300.000000)">
            <g id="follow_button-copy" sketch:type="MSLayerGroup" transform="translate(1057.000000, 296.000000)">
                <rect id="Rectangle-82" sketch:type="MSShapeGroup" x="0" y="0" width="30" height="30"></rect>
                <path d="M26.4654017,20.0188677 L23.1298428,18.3147478 C23.1298428,18.3147478 21.9366061,17.6989596 21.7827766,16.813617 C21.6788124,16.2154697 21.5924891,15.4780762 21.5473282,15.0617488 C22.5041756,14.1801696 22.6048469,12.9123702 22.6048469,12.9123702 C22.6048469,12.9123702 23.0752734,12.3831404 23.2321606,12.1869726 C23.3890478,11.99104 23.4085705,11.2070742 23.4085705,10.7561705 C23.4085705,10.3052667 22.9774247,10.2269407 22.9774247,10.2269407 C22.9774247,10.2269407 23.2126379,10.0700535 23.114554,7.38485915 C23.0164701,4.69942962 19.782288,4.22900315 18.5474185,4.36613246 C17.9034047,4.4378725 17.4301557,4.91512016 17.2537457,5.46387264 C17.2537457,5.46387264 15.9798309,5.32674332 15.4506011,6.91443267 C14.940894,7.7767244 15.5289271,10.2269407 15.5289271,10.2269407 C15.5289271,10.2269407 15.2349105,10.36407 15.1368266,10.5209572 C15.0389779,10.6778445 15.1368266,11.7165461 15.2349105,12.0891239 C15.3329944,12.4614664 15.9798309,12.8730896 15.9798309,12.8730896 C15.9798309,12.8730896 15.9814773,14.3528161 17.0789823,15.2400404 C17.0307636,15.6683637 16.9536137,16.2933253 16.8632918,16.813617 C16.7092271,17.6989596 15.5159903,18.3147478 15.5159903,18.3147478 L12.1806666,20.0188677 C12.1806666,20.0188677 11.0864547,20.5203424 10.4483212,21.3410014 C9.80995243,22.1614251 9.6655315,23.4835587 9.6655315,23.4835587 L9.6655315,25.9678809 C9.6655315,26.7861878 10.5188851,27.4494891 11.337192,27.4494891 L27.3086412,27.4494891 C28.1269481,27.4494891 28.9803017,26.7861878 28.9803017,25.9678809 L28.9803017,23.4835587 C28.9803017,23.4835587 28.8358807,22.1614251 28.1977472,21.3410014 C27.5593785,20.5203424 26.4654017,20.0188677 26.4654017,20.0188677 Z" id="Fill-1-Copy" fill="#955FF1" sketch:type="MSShapeGroup"></path>
                <path d="M6.6637931,11.8965517 L6.6637931,7.79310345 L4.6637931,7.79310345 L4.6637931,11.8965517 L0.560344828,11.8965517 L0.560344828,13.8965517 L4.6637931,13.8965517 L4.6637931,18 L6.6637931,18 L6.6637931,13.8965517 L10.7672414,13.8965517 L10.7672414,11.8965517 L6.6637931,11.8965517 Z" id="Rectangle-59" fill="#955FF1" sketch:type="MSShapeGroup"></path>
            </g>
        </g>
    </g>
</svg>