<?xml version="1.0" encoding="UTF-8" standalone="no"?>
<svg width="26px" height="24px" viewBox="0 0 26 24" version="1.1" xmlns="http://www.w3.org/2000/svg" xmlns:xlink="http://www.w3.org/1999/xlink" xmlns:sketch="http://www.bohemiancoding.com/sketch/ns">
    <!-- Generator: Sketch 3.3 (11970) - http://www.bohemiancoding.com/sketch -->
    <title>Fill 1 Copy + Path Copy 5</title>
    <desc>Created with Sketch.</desc>
    <defs></defs>
    <g id="Page" stroke="none" stroke-width="1" fill="none" fill-rule="evenodd" sketch:type="MSPage">
        <g id="buttons,-boxes,-icons" sketch:type="MSArtboardGroup" transform="translate(-926.000000, -328.000000)" fill="#FFFFFF">
            <g id="folllow_circle" sketch:type="MSLayerGroup" transform="translate(926.000000, 236.000000)">
                <g id="Fill-1-Copy-+-Path-Copy-5" transform="translate(0.000000, 92.000000)" sketch:type="MSShapeGroup">
                    <path d="M19.5549717,17.9446963 C19.8931269,18.6854981 19.9803017,19.4835587 19.9803017,19.4835587 L19.9803017,21.9678809 C19.9803017,22.7861878 19.1269481,23.4494891 18.3086412,23.4494891 L2.33719198,23.4494891 C1.51888513,23.4494891 0.665531503,22.7861878 0.665531503,21.9678809 L0.665531503,19.4835587 C0.665531503,19.4835587 0.80995243,18.1614251 1.44832116,17.3410014 C2.08645467,16.5203424 3.18066665,16.0188677 3.18066665,16.0188677 L6.51599035,14.3147478 C6.51599035,14.3147478 7.7092271,13.6989596 7.86329177,12.813617 C7.95361365,12.2933253 8.03076359,11.6683637 8.07898231,11.2400404 C6.98147734,10.3528161 6.97983085,8.87308961 6.97983085,8.87308961 C6.97983085,8.87308961 6.33299445,8.46146644 6.23491053,8.08912389 C6.13682661,7.71654612 6.0389779,6.67784447 6.13682661,6.52095724 C6.23491053,6.36407001 6.52892708,6.22694069 6.52892708,6.22694069 C6.52892708,6.22694069 5.94089398,3.7767244 6.45060107,2.91443267 C6.97983085,1.32674332 8.25374574,1.46387264 8.25374574,1.46387264 C8.43015567,0.915120159 8.9034047,0.437872501 9.54741855,0.366132464 C10.782288,0.229003146 14.0164701,0.699429621 14.114554,3.38485915 C14.2126379,6.07005346 13.9774247,6.22694069 13.9774247,6.22694069 C13.9774247,6.22694069 14.4085705,6.3052667 14.4085705,6.75617047 C14.4085705,7.20707425 14.3890478,7.99103997 14.2321606,8.1869726 C14.0752734,8.38314043 13.6048469,8.91237022 13.6048469,8.91237022 C13.6048469,8.91237022 13.6001915,8.97099736 13.5833679,9.07180366 L13.490751,8.98023246 L12.0845887,10.370519 L10.4609042,11.9758719 L9.02244454,13.3980912 L10.4609042,14.8203105 L15.2590703,19.5643048 L16.738309,21.0268427 L18.1416002,19.4912848 L19.5549717,17.9446963 Z" id="Fill-1-Copy"></path>
                    <path d="M25.970015,7.96028394 L16.6652326,18.1420855 L11.8670665,13.3980912 L13.490751,11.7927383 L16.5194577,14.7872505 L24.273443,6.42622891 L25.970015,7.96028394 Z" id="Path-Copy-5"></path>
                </g>
            </g>
        </g>
    </g>
</svg>