<?xml version="1.0" encoding="UTF-8" standalone="no"?>
<svg width="14px" height="12px" viewBox="0 0 14 12" version="1.1" xmlns="http://www.w3.org/2000/svg" xmlns:xlink="http://www.w3.org/1999/xlink" xmlns:sketch="http://www.bohemiancoding.com/sketch/ns">
    <!-- Generator: Sketch 3.3.3 (12072) - http://www.bohemiancoding.com/sketch -->
    <title>twitter-white</title>
    <desc>Created with Sketch.</desc>
    <defs></defs>
    <g id="Landing" stroke="none" stroke-width="1" fill="none" fill-rule="evenodd" sketch:type="MSPage">
        <g id="blab-profile-activity" sketch:type="MSArtboardGroup" transform="translate(-988.000000, -717.000000)" fill="#FFFFFF">
            <g id="sidebar" sketch:type="MSLayerGroup" transform="translate(970.000000, 469.000000)">
                <g id="Rectangle-303-Copy-+-Sign-In-Copy-Copy-Copy-Copy-Copy-Copy" transform="translate(0.000000, 232.000000)" sketch:type="MSShapeGroup">
                    <path d="M30.623678,18.8463942 C30.6287791,18.9702772 30.631694,19.0948889 30.631694,19.2202294 C30.631694,23.032911 27.7299168,27.4285714 22.4233519,27.4285714 C20.7939261,27.4285714 19.2774524,26.9512575 18,26.132901 C18.2259043,26.159135 18.4554522,26.1729808 18.6886438,26.1729808 C20.0404259,26.1729808 21.284357,25.7116987 22.2717774,24.9377943 C21.0088995,24.9144752 19.9435057,24.0800867 19.5769578,22.9338046 C19.7525801,22.9680546 19.9333036,22.9862727 20.1191281,22.9862727 C20.3821973,22.9862727 20.6372505,22.9505652 20.8791867,22.8849801 C19.5594684,22.6197247 18.5654895,21.453767 18.5654895,20.0560753 L18.5654895,20.0196391 C18.9546278,20.2353413 19.3991492,20.3650541 19.8720908,20.3803573 C19.0981864,19.8629635 18.5888086,18.9797506 18.5888086,17.9792132 C18.5888086,17.4501599 18.7309097,16.9546278 18.9794045,16.5283246 C20.4026015,18.2736175 22.5282881,19.4228145 24.9257886,19.5430539 C24.8769641,19.3317241 24.8514588,19.1116496 24.8514588,18.8850165 C24.8514588,17.2920269 26.1427569,16 27.7364753,16 C28.5664915,16 29.316348,16.350516 29.8424864,16.9116332 C30.499795,16.7819204 31.1170239,16.5421703 31.6744974,16.2113298 C31.459524,16.8846704 31.0018856,17.4501599 30.4057897,17.8072344 C30.9894973,17.7380057 31.5455133,17.5827875 32.0629071,17.3532396 C31.6759549,17.9318461 31.1869814,18.4397664 30.623678,18.8463942" id="twitter-white"></path>
                </g>
            </g>
        </g>
    </g>
</svg>