<?xml version="1.0" encoding="UTF-8" standalone="no"?>
<svg width="25px" height="26px" viewBox="0 0 25 26" version="1.1" xmlns="http://www.w3.org/2000/svg" xmlns:xlink="http://www.w3.org/1999/xlink" xmlns:sketch="http://www.bohemiancoding.com/sketch/ns">
    <!-- Generator: Sketch 3.3 (11970) - http://www.bohemiancoding.com/sketch -->
    <title>Rectangle 29 Copy 3</title>
    <desc>Created with Sketch.</desc>
    <defs></defs>
    <g id="Page" stroke="none" stroke-width="1" fill="none" fill-rule="evenodd" sketch:type="MSPage">
        <g id="buttons,-boxes,-icons" sketch:type="MSArtboardGroup" transform="translate(-371.000000, -292.000000)" fill="#332F46">
            <g id="unchecked" sketch:type="MSLayerGroup" transform="translate(186.000000, 231.000000)">
                <path d="M187.435636,71.5635304 C186.223361,71.5635304 185.236735,72.5499593 185.236735,73.7667809 C185.236735,74.992086 186.221217,75.9700314 187.435636,75.9700314 L195.422589,75.9700314 L195.422589,83.9569845 C195.422589,85.1692595 196.409018,86.1558852 197.62584,86.1558852 C198.851145,86.1558852 199.82909,85.1714038 199.82909,83.9569845 L199.82909,75.9700314 L207.816043,75.9700314 C209.028318,75.9700314 210.014944,74.9836026 210.014944,73.7667809 C210.014944,72.5414758 209.030463,71.5635304 207.816043,71.5635304 L199.82909,71.5635304 L199.82909,63.5765774 C199.82909,62.3643024 198.842661,61.3776767 197.62584,61.3776767 C196.400535,61.3776767 195.422589,62.3621581 195.422589,63.5765774 L195.422589,71.5635304 L187.435636,71.5635304 Z" id="Rectangle-29-Copy-3" sketch:type="MSShapeGroup"></path>
            </g>
        </g>
    </g>
</svg>