<?xml version="1.0" encoding="UTF-8" standalone="no"?>
<svg width="18px" height="18px" viewBox="0 0 18 18" version="1.1" xmlns="http://www.w3.org/2000/svg" xmlns:xlink="http://www.w3.org/1999/xlink" xmlns:sketch="http://www.bohemiancoding.com/sketch/ns">
    <!-- Generator: Sketch 3.3.2 (12043) - http://www.bohemiancoding.com/sketch -->
    <title>rocket</title>
    <desc>Created with Sketch.</desc>
    <defs></defs>
    <g id="Landing" stroke="none" stroke-width="1" fill="none" fill-rule="evenodd" sketch:type="MSPage">
        <g id="blab-landing-logged-in" sketch:type="MSArtboardGroup" transform="translate(-649.000000, -292.000000)" fill="#FFFFFF">
            <g id="topic_header" sketch:type="MSLayerGroup" transform="translate(0.000000, 70.000000)">
                <g id="Rectangle-303-Copy-+-Sign-In-Copy" transform="translate(629.000000, 211.000000)" sketch:type="MSShapeGroup">
                    <g id="rocket" transform="translate(30.451513, 18.756518) rotate(45.000000) translate(-30.451513, -18.756518) translate(23.951513, 8.756518)">
                        <path d="M6.30174764,5.09531826 C5.38269712,5.09531826 4.63508097,5.84279455 4.63508097,6.76198493 C4.63508097,7.68092167 5.38269712,8.4286516 6.30174764,8.4286516 C7.22079816,8.4286516 7.96841431,7.68092167 7.96841431,6.76198493 C7.96841431,5.84304819 7.22079816,5.09531826 6.30174764,5.09531826 L6.30174764,5.09531826 Z M6.30174764,7.51199761 C5.88837779,7.51199761 5.55184908,7.17541769 5.55184908,6.76223857 C5.55184908,6.34880581 5.88837779,6.01197225 6.30174764,6.01197225 C6.71511749,6.01197225 7.0518998,6.34905945 7.0518998,6.76223857 C7.0518998,7.17541769 6.71511749,7.51199761 6.30174764,7.51199761 L6.30174764,7.51199761 Z" id="Shape"></path>
                        <path d="M10.643908,10.098467 C10.6301422,10.0769505 10.6139938,10.0583203 10.5975808,10.0396902 C10.3720334,4.60781606 7.07512352,1.22132425 6.62799965,0.786270517 C6.44189658,0.605741587 6.14407872,0.605741587 5.95797565,0.786270517 C5.51005759,1.22184904 2.20414701,4.61778714 1.98707088,10.0633059 C1.97780544,10.0751137 1.96748109,10.0853472 1.95927455,10.098467 C1.87191465,10.2351757 -0.171248218,13.5004402 0.247020417,18.2395871 C0.266610214,18.4610499 0.437888573,18.6386924 0.659729785,18.6680809 C0.681172671,18.6712296 0.702880284,18.6725416 0.724058443,18.6725416 C0.9218095,18.6725416 1.10208858,18.5507895 1.17224123,18.3631759 C1.51400376,17.4502978 2.19302848,16.001868 2.81831361,15.2661076 C3.01182904,15.6906655 3.2429357,16.0963308 3.5137514,16.4783804 C3.5804626,16.5717936 3.67894104,16.6387048 3.79145001,16.665994 C4.22824953,16.7722647 4.67193196,16.8491469 5.11879111,16.8982151 C5.26677349,17.782492 5.50317469,18.6305581 5.87432192,19.2954714 C5.95876983,19.4460871 6.11892965,19.5397627 6.29312001,19.5397627 C6.46731037,19.5397627 6.62773492,19.4463495 6.7119181,19.2954714 C7.08359479,18.629771 7.31999598,17.7803928 7.46771364,16.894804 C7.91457279,16.8459982 8.35799049,16.7722647 8.79479001,16.6662564 C8.90729898,16.6389672 9.00577742,16.5723184 9.07248862,16.4786428 C9.34621632,16.0926573 9.57917607,15.6827936 9.7737504,15.2535126 C10.4014181,15.9845498 11.087061,17.4450498 11.431206,18.3637007 C11.5018882,18.5510519 11.6819025,18.672804 11.8796536,18.672804 C11.9008317,18.672804 11.9222746,18.671492 11.9437175,18.6683433 C12.1655587,18.6389548 12.3368371,18.4613123 12.3564269,18.2398495 C12.7749602,13.5004402 10.7310032,10.2349133 10.643908,10.098467 L10.643908,10.098467 Z M1.18256558,16.0372915 C1.29772182,14.4141056 1.68845885,13.0653865 2.05351736,12.1176096 C2.10487439,12.6143266 2.18032158,13.1228514 2.28885965,13.6463328 C2.33439269,13.8654341 2.39051481,14.0798122 2.45351983,14.2913039 C1.98415889,14.697494 1.54365319,15.3689672 1.18256558,16.0372915 L1.18256558,16.0372915 Z M6.29312001,17.7935127 C5.72078027,15.8160911 5.84705504,13.0378349 5.90503025,12.1698266 C6.02071594,12.1270559 6.16208015,12.0897956 6.29312001,12.0897956 C6.41674751,12.0897956 6.56155317,12.1296799 6.6814745,12.1729753 C6.73944971,13.0457068 6.86466557,15.8187151 6.29312001,17.7935127 L6.29312001,17.7935127 Z M8.39081663,15.7859155 C8.12873692,15.8446924 7.86295103,15.8864134 7.59663568,15.921837 C7.79941655,13.8887874 7.62602038,11.9420662 7.61384293,11.8137543 C7.59928295,11.6584154 7.50874632,11.5190828 7.37082356,11.4432501 C7.31496617,11.4128121 6.81145545,11.1412315 6.29312001,11.1412315 C5.74804715,11.1412315 5.25989059,11.4175352 5.20615101,11.4490228 C5.07352279,11.5264299 4.98669234,11.662089 4.97266181,11.8140167 C4.9607491,11.942591 4.7870882,13.8911489 4.99039852,15.9252482 C4.72355372,15.8898246 4.45829728,15.8446924 4.19568811,15.7864403 C3.72765081,15.0871531 3.40177189,14.3038989 3.2262579,13.4560952 C1.94656766,7.27848968 5.15638234,3.07358256 6.29338474,1.81486558 C7.43038713,3.07358256 10.6404665,7.27848968 9.3607763,13.4560952 C9.18473286,14.3031118 8.85885394,15.0866283 8.39081663,15.7859155 L8.39081663,15.7859155 Z M10.1364264,14.2792337 C10.197843,14.0714155 10.2526415,13.8612357 10.2973804,13.6463328 C10.408301,13.1102564 10.4845424,12.5899237 10.5356347,12.0816613 C10.9049288,13.0312749 11.3044018,14.3931138 11.4211464,16.0372915 C11.0566174,15.3621448 10.6105524,14.6838494 10.1364264,14.2792337 L10.1364264,14.2792337 Z" id="Shape"></path>
                    </g>
                </g>
            </g>
        </g>
    </g>
</svg>