<svg xmlns="http://www.w3.org/2000/svg" viewBox="0 0 56 72"><path class="icon" fill="#697882" d="M52.366 28.943c-.374-1.17-1.463-1.963-2.693-1.963h-14.19l-4.808-14.07C30.285 11.767 29.21 11 28 11s-2.285.767-2.676 1.91l-4.81 14.07H6.328c-1.23 0-2.32.794-2.693 1.963-.374 1.17.053 2.446 1.055 3.156l11.33 8.03-4.83 14.14c-.396 1.158.002 2.44.986 3.17.983.73 2.327.748 3.328.04L28 48.62l12.497 8.858c.49.348 1.064.522 1.638.522.595 0 1.19-.187 1.69-.56.983-.73 1.382-2.012.986-3.17l-4.83-14.14 11.33-8.03c1.003-.712 1.43-1.988 1.056-3.157z"/></svg>