<?xml version="1.0" encoding="UTF-8" standalone="no"?>
<svg width="48px" height="47px" viewBox="0 0 48 47" version="1.1" xmlns="http://www.w3.org/2000/svg" xmlns:xlink="http://www.w3.org/1999/xlink" xmlns:sketch="http://www.bohemiancoding.com/sketch/ns">
    <!-- Generator: Sketch 3.3 (11970) - http://www.bohemiancoding.com/sketch -->
    <title>unchecked</title>
    <desc>Created with Sketch.</desc>
    <defs></defs>
    <g id="Page-1" stroke="none" stroke-width="1" fill="none" fill-rule="evenodd" sketch:type="MSPage">
        <g id="Artboard-1-Copy" sketch:type="MSArtboardGroup" transform="translate(-2044.000000, -599.000000)">
            <g id="Group-Copy" sketch:type="MSLayerGroup" transform="translate(384.000000, 218.000000)">
                <g id="items" transform="translate(974.000000, 155.000000)" sketch:type="MSShapeGroup">
                    <g id="user-4" transform="translate(-0.961977, 152.898026)">
                        <g id="unchecked" transform="translate(687.813688, 73.083333)">
                            <path d="M23.0874525,0.752968802 C10.3359639,0.752968802 0,11.0851251 0,23.8319162 C0,36.5787073 10.3359639,46.9108635 23.0874525,46.9108635 C35.8389411,46.9108635 46.1749049,36.5787073 46.1749049,23.8319162 C46.1749049,11.0851251 35.8389411,0.752968802 23.0874525,0.752968802 L23.0874525,0.752968802 Z" id="Shape-2" stroke="#D8D8D8" stroke-width="2"></path>
                            <path d="M21.1126913,22.5466205 L14.0076748,22.5466205 C12.9057132,22.5466205 12.0247148,23.4307511 12.0247148,24.5213816 C12.0247148,25.6196157 12.9125162,26.4961427 14.0076748,26.4961427 L21.1126913,26.4961427 L21.1126913,33.6011593 C21.1126913,34.7031208 21.996822,35.5841192 23.0874525,35.5841192 C24.1856866,35.5841192 25.0622136,34.6963178 25.0622136,33.6011593 L25.0622136,26.4961427 L32.1672302,26.4961427 C33.2691917,26.4961427 34.1501901,25.612012 34.1501901,24.5213816 C34.1501901,23.4231475 33.2623887,22.5466205 32.1672302,22.5466205 L25.0622136,22.5466205 L25.0622136,15.4416039 C25.0622136,14.3396423 24.1780829,13.4586439 23.0874525,13.4586439 C21.9892183,13.4586439 21.1126913,14.3464453 21.1126913,15.4416039 L21.1126913,22.5466205 Z" id="Rectangle-29" fill="#D8D8D8"></path>
                        </g>
                    </g>
                </g>
            </g>
        </g>
    </g>
</svg>