<?xml version="1.0" encoding="utf-8"?>
<!-- Generator: Adobe Illustrator 16.0.0, SVG Export Plug-In . SVG Version: 6.00 Build 0)  -->
<!DOCTYPE svg PUBLIC "-//W3C//DTD SVG 1.1//EN" "http://www.w3.org/Graphics/SVG/1.1/DTD/svg11.dtd">
<svg version="1.1" xmlns="http://www.w3.org/2000/svg" xmlns:xlink="http://www.w3.org/1999/xlink" x="0px" y="0px" width="65px"
	 height="64px" viewBox="0 0 65 64" enable-background="new 0 0 65 64" xml:space="preserve">
<g id="Layer_2" display="none">
	<rect x="-12.5" y="-7.667" display="inline" fill="#00A651" width="112.334" height="90.667"/>
</g>
<g id="explode_your_income" display="none">
	<path display="inline" fill-rule="evenodd" clip-rule="evenodd" fill="#414042" d="M30.621,15.006
		c-1.232,0.104-1.718-0.794-2.295-1.79c-0.051,0.465-0.054,0.828-0.144,1.168c-0.051,0.193-0.211,0.419-0.383,0.496
		c-0.102,0.046-0.389-0.129-0.476-0.275c-0.48-0.811-0.956-1.627-1.371-2.471c-0.547-1.113-1.036-2.254-1.63-3.56
		c0.538,2.165,1.053,4.13,1.498,6.111c0.101,0.449-0.045,0.955-0.077,1.434c-0.442-0.192-0.884-0.384-1.325-0.577
		c-0.062-0.027-0.121-0.059-0.205-0.1c0.153,0.591,0.328,1.147,0.433,1.716c0.075,0.407-0.017,0.757-0.553,0.821
		c-0.138,0.016-0.25,0.247-0.318,0.444c1.982-0.299,3.507,0.329,4.751,1.8c0.192,0.227,0.648,0.288,0.991,0.319
		c0.787,0.072,1.418,0.443,1.697,1.128c0.166,0.411-0.019,0.964-0.152,1.445c-0.123-1.134-0.512-1.762-1.3-1.934
		c-0.944-0.206-1.76,0.454-2.454,1.982c-0.181-0.761,0.131-1.492,1.038-2.404c-0.998-1.291-2.34-1.743-3.914-1.588
		c-1.053,0.104-1.61,0.706-2.21,2.29c-0.577-0.148-1.151-0.374-1.742-0.434c-2.776-0.283-4.682,2.028-3.928,4.83
		c0.276,1.031,0.81,1.992,1.193,3.046c-0.519-0.801-1.038-1.602-1.59-2.455c-0.888,0.685-1.645,1.581-1.661,2.725
		c-0.015,1.079,0.361,2.163,0.6,3.433c-0.496-0.961-0.93-1.801-1.416-2.742c-1.289,0.078-2.275,0.815-2.883,2.017
		c-0.769,1.521,0.023,2.687,1.067,3.77c-1.871,1.036-3.405,2.309-2.87,4.697c0.497,2.213,2.561,4.043,4.461,4.123
		c0.306-0.9,0.743-1.733,1.746-2.106c-0.117,0.145-0.233,0.292-0.354,0.433c-0.968,1.129-0.863,2.16,0.367,2.968
		c0.983,0.646,2.102,0.927,3.275,0.861c0.222-0.013,0.516-0.281,0.623-0.505c0.321-0.676,0.567-1.387,0.841-2.083
		c0.088,0.034,0.176,0.069,0.265,0.104c-0.974,2.518-1.949,5.033-2.929,7.568c0.967-1.165,1.919-2.325,2.891-3.47
		c0.28-0.329,0.592-0.642,0.935-0.905c0.178-0.137,0.453-0.15,0.684-0.219c0.041,0.234,0.174,0.498,0.109,0.697
		c-0.407,1.261-0.833,2.516-1.3,3.754c-0.482,1.276-1.019,2.531-1.579,3.912c1.135-1.623,2.184-3.145,3.257-4.647
		c0.234-0.328,0.528-0.632,0.848-0.876c0.475-0.359,0.836-0.172,0.846,0.436c0.007,0.399-0.079,0.801-0.125,1.213
		c0.521-0.432,1.039-0.861,1.557-1.291c0.081,0.059,0.162,0.115,0.244,0.174c-0.027,2.268-0.844,4.393-1.357,6.705
		c0.148-0.176,0.236-0.26,0.3-0.359c0.082-0.127,0.139-0.271,0.218-0.401c0.961-1.595,1.897-3.206,2.904-4.772
		c0.307-0.477,0.659-1.05,1.424-1.008c-0.032,0.098-0.034,0.158-0.066,0.188c-1.656,1.552-1.562,1.664,0.004,3.153
		c1.41,1.342,3.133,2.198,5.162,1.37c0.69-0.282,1.28-0.804,2.031-1.288c1.601,0.87,3.396,1.112,5.241,0.179
		c1.798-0.909,2.36-2.192,2.061-4.821c0.684,0.472,1.283,0.43,1.809-0.219c0.751-0.926,0.728-1.447-0.161-2.773
		c0.951,0.39,1.409,1.229,1.172,2.149c-0.271,1.056-1.21,1.761-2.268,1.671c-0.032,0.628,0.008,1.269-0.108,1.881
		c-0.407,2.161-2.86,3.77-5.128,3.341c-0.767-0.146-1.492-0.495-2.248-0.714c-0.197-0.058-0.51-0.059-0.642,0.059
		c-2.689,2.395-5.954,1.963-7.969-1.076c-0.167-0.252-0.314-0.516-0.605-0.999c-1.78,3.509-3.489,6.876-5.198,10.244
		c-0.037-0.01-0.074-0.019-0.111-0.028c0.513-1.856,1.06-3.704,1.532-5.57c0.48-1.897,0.888-3.814,1.327-5.722
		c-0.076-0.044-0.151-0.087-0.227-0.13c-0.742,0.832-1.484,1.664-2.36,2.646c0.372-1.277,0.686-2.357,1-3.438
		c-0.097-0.046-0.194-0.093-0.291-0.138c-2.85,3.627-4.967,7.732-7.444,11.625c1.787-4.52,3.575-9.039,5.362-13.559
		c-0.104-0.062-0.209-0.125-0.313-0.188c-1.272,1.565-2.571,3.109-3.808,4.701c-1.225,1.578-2.387,3.205-3.676,4.743
		c0.983-1.743,2.016-3.459,2.935-5.234c0.91-1.757,1.705-3.573,2.529-5.32c-1.164-0.263-2.21-0.452-3.226-0.749
		c-0.445-0.131-0.961-0.391-1.208-0.754c-0.49-0.717-1.112-0.889-1.918-1.042c-2.178-0.414-3.192-2.135-3.996-3.977
		c-0.649-1.488-0.297-2.952,0.914-4.034c0.397-0.354,0.86-0.636,1.3-0.94c0.186-0.128,0.391-0.229,0.599-0.348
		c-0.259-0.33-0.512-0.616-0.726-0.931c-1.269-1.864-0.701-3.877,1.376-4.784c0.458-0.2,0.993-0.221,1.466-0.395
		c0.223-0.082,0.507-0.302,0.553-0.507c0.236-1.047,0.767-1.899,1.624-2.511c0.459-0.327,0.612-0.631,0.484-1.199
		c-0.242-1.079-0.122-2.131,0.532-3.074c1.16-1.676,2.663-2.187,4.601-1.554c0.264,0.086,0.521,0.194,0.765,0.286
		c0.218-0.433,0.384-0.859,0.633-1.229c0.254-0.377,0.589-0.7,0.983-1.154c-0.166-0.541-0.385-1.26-0.661-2.162
		c0.502,0.479,0.864,0.825,1.226,1.17c0.089-0.048,0.177-0.096,0.266-0.143c-0.406-1.26-0.812-2.521-1.217-3.782
		c0.04-0.034,0.081-0.069,0.121-0.104c0.618,0.74,1.237,1.479,1.855,2.218c0.131-0.089,0.262-0.179,0.394-0.269
		c-0.751-4.247-2.103-8.354-3.108-12.55c1.663,3.766,3.119,7.618,5.29,11.157c0-1.405,0-2.81,0-4.391
		c0.807,2.007,0.836,4.319,2.988,5.395L30.621,15.006z"/>
	<path display="inline" fill-rule="evenodd" clip-rule="evenodd" fill="#414042" d="M30.594,15.034
		c0.811-0.51,1.561-1.221,2.444-1.492c2.336-0.718,5.257,1.095,5.938,3.597c0.162,0.596,0.389,0.847,1.001,0.993
		c1.23,0.292,1.888,1.23,2.249,2.392c0.081,0.265,0.124,0.543,0.178,0.785c0.814,0.151,1.582,0.339,2.36,0.412
		c0.25,0.023,0.527-0.261,0.794-0.4c0.579-0.303,1.161-0.602,1.861-0.856c-0.288,0.335-0.577,0.67-0.845,0.98
		c0.155,0.073,0.372,0.175,0.689,0.324c-0.568,0.071-1.014,0.127-1.611,0.202c0.549,0.403,1.009,0.672,1.385,1.029
		c1.239,1.182,1.764,2.645,1.667,4.357c-0.017,0.293,0.132,0.67,0.333,0.887c0.746,0.803,0.9,1.466,0.399,2.512
		c-0.183,0.378-0.158,0.597,0.123,0.93c1.7,2.013,1.181,4.411-1.2,5.557c-0.659,0.318-1.377,0.518-2.226,0.83
		c0.239,0.277,0.417,0.576,0.674,0.768c2.737,2.053,5.482,4.098,8.239,6.125c0.773,0.568,1.595,1.071,2.354,1.676
		c-3.702-1.731-7.232-3.818-11.063-5.258c-0.059,0.059-0.118,0.117-0.177,0.176c0.227,0.338,0.4,0.733,0.688,1.006
		c1.578,1.49,3.184,2.951,4.781,4.42c0.178,0.164,0.365,0.318,0.457,0.611c-1.798-1.124-3.594-2.248-5.392-3.371
		c-0.047,0.047-0.094,0.092-0.141,0.139c0.352,0.465,0.702,0.931,1.172,1.552c-1.31-0.4-2.234-1.464-3.564-1.166
		c0.354-0.592,0.551-0.611,1.742-0.189c-0.033-0.331-0.068-0.68-0.104-1.028c0.47,0.085,0.94,0.17,1.437,0.259
		c-0.354-0.384-0.733-0.771-1.081-1.183c-0.213-0.25-0.443-0.52-0.546-0.82c-0.096-0.283-0.146-0.69-0.006-0.91
		c0.104-0.164,0.568-0.209,0.827-0.141c0.661,0.177,1.297,0.447,1.943,0.679c0.183,0.065,0.365,0.128,0.594,0.102
		c-0.967-0.812-1.935-1.622-2.956-2.479c-0.52,0.675-1.233,1.013-2.27,0.818c0.837-0.419,1.798-0.599,1.885-1.747
		c-0.334-0.021-0.626-0.041-0.927-0.061c1.007-0.369,2.015-0.686,2.978-1.104c0.892-0.389,1.572-1.05,1.933-1.98
		c0.546-1.408,0.186-2.6-0.925-3.565c0.974-2.011,0.482-2.657-2.707-3.706c0.676,0,1.352,0,2.026,0
		c0.572-2.54-2.541-5.746-5.548-5.798c-0.416,0.716-0.815,1.403-1.216,2.09c-0.083-0.03-0.165-0.06-0.248-0.09
		c0.591-1.29,1.118-2.58,0.352-3.957c-0.765-1.372-1.982-1.809-3.49-1.777c0.275-0.085,0.55-0.17,0.858-0.265
		c-0.599-1.827-1.87-2.934-3.58-3.558c-1.803-0.658-3.347-0.07-4.795,1.105c0.094-0.146,0.187-0.291,0.281-0.437
		C30.621,15.006,30.594,15.034,30.594,15.034z"/>
	<path display="inline" fill-rule="evenodd" clip-rule="evenodd" fill="#414042" d="M32.917,28.971
		c0.268-1.505,0.536-3.009,0.804-4.514c0.027-0.003,0.054-0.006,0.08-0.01c0.271,1.685,0.543,3.37,0.814,5.056
		c0.078,0,0.154,0,0.232-0.001c0.498-2.357,0.997-4.715,1.495-7.073c0.058,0.006,0.114,0.012,0.173,0.019
		c-0.032,0.455-0.1,0.911-0.09,1.365c0.022,1.046,0.062,2.092,0.129,3.136c0.061,0.945,0.177,1.004,1.079,0.684
		c0.134-0.048,0.271-0.09,0.405-0.135c0.039,0.085,0.077,0.17,0.115,0.256c-0.521,0.238-1.031,0.619-1.563,0.65
		c-0.251,0.014-0.54-0.646-0.748-0.916c-0.271,1.026-0.585,2.208-0.897,3.39c-0.1,0-0.198-0.002-0.298-0.003
		c-0.728-0.826-0.503-1.983-0.892-3.024c-0.163,0.478-0.272,0.892-0.445,1.278c-0.318,0.717-0.781,0.758-1.234,0.124
		c-0.162-0.228-0.301-0.473-0.432-0.721c-0.127-0.241-0.228-0.495-0.404-0.888c-0.05,0.516-0.057,0.884-0.126,1.241
		c-0.089,0.458-0.394,0.569-0.691,0.215c-0.444-0.527-0.814-1.116-1.215-1.678c0.064-0.051,0.129-0.103,0.194-0.154
		c0.355,0.375,0.71,0.75,1.225,1.294c0-1.3,0-2.403,0-3.505c0.035,0.004,0.068,0.009,0.104,0.014
		c0.578,1.325,1.156,2.65,1.733,3.976C32.615,29.022,32.766,28.996,32.917,28.971z"/>
	<path display="inline" fill-rule="evenodd" clip-rule="evenodd" fill="#414042" d="M21.28,42.007
		c0.15-0.547,0.284-1.031,0.417-1.516c0.067,0.006,0.134,0.01,0.202,0.016c0.029,1.049,0.269,1.982,1.412,2.418
		c-0.067,0.084-0.134,0.168-0.202,0.252c-0.505-0.228-1.011-0.454-1.616-0.726c-2.487,0.729-4.655-0.436-5.067-2.896
		c-0.083-0.498,0.013-1.08,0.204-1.551c0.215-0.529,0.255-0.835-0.188-1.309c-0.839-0.897-0.895-2.025-0.466-3.151
		c0.383-1.007,1.243-1.396,2.25-1.594c-0.942,0.563-1.632,1.305-1.751,2.417c-0.113,1.063,0.157,2.022,1.017,2.786
		c-0.713,1.44-0.584,2.78,0.594,3.913C18.992,41.937,20.034,42.454,21.28,42.007z"/>
	<path display="inline" fill-rule="evenodd" clip-rule="evenodd" fill="#414042" d="M41.089,34.848
		c0.382,0.689,0.838,1.219,0.971,1.819c0.263,1.197-0.317,2.08-1.527,2.572c-0.476,0.192-0.866,0.382-1.133,0.893
		c-0.177,0.339-0.661,0.518-1.093,0.684c0.985-0.902,1.007-2.031,0.831-3.217c0.068-0.012,0.138-0.024,0.207-0.037
		c0.182,0.445,0.364,0.893,0.547,1.338c0.981-0.343,1.448-1.016,1.436-2.113c-0.011-0.917-0.28-1.282-1.147-1.555
		c1.89-2.647,1.082-4.327-2.62-5.449c0.99-0.438,2.566,0.027,3.463,1.02C42.226,32.135,42.223,32.944,41.089,34.848z"/>
	<path display="inline" fill-rule="evenodd" clip-rule="evenodd" fill="#414042" d="M47.645,22.657
		c1.04,0.269,1.943,0.763,2.65-0.144c0.633-0.812,0.5-1.664,0.047-2.304c0.28-0.279,0.612-0.459,0.696-0.719
		c0.216-0.668,0.267-1.388-0.292-1.933c-0.641-0.624-1.407-0.972-2.379-0.786c-0.035,0.614,0.246,1.33-0.773,1.717
		c0.63-0.783,0.367-1.298-0.159-1.741c-0.526-0.442-1.151-0.671-1.759-0.28c-0.958,0.617-0.901,1.548-0.48,2.594
		c-0.753-0.66-0.887-1.721-0.403-2.465c0.494-0.762,1.579-1.076,2.442-0.591c0.512,0.288,0.934,0.381,1.533,0.28
		c1.077-0.181,2.02,0.26,2.665,1.15c0.655,0.901,0.282,1.789-0.151,2.661c-0.109,0.22-0.214,0.515-0.158,0.733
		c0.266,1.042-0.011,2.062-0.741,2.511C49.659,23.786,48.67,23.583,47.645,22.657z"/>
	<path display="inline" fill-rule="evenodd" clip-rule="evenodd" fill="#414042" d="M13.644,20.484
		c0.549-0.902,0.318-1.958-0.517-2.366c-0.973-0.474-1.915,0.055-2.462,1.409c0.159,0.051,0.316,0.102,0.356,0.115
		c-0.521,0.392-1.22,0.72-1.611,1.268c-0.379,0.532,0.312,1.572,0.907,1.586c0.514,1.581,1.236,1.935,2.745,1.34
		c-0.105,0.474-0.424,0.793-0.937,0.848c-0.751,0.081-1.419-0.088-1.883-0.758c-0.266-0.386-0.514-0.796-0.838-1.13
		c-0.884-0.908-0.888-2.634,0.447-3.046c0.187-0.058,0.307-0.367,0.435-0.575c0.266-0.431,0.458-0.921,0.784-1.297
		c0.672-0.778,1.445-0.884,2.254-0.407c0.843,0.497,1.408,1.711,1.089,2.485c-0.109,0.266-0.42,0.45-0.639,0.672
		C13.73,20.579,13.687,20.532,13.644,20.484z"/>
	<path display="inline" fill-rule="evenodd" clip-rule="evenodd" fill="#414042" d="M32.004,40.79
		c-0.863-0.691-0.891-1.352-0.537-2.09c0.193,0.523,0.251,1.145,0.592,1.469c0.326,0.308,0.946,0.307,1.473,0.45
		c-0.127,0.083-0.32,0.316-0.474,0.293c-0.688-0.108-1.002,0.354-1.419,0.753c-0.839,0.804-2.188,0.585-3.008-0.439
		c-0.22-0.276-0.397-0.586-0.588-0.873c-2.185,0.337-3.443-0.145-3.872-1.469c-0.322-0.996,0.173-2.05,1.432-2.759
		c-0.586,1.08-1.376,2.017-0.444,3.117c0.757,0.894,1.582,1.043,3.046,0.48c0.514,1,1.246,1.837,2.469,1.823
		C31.074,41.542,31.471,41.107,32.004,40.79z"/>
	<path display="inline" fill-rule="evenodd" clip-rule="evenodd" fill="#414042" d="M33.596,43.032
		c0.115-0.693,0.219-1.322,0.322-1.953c0.025,0.008,0.049,0.016,0.072,0.021c0,1.618,0,3.236,0,4.854
		c-0.062,0.01-0.127,0.019-0.189,0.027c-0.271-1.033-0.542-2.066-0.861-3.287c-0.325,0.683-0.576,1.211-0.828,1.74
		c-0.069-0.031-0.139-0.062-0.209-0.093c0.293-0.831,0.586-1.662,0.878-2.493c0.093,0.004,0.184,0.009,0.276,0.014
		C33.227,42.231,33.396,42.6,33.596,43.032z"/>
	<path display="inline" fill-rule="evenodd" clip-rule="evenodd" fill="#414042" d="M26.413,32.053
		c-0.732-0.398-0.949-0.998-0.742-1.736c0.247-0.878,0.871-1.243,2.04-1.227c0.22-0.586,0.496-1.132,1.236-0.999
		c-0.325,0.5-0.659,1.016-0.926,1.426c-0.504,0.133-1.134,0.12-1.477,0.428C25.908,30.516,25.982,31.3,26.413,32.053z"/>
	<path display="inline" fill-rule="evenodd" clip-rule="evenodd" fill="#414042" d="M13.128,20.44c0.441,1.241,1.205,1.97,2.51,2.2
		C14.252,23.188,12.941,22.033,13.128,20.44z"/>
	<path display="inline" fill-rule="evenodd" clip-rule="evenodd" fill="#414042" d="M44.308,21.414
		c0.678-0.644,1.319-1.253,1.94-1.842C46.27,20.544,45.489,21.33,44.308,21.414z"/>
	<path display="inline" fill-rule="evenodd" clip-rule="evenodd" fill="#414042" d="M14.682,23.812
		c-0.778-0.19-1.555-0.38-2.359-0.576C12.932,22.789,13.775,22.97,14.682,23.812z"/>
</g>
<g id="maximize_your_budget" display="none">
	<g display="inline">
		<path fill="#414042" d="M26.005,27.129c6.834,0,12.403-2.04,12.662-4.592c0.008-0.062,0.011-0.125,0.011-0.187l0.009-0.007v-3.246
			c0-2.703-5.676-4.896-12.682-4.896c-7.001,0-12.682,2.193-12.682,4.896v3.257l0.009-0.004
			C13.333,24.988,19.01,27.129,26.005,27.129z M19.767,25.819c-0.613-0.131-1.194-0.278-1.738-0.445V22.86
			c0.542,0.175,1.124,0.331,1.738,0.468V25.819z M23.243,26.321c-0.597-0.049-1.176-0.114-1.738-0.196v-2.477
			c0.562,0.083,1.14,0.152,1.738,0.202V26.321z M26.719,26.43c-0.237,0.005-0.475,0.007-0.714,0.007
			c-0.345,0-0.686-0.006-1.024-0.018v-2.465c0.336,0.011,0.676,0.019,1.02,0.019c0.242,0,0.481-0.006,0.719-0.01V26.43z
			 M37.148,23.825c-0.301,0.282-0.815,0.63-1.308,0.856v-2.566c0.5-0.249,0.941-0.516,1.308-0.8V23.825z M26.005,15.163
			c6.049,0,10.949,1.717,10.949,3.831c0,2.117-4.9,3.833-10.949,3.833c-6.042,0-10.95-1.716-10.95-3.833
			C15.055,16.88,19.962,15.163,26.005,15.163z M14.552,21.063c0.445,0.403,1.034,0.778,1.738,1.115v2.555
			c-0.686-0.305-1.494-0.821-1.738-1.134V21.063z"/>
		<path fill="#414042" d="M21.555,21.074c0.674,0.47,2.125,0.738,3.643,0.809v0.446c0,0.077,0.146,0.14,0.324,0.14h1.11
			c0.175,0,0.321-0.062,0.321-0.14v-0.455c0.951-0.056,1.814-0.197,2.397-0.422c1.027-0.398,1.457-1.008,1.018-1.572
			c-0.459-0.59-2.047-0.887-3.416-1.135v-1.946c0.16,0.016,0.311,0.036,0.456,0.057c0.424,0.064,1,0.245,1.33,0.37
			c0.054,0.022,0.103,0.042,0.155,0.065c0.029,0.013,0.045,0.019,0.053,0.023c-0.001,0,0,0.001,0.012,0.007
			c0.03,0.016,0.06,0.034,0.086,0.052c0.474,0.331,1.828-0.173,1.411-0.465c-0.49-0.342-1.665-0.642-2.566-0.75
			c-0.301-0.036-0.615-0.062-0.936-0.078v-0.426c0-0.078-0.146-0.141-0.321-0.141h-1.11c-0.178,0-0.324,0.063-0.324,0.141V16.1
			c-0.966,0.067-1.881,0.236-2.549,0.517c-1.028,0.431-1.328,1.082-0.731,1.612c0.269,0.238,0.71,0.458,1.268,0.586
			c0.253,0.058,1.108,0.233,2.013,0.416v1.94c-0.218-0.023-0.428-0.05-0.616-0.08c-0.424-0.062-0.981-0.21-1.311-0.336
			c-0.054-0.019-0.105-0.04-0.154-0.064c-0.032-0.014-0.048-0.021-0.057-0.023c0.003,0,0.004,0-0.009-0.006
			c-0.03-0.017-0.059-0.035-0.084-0.052C22.491,20.28,21.138,20.784,21.555,21.074z M26.952,19.586
			c0.423,0.083,0.729,0.146,0.807,0.162c0.451,0.094,0.649,0.223,0.882,0.407c0.378,0.3,0.187,0.687-0.369,0.884
			c-0.354,0.125-0.82,0.186-1.32,0.204V19.586z M24.861,18.34c-0.572-0.116-1.001-0.198-1.325-0.428
			c-0.396-0.283-0.297-0.688,0.227-0.891c0.391-0.15,0.897-0.232,1.435-0.265v1.649C24.999,18.366,24.864,18.341,24.861,18.34z"/>
		<path fill="#414042" d="M12.76,27.427l0.009-0.004c0,1.23,1.244,2.348,3.268,3.194l1.132-1.153
			c0.095-0.099,0.194-0.191,0.296-0.279v-1.25c0.502,0.161,1.043,0.305,1.607,0.434c0.293-0.07,0.595-0.11,0.904-0.11
			c0.722,0,1.424,0.21,2.036,0.587c0.225,0.026,0.439,0.059,0.667,0.079v0.423l1.737,1.479v-1.799
			c0.337,0.01,0.677,0.017,1.022,0.017c0.241,0,0.48-0.003,0.717-0.008v2.466c-0.236,0.004-0.474,0.007-0.715,0.007
			c-0.076,0-0.149-0.003-0.225-0.004l0.804,0.684c6.565-0.111,11.833-2.102,12.084-4.58c0.008-0.062,0.01-0.125,0.01-0.188
			l0.01-0.006v-2.315c-2.409,1.967-7.335,2.986-12.118,2.986c-5.658,0-11.619-1.475-13.215-4.239
			c-0.021,0.116-0.036,0.232-0.036,0.35c0,0.028,0.004,0.057,0.006,0.085V27.427z M35.276,27.589
			c0.34-0.142,1.021-0.375,1.309-0.586v1.895c-0.298,0.282-0.814,0.629-1.309,0.856V27.589z M13.989,26.136
			c0.445,0.404,1.034,0.778,1.738,1.116v2.554c-0.686-0.304-1.495-0.82-1.738-1.134V26.136z"/>
		<path fill="#414042" d="M31.229,45.107v-0.5c-0.005-0.044-0.007-0.085-0.007-0.125c0-0.167,0.018-0.335,0.053-0.533
			c0.062-0.334,0.287-0.604,0.586-0.74c-0.025-0.132-0.046-0.264-0.054-0.398c-0.01-0.057-0.017-0.114-0.017-0.174v-3.134
			c-0.002-0.031-0.003-0.065-0.003-0.094c0-0.119,0.009-0.239,0.023-0.359l-10.268-8.744c-0.98-0.836-2.42-0.762-3.313,0.173
			L0.706,48.341c-0.952,0.993-0.94,2.592,0.027,3.569c0.966,0.979,2.52,0.968,3.472-0.026L20.146,35.67L31.229,45.107z"/>
		<path fill="#414042" d="M63.409,15.139c-0.459-0.453-1.102-0.653-1.729-0.533l-13.388,2.514c-1.082,0.203-1.8,1.269-1.6,2.377
			c0.195,1.113,1.23,1.848,2.312,1.646l5.869-1.103l0.306,0.25L43.229,33.548c0.747-0.052,1.502-0.087,2.265-0.087
			c1.457,0,2.884,0.104,4.248,0.287l9.294-10.306l0.101,0.082l-0.869,6.696c-0.146,1.119,0.62,2.146,1.708,2.299
			c1.088,0.146,2.089-0.637,2.233-1.759l1.801-13.874C64.094,16.238,63.872,15.592,63.409,15.139z"/>
		<path fill="#414042" d="M15.324,31.343c-0.773-0.348-1.455-0.74-2-1.185V32.5l0.009-0.004c0,0.245,0.065,0.483,0.159,0.717
			l1.06-1.081l-0.003-0.479c0.068,0.062,0.161,0.131,0.272,0.204L15.324,31.343z"/>
		<path fill="#414042" d="M38.667,32.683c0.008-0.062,0.011-0.124,0.011-0.187l0.009-0.006v-3.246c0-0.106-0.011-0.212-0.029-0.316
			c-1.436,2.512-6.399,3.935-11.554,4.188l4.337,3.691C35.575,36.065,38.482,34.507,38.667,32.683z M37.148,33.971
			c-0.301,0.281-0.815,0.631-1.308,0.857V32.26c0.409-0.137,0.941-0.44,1.308-0.725V33.971z"/>
		<path fill="#414042" d="M16.909,41.074c2.255,0.777,5.243,1.255,8.532,1.255c0.086,0,0.17-0.004,0.256-0.006l-0.817-0.696
			c-0.154-0.002-0.311-0.002-0.463-0.007v-0.386l-1.737-1.48v1.769c-0.597-0.051-1.177-0.115-1.739-0.194v-2.48
			c0.252,0.038,0.522,0.061,0.782,0.092l-1.46-1.243c-0.007-0.001-0.014-0.003-0.021-0.004l-1.039,1.055v2.271
			c-0.613-0.129-1.194-0.279-1.738-0.442v-0.063L16.909,41.074z"/>
		<path fill="#414042" d="M13.943,44.086c1.64,1.924,6.421,3.314,12.062,3.314c1.842,0,3.585-0.151,5.162-0.417l-4.374-3.726
			c-0.451,0.02-0.902,0.03-1.353,0.03c-3.294,0-6.688-0.501-9.268-1.466l-0.567,0.576c0.203,0.091,0.426,0.182,0.685,0.275v2.332
			c-0.686-0.305-1.494-0.82-1.738-1.133V43.47L13.943,44.086z M24.981,44.227c0.336,0.011,0.676,0.018,1.02,0.018
			c0.242,0,0.481-0.003,0.719-0.009v2.466c-0.237,0.007-0.475,0.01-0.714,0.01c-0.345,0-0.686-0.008-1.024-0.019V44.227z
			 M21.505,43.923c0.562,0.081,1.14,0.151,1.738,0.202v2.471c-0.597-0.051-1.176-0.115-1.738-0.197V43.923z M18.028,43.135
			c0.542,0.173,1.124,0.329,1.738,0.466v2.491c-0.613-0.129-1.194-0.277-1.738-0.444V43.135z"/>
		<path fill="#414042" d="M26.005,48.357c-5.197,0-10.639-1.246-12.73-3.593l-0.515,0.524v2.41l0.009-0.005
			c0,2.638,5.678,4.78,12.671,4.78c2.36,0,4.564-0.249,6.454-0.671v-1.361c0-0.254,0.107-0.489,0.286-0.658
			c-0.487-0.562-0.779-1.187-0.828-1.87C29.643,48.203,27.818,48.357,26.005,48.357z M15.727,50.079
			c-0.686-0.307-1.495-0.82-1.738-1.136v-2.534c0.445,0.403,1.034,0.776,1.738,1.114V50.079z M19.203,51.164
			c-0.613-0.13-1.194-0.278-1.738-0.445v-2.516c0.542,0.178,1.125,0.333,1.738,0.469V51.164z M22.679,51.668
			c-0.597-0.052-1.177-0.117-1.739-0.197v-2.479c0.561,0.085,1.142,0.151,1.739,0.204V51.668z M26.155,51.774
			c-0.236,0.004-0.474,0.008-0.715,0.008c-0.344,0-0.685-0.008-1.024-0.018v-2.467c0.337,0.011,0.677,0.018,1.022,0.018
			c0.241,0,0.48-0.004,0.717-0.007V51.774z"/>
		<path fill="#414042" d="M44.93,53.444c-4.744,0-9.699-1.039-12.118-3.002v2.34l0.009-0.003c0,2.638,5.679,4.777,12.673,4.777
			c6.834,0,12.403-2.038,12.664-4.591c0.005-0.062,0.008-0.125,0.008-0.187l0.01-0.007v-3.246c0-0.105-0.012-0.212-0.03-0.315
			C56.558,51.992,50.64,53.444,44.93,53.444z M35.779,55.161c-0.687-0.304-1.494-0.819-1.739-1.135l-0.003-2.089
			c0.258,0.233,0.822,0.563,1.742,0.892V55.161z M39.256,56.247c-0.615-0.129-1.195-0.278-1.738-0.443V53.29
			c0.541,0.173,1.122,0.331,1.738,0.467V56.247z M42.73,56.751c-0.596-0.05-1.177-0.115-1.738-0.196v-2.479
			c0.562,0.084,1.142,0.153,1.738,0.204V56.751z M46.207,56.857c-0.235,0.006-0.475,0.007-0.714,0.007
			c-0.345,0-0.685-0.005-1.023-0.017v-2.466c0.337,0.012,0.677,0.019,1.02,0.019c0.24,0,0.48-0.005,0.718-0.009V56.857z
			 M56.637,54.254c-0.299,0.281-0.814,0.631-1.309,0.855v-2.565c0.41-0.139,0.942-0.441,1.309-0.725V54.254z"/>
		<path fill="#414042" d="M32.257,47.706c0,2.641,5.678,4.778,12.673,4.778c6.833,0,12.404-2.04,12.663-4.591
			c0.006-0.064,0.01-0.123,0.01-0.188l0.01-0.005v-2.314c-2.408,1.966-7.337,2.984-12.119,2.984c-5.658,0-11.617-1.475-13.215-4.239
			c-0.021,0.115-0.035,0.232-0.035,0.351c0,0.028,0.004,0.057,0.005,0.086v3.143L32.257,47.706z M54.764,47.873
			c0.341-0.141,1.021-0.377,1.31-0.587v1.895c-0.3,0.282-0.815,0.631-1.31,0.856V47.873z M43.906,49.309
			c0.337,0.013,0.675,0.019,1.019,0.019c0.242,0,0.481-0.004,0.72-0.006v2.464c-0.236,0.005-0.474,0.008-0.715,0.008
			c-0.345,0-0.687-0.006-1.023-0.016V49.309z M40.429,49.005c0.562,0.082,1.141,0.151,1.74,0.203v2.471
			c-0.599-0.05-1.178-0.115-1.74-0.195V49.005z M36.952,48.218c0.542,0.173,1.125,0.327,1.738,0.465v2.493
			c-0.612-0.131-1.193-0.28-1.738-0.444V48.218z M33.476,46.419c0.448,0.404,1.035,0.777,1.739,1.115v2.557
			c-0.686-0.307-1.494-0.823-1.739-1.137V46.419z"/>
		<path fill="#414042" d="M32.278,54.258c-0.021,0.117-0.035,0.234-0.035,0.352c0,0.028,0.004,0.058,0.005,0.086v3.143l0.009-0.004
			c0,2.638,5.678,4.777,12.673,4.777c6.833,0,12.404-2.039,12.663-4.591c0.006-0.062,0.01-0.125,0.01-0.187l0.01-0.006v-2.315
			c-2.408,1.967-7.337,2.985-12.119,2.985C39.835,58.498,33.876,57.022,32.278,54.258z M35.215,60.217
			c-0.686-0.305-1.494-0.82-1.739-1.135v-2.534c0.448,0.402,1.035,0.776,1.739,1.113V60.217z M38.69,61.301
			c-0.612-0.127-1.193-0.277-1.738-0.442v-2.514c0.542,0.175,1.125,0.33,1.738,0.467V61.301z M42.169,61.806
			c-0.599-0.05-1.178-0.115-1.74-0.195v-2.479c0.562,0.082,1.141,0.152,1.74,0.202V61.806z M54.764,58
			c0.341-0.139,1.021-0.374,1.31-0.585v1.894c-0.3,0.281-0.815,0.63-1.31,0.857V58z M45.645,61.914
			c-0.236,0.004-0.474,0.007-0.715,0.007c-0.345,0-0.687-0.007-1.023-0.019v-2.464c0.337,0.01,0.675,0.018,1.019,0.018
			c0.242,0,0.481-0.006,0.72-0.01V61.914z"/>
		<path fill="#414042" d="M45.493,34.485c-7.001,0-12.682,2.193-12.682,4.896v3.255l0.009-0.003c0,2.637,5.679,4.777,12.673,4.777
			c6.834,0,12.403-2.039,12.664-4.591c0.005-0.062,0.008-0.126,0.008-0.187l0.01-0.006v-3.246
			C58.175,36.679,52.497,34.485,45.493,34.485z M45.493,35.373c6.048,0,10.951,1.75,10.951,3.902c0,2.158-4.903,3.907-10.951,3.907
			c-6.044,0-10.949-1.749-10.949-3.907C34.544,37.123,39.449,35.373,45.493,35.373z M35.779,45.017
			c-0.687-0.304-1.494-0.82-1.739-1.135v-2.534c0.445,0.403,1.034,0.778,1.739,1.115V45.017z M39.256,46.103
			c-0.615-0.131-1.195-0.278-1.738-0.445v-2.514c0.541,0.175,1.122,0.33,1.738,0.468V46.103z M42.73,46.604
			c-0.596-0.05-1.177-0.114-1.738-0.195v-2.478c0.562,0.084,1.142,0.152,1.738,0.202V46.604z M46.207,46.713
			c-0.235,0.005-0.475,0.008-0.714,0.008c-0.345,0-0.685-0.008-1.023-0.02v-2.464c0.337,0.01,0.677,0.019,1.02,0.019
			c0.24,0,0.48-0.007,0.718-0.009V46.713z M56.637,44.11c-0.299,0.28-0.814,0.627-1.309,0.854v-2.566
			c0.502-0.249,0.942-0.516,1.309-0.801V44.11z"/>
		<path fill="#414042" d="M41.042,41.357c0.676,0.47,2.125,0.738,3.644,0.809v0.445c0,0.077,0.146,0.141,0.323,0.141h1.111
			c0.175,0,0.321-0.063,0.321-0.141v-0.456c0.948-0.056,1.812-0.195,2.396-0.421c1.028-0.397,1.457-1.007,1.019-1.571
			c-0.458-0.591-2.048-0.888-3.414-1.135v-1.945c0.157,0.017,0.311,0.035,0.455,0.056c0.424,0.064,0.998,0.245,1.328,0.369
			c0.056,0.022,0.104,0.043,0.156,0.066c0.029,0.014,0.044,0.02,0.055,0.023c-0.004-0.001-0.001,0,0.01,0.006
			c0.03,0.017,0.06,0.033,0.087,0.053c0.474,0.33,1.827-0.174,1.41-0.465c-0.49-0.342-1.665-0.643-2.566-0.749
			c-0.3-0.036-0.615-0.062-0.935-0.079v-0.428c0-0.076-0.146-0.14-0.321-0.14h-1.111c-0.178,0-0.323,0.063-0.323,0.14v0.447
			c-0.967,0.068-1.881,0.237-2.549,0.518c-1.027,0.43-1.328,1.08-0.73,1.611c0.269,0.239,0.71,0.459,1.267,0.587
			c0.254,0.059,1.109,0.233,2.013,0.416v1.939c-0.217-0.023-0.427-0.049-0.616-0.078c-0.424-0.062-0.979-0.212-1.309-0.337
			c-0.056-0.021-0.106-0.04-0.155-0.064c-0.128-0.054-0.021-0.008-0.063-0.029c-0.033-0.019-0.062-0.035-0.086-0.051
			C41.979,40.562,40.625,41.066,41.042,41.357z M46.441,39.868c0.422,0.086,0.729,0.146,0.807,0.162
			c0.451,0.095,0.649,0.225,0.881,0.407c0.379,0.3,0.188,0.689-0.368,0.886c-0.356,0.126-0.82,0.187-1.319,0.204V39.868z
			 M44.35,38.624c-0.573-0.116-1.003-0.199-1.325-0.429c-0.396-0.282-0.296-0.689,0.228-0.891c0.392-0.15,0.896-0.234,1.434-0.266
			v1.65C44.486,38.649,44.353,38.624,44.35,38.624z"/>
	</g>
</g>
<g id="rech_new_customers" display="none">
	<path display="inline" fill-rule="evenodd" clip-rule="evenodd" fill="#414042" d="M12.294,40.666
		c-0.048-1.806-1.218-3.324-3.23-3.324c-2.115,0-3.179,1.508-3.23,3.309C5.834,47.651,12.319,47.552,12.294,40.666L12.294,40.666z
		 M1.562,54.203v-0.696c-0.003-1.745,0.095-3.676,0.856-5.136c0.692-1.326,2.033-2.543,3.59-2.543h0.58
		c1.414,1.354,3.538,1.355,4.951,0h0.581c0.765,0,1.479,0.295,2.088,0.75c-0.543,1.143-0.807,2.441-0.933,3.749L1.562,54.203
		L1.562,54.203z M27.39,37.205c-0.06-2.237-1.547-4.119-4.04-4.119c-2.62,0-3.976,1.87-4.039,4.1
		C19.312,45.859,27.422,45.734,27.39,37.205L27.39,37.205z M14.204,50.021c0.141-1.173,0.41-2.306,0.914-3.271
		c0.857-1.643,2.518-3.149,4.447-3.149h0.719c1.751,1.679,4.382,1.679,6.134,0h0.719c0.869,0,1.682,0.305,2.393,0.791
		c-0.085,0.144-0.168,0.29-0.244,0.437c-1.225,2.35-1.362,5.326-1.362,7.937v2.184l-0.098,0.037l-6.247-5.321l-1.762-1.5
		L14.204,50.021L14.204,50.021z M44.615,34.158c-0.069-2.618-1.836-4.818-4.752-4.818c-3.065,0-4.679,2.187-4.751,4.795
		C35.113,44.28,44.653,44.136,44.615,34.158L44.615,34.158z M28.991,54.542v-1.777c-0.004-2.526,0.139-5.325,1.241-7.442
		c1.003-1.92,2.945-3.684,5.203-3.684h0.84c2.048,1.963,5.127,1.964,7.175,0h0.843c2.252,0,4.193,1.758,5.195,3.674
		c0.205,0.391,0.377,0.807,0.521,1.238L28.991,54.542L28.991,54.542z M50.116,42.791l1.765,4.574l-24.338,9.253l-6.888-5.868
		l-1.151-0.981l-1.418,0.47L1.759,55.64l1.671,5.075l14.908-4.934l6.951,5.921l1.213,1.033l1.47-0.562l25.83-9.825l1.663,4.316
		l7.974-11.324L50.116,42.791L50.116,42.791z"/>
</g>
<g id="Layer_12" display="none">
	<polygon display="inline" fill="#FFFFFF" points="25.534,21.684 43.264,3.534 58.125,2.947 40.911,19.248 51.246,19.248 
		31.92,34.876 41.415,34.876 15.518,49.104 25.282,37.565 19.652,37.312 35.071,22.02 	"/>
	<g display="inline">
		<g>
			<g>
				<g>
					<rect x="38.821" y="53.169" fill="#FFFFFF" width="6.767" height="5.316"/>
					<rect x="18.874" y="53.169" fill="#FFFFFF" width="6.762" height="5.316"/>
					<rect x="5.098" y="37.948" fill="#FFFFFF" width="5.32" height="6.764"/>
					<rect x="28.852" y="53.169" fill="#FFFFFF" width="6.758" height="5.316"/>
					<rect x="5.098" y="18" fill="#FFFFFF" width="5.32" height="6.765"/>
					<path fill="#FFFFFF" d="M15.661,53.169h-5.243v-5.242h-5.32v7.904c0,1.465,1.19,2.654,2.658,2.654h7.905V53.169z"/>
					<rect x="5.098" y="27.97" fill="#FFFFFF" width="5.32" height="6.765"/>
					<g>
						<path fill="#FFFFFF" d="M62.656,55.155l-6.686-6.693c-0.426-0.416-0.802-0.496-1.021-0.27
							c-0.147,0.145-0.227,0.41-0.227,0.793v4.184H48.8v5.316h5.924l0.002,4.189c-0.002,0.977,0.554,1.201,1.245,0.51l6.682-6.674
							C63.336,55.823,63.344,55.841,62.656,55.155z"/>
						<path fill="#FFFFFF" d="M8.443,0.935C7.752,0.248,7.772,0.239,7.085,0.925L0.394,7.618C-0.026,8.037-0.1,8.411,0.124,8.64
							c0.143,0.139,0.409,0.225,0.787,0.225l4.188-0.004v5.921h5.32V8.861h4.188c0.978,0.004,1.2-0.556,0.513-1.247L8.443,0.935z"/>
					</g>
				</g>
			</g>
		</g>
	</g>
</g>
<g id="Layer_9" display="none">
	<g id="homework_copy_14_1_" display="inline" enable-background="new    ">
		<g>
			<defs>
				<path id="SVGID_1_" d="M34.32,32.074l18.991-14.322l-23.205-2.377L11.09,28.41L34.32,32.074z M34.783,33.902l-14.354-2.514
					l1.457,5.773l14.257,2.135l11.774-8.708l-1.691-5.711L34.783,33.902z M19.603,42.575L16.63,30.801l-1.169-0.503l3.161,12.526
					L19.603,42.575z M18.658,43.765l-0.645,1.606l0.12,0.47l3.43-0.862l-0.119-0.473l-1.329-1.107L18.658,43.765z"/>
			</defs>
			<use xlink:href="#SVGID_1_"  overflow="visible" fill="#FFFFFF"/>
			<clipPath id="SVGID_2_">
				<use xlink:href="#SVGID_1_"  overflow="visible"/>
			</clipPath>
			<path clip-path="url(#SVGID_2_)" fill="#FFFFFF" d="M16.498,51.726c14.075-3.553,28.134-7.105,42.189-10.652
				c-2.965-11.729-5.924-23.445-8.875-35.15C35.73,9.478,21.668,13.03,7.624,16.577C10.586,28.306,13.544,40.022,16.498,51.726z"/>
		</g>
	</g>
	<path display="inline" fill="#FFFFFF" d="M75.483,40.852c0,0-0.496-3.5-2.031-5.042c-1.939-2.024-4.114-2.03-5.106-2.151
		c-7.145-0.514-17.855-0.514-17.855-0.514h-0.02c0,0-0.594,0-1.541,0.008l0.02,0.084L36.92,42.125l-11.38-1.606
		c-0.039,0.192-0.065,0.333-0.065,0.333s-0.508,4.111-0.508,8.226v3.85c0,4.111,0.508,8.223,0.508,8.223s0.498,3.5,2.026,5.041
		c1.943,2.025,4.494,1.963,5.631,2.175c4.081,0.389,17.346,0.51,17.346,0.51s10.724-0.02,17.868-0.532
		c0.992-0.117,3.167-0.127,5.106-2.152c1.535-1.541,2.031-5.041,2.031-5.041S76,57.038,76,52.927v-3.85
		C76,44.963,75.483,40.852,75.483,40.852z M44.835,61.854V42.125l17.084,9.864L44.835,61.854z"/>
</g>
<g id="Layer_10" display="none">
	<g id="homework_copy_14_2_" display="inline" enable-background="new    ">
		<g>
			<defs>
				<path id="SVGID_3_" d="M23.32,27.199l18.991-14.322L19.106,10.5L0.09,23.535L23.32,27.199z M23.784,29.028L9.429,26.514
					l1.457,5.773l14.256,2.135l11.775-8.708l-1.691-5.711L23.784,29.028z M8.603,37.7L5.63,25.926l-1.169-0.503l3.161,12.526
					L8.603,37.7z M7.658,38.89l-0.645,1.606l0.12,0.47l3.43-0.862l-0.119-0.473l-1.329-1.107L7.658,38.89z"/>
			</defs>
			<use xlink:href="#SVGID_3_"  overflow="visible" fill="#414042"/>
			<clipPath id="SVGID_4_">
				<use xlink:href="#SVGID_3_"  overflow="visible"/>
			</clipPath>
			<path clip-path="url(#SVGID_4_)" fill="#414042" d="M5.498,46.851c14.074-3.553,28.134-7.105,42.189-10.652
				c-2.965-11.729-5.924-23.445-8.875-35.15C24.731,4.603,10.668,8.155-3.376,11.702C-0.414,23.431,2.544,35.147,5.498,46.851z"/>
		</g>
	</g>
	<path display="inline" fill="#414042" d="M64.483,35.977c0,0-0.496-3.5-2.031-5.042c-1.939-2.024-4.114-2.031-5.106-2.152
		C50.201,28.27,39.49,28.27,39.49,28.27h-0.02c0,0-0.594,0-1.541,0.007l0.02,0.085l-12.03,8.888l-11.38-1.606
		c-0.039,0.192-0.065,0.333-0.065,0.333s-0.508,4.111-0.508,8.226v3.85c0,4.111,0.508,8.223,0.508,8.223s0.498,3.5,2.026,5.041
		c1.943,2.025,4.493,1.963,5.631,2.175C26.213,63.879,39.478,64,39.478,64s10.724-0.02,17.868-0.532
		c0.992-0.117,3.167-0.127,5.106-2.152c1.535-1.541,2.031-5.041,2.031-5.041S65,52.163,65,48.052v-3.85
		C65,40.088,64.483,35.977,64.483,35.977z M33.835,56.979V37.25l17.084,9.864L33.835,56.979z"/>
</g>
<g id="Layer_1" display="none">
	<g display="inline">
		<g>
			<g>
				<polygon fill="#414042" points="54.278,0.281 52.167,9.701 57.938,3.937 				"/>
			</g>
			<g>
				<polygon fill="#414042" points="64.215,10.213 54.794,12.328 60.557,6.558 				"/>
			</g>
			<path fill="#414042" d="M29.034,32.377l3.328-3.328c-2.219-0.975-4.907-0.558-6.726,1.257c-2.361,2.36-2.361,6.203,0,8.568
				c2.362,2.359,6.202,2.359,8.567,0c1.818-1.818,2.234-4.506,1.255-6.729l-3.327,3.333h-3.097l0,0l0,0V32.377z"/>
			<g>
				<path fill="#414042" d="M38.085,42.764c-4.506,4.508-11.823,4.508-16.334-0.008c-4.511-4.506-4.511-11.824,0.004-16.331
					c3.975-3.985,10.145-4.448,14.636-1.403l4.321-4.323c-6.894-5.367-16.901-4.89-23.233,1.451c-6.86,6.86-6.86,18.02,0,24.879
					c6.86,6.857,18.027,6.857,24.881,0c6.34-6.336,6.817-16.336,1.449-23.23l-4.337,4.333
					C42.515,32.628,42.068,38.781,38.085,42.764z"/>
			</g>
			<g>
				<path fill="#414042" d="M46.252,50.916c-9.037,9.027-23.626,9.027-32.655,0c-9.033-9.027-9.033-23.62,0-32.651
					c8.504-8.51,21.947-8.997,31.028-1.477l4.299-4.29C37.477,2.646,20.152,3.139,9.31,13.978
					C-2.057,25.343-2.057,43.836,9.313,55.201c11.362,11.359,29.858,11.359,41.221-0.006c10.839-10.842,11.324-28.165,1.479-39.604
					l-4.298,4.302C55.233,28.972,54.756,42.404,46.252,50.916z"/>
			</g>
		</g>
	</g>
</g>
<g id="Layer_3" display="none">
	<g display="inline">
		<g>
			<path fill="none" d="M54.941,28.387c-2.005,0-3.634,1.625-3.634,3.628c0,2.002,1.629,3.624,3.634,3.624
				c2.004,0,3.626-1.621,3.626-3.624C58.567,30.012,56.945,28.387,54.941,28.387z"/>
			<path fill="none" d="M38.576,28.85H13.57c-4.37,0-7.915,4.02-7.915,8.977v11.968c0,4.952,3.545,8.972,7.915,8.972h25.006
				c4.369,0,7.913-4.02,7.913-8.972V37.827C46.489,32.87,42.945,28.85,38.576,28.85z"/>
			<path fill="#414042" d="M51.644,22.12h-1.322H0.5v41.881h49.821h1.322h10.305V22.12H51.644z M46.489,49.795
				c0,4.952-3.544,8.972-7.913,8.972H13.57c-4.37,0-7.915-4.02-7.915-8.972V37.827c0-4.958,3.545-8.977,7.915-8.977h25.006
				c4.369,0,7.913,4.02,7.913,8.977V49.795z M54.722,43.06c-1.181,0-2.137-0.954-2.137-2.134c0-1.181,0.956-2.136,2.137-2.136
				c1.177,0,2.138,0.955,2.138,2.136C56.859,42.105,55.898,43.06,54.722,43.06z M54.941,35.639c-2.005,0-3.634-1.621-3.634-3.624
				c0-2.003,1.629-3.628,3.634-3.628c2.004,0,3.626,1.625,3.626,3.628C58.567,34.018,56.945,35.639,54.941,35.639z"/>
		</g>
		<polygon fill="#414042" points="25.167,22.59 21.531,24.858 10.272,6.807 13.901,4.541 		"/>
		<polygon fill="#414042" points="21.867,26.833 19.599,23.202 45.829,6.83 48.092,10.459 		"/>
	</g>
</g>
<g id="Layer_4" display="none">
	<g display="inline">
		<g>
			<polygon fill="#414042" points="35.572,4.322 34.715,17.612 43.35,15.926 45.339,2.411 			"/>
			<polygon fill="#414042" points="50.798,1.342 49.934,14.636 59.71,12.717 57.235,0.081 			"/>
			<polygon fill="#414042" points="20.79,7.21 19.929,20.505 28.118,18.9 30.111,5.389 			"/>
			<polygon fill="#414042" points="0.508,11.181 2.978,23.815 12.837,23.815 15.337,8.28 			"/>
		</g>
		<g>
			<path fill="#414042" d="M2.702,26.65v37.349h57.811V26.65H2.702z M31.608,59.012c-7.56,0-13.693-6.129-13.693-13.685
				c0-7.561,6.133-13.689,13.693-13.689c7.558,0,13.689,6.129,13.689,13.689C45.298,52.883,39.166,59.012,31.608,59.012z"/>
		</g>
		<polygon fill="#414042" points="26.201,38.057 26.201,52.598 40.027,45.327 		"/>
	</g>
</g>
<g id="Layer_5" display="none">
	<g display="inline">
		<g>
			<path fill="#414042" d="M28.925,27.674V46.82c0,0.499,0.472,0.899,1.051,0.899h6.172c0.582,0,1.052-0.4,1.052-0.899V27.674
				c0-0.495-0.47-0.9-1.052-0.9h-6.172C29.397,26.774,28.925,27.179,28.925,27.674z"/>
			<path fill="#414042" d="M40.893,20.734V46.82c0,0.499,0.475,0.899,1.056,0.899h6.171c0.576,0,1.051-0.4,1.051-0.899V20.734
				c0-0.493-0.475-0.899-1.051-0.899h-6.171C41.367,19.834,40.893,20.241,40.893,20.734z"/>
			<path fill="#414042" d="M16.954,34.617V46.82c0,0.499,0.468,0.899,1.047,0.899h6.177c0.579,0,1.051-0.4,1.051-0.899V34.617
				c0-0.5-0.473-0.899-1.051-0.899H18C17.422,33.718,16.954,34.117,16.954,34.617z"/>
			<g>
				<g>
					<rect x="38.821" y="53.584" fill="#414042" width="6.767" height="5.316"/>
					<rect x="18.874" y="53.584" fill="#414042" width="6.762" height="5.316"/>
					<rect x="5.098" y="38.363" fill="#414042" width="5.32" height="6.764"/>
					<rect x="28.852" y="53.584" fill="#414042" width="6.758" height="5.316"/>
					<rect x="5.098" y="18.415" fill="#414042" width="5.32" height="6.764"/>
					<path fill="#414042" d="M15.661,53.584h-5.243v-5.242h-5.32v7.904c0,1.464,1.19,2.654,2.658,2.654h7.905V53.584z"/>
					<rect x="5.098" y="28.385" fill="#414042" width="5.32" height="6.764"/>
					<g>
						<path fill="#414042" d="M62.656,55.569l-6.686-6.692c-0.426-0.417-0.802-0.496-1.021-0.27
							c-0.147,0.144-0.227,0.409-0.227,0.793v4.184H48.8V58.9h5.924l0.002,4.189c-0.002,0.976,0.554,1.2,1.245,0.51l6.682-6.675
							C63.336,56.238,63.344,56.255,62.656,55.569z"/>
						<path fill="#414042" d="M8.443,1.349C7.752,0.662,7.772,0.654,7.085,1.34L0.394,8.032C-0.026,8.452-0.1,8.826,0.124,9.055
							C0.267,9.194,0.532,9.28,0.911,9.28l4.188-0.004v5.921h5.32V9.275h4.188c0.978,0.004,1.2-0.556,0.513-1.247L8.443,1.349z"/>
					</g>
				</g>
			</g>
		</g>
	</g>
</g>
<g id="Layer_6" display="none">
	<g display="inline">
		<g>
			<g>
				<path fill="#414042" d="M39.957,23.702c-5.414-5.414-14.189-5.414-19.602,0c-5.417,5.41-5.417,14.187,0,19.605
					c5.413,5.402,14.188,5.402,19.602,0C45.367,37.889,45.367,29.112,39.957,23.702z M23.329,40.327c-3.77-3.77-3.77-9.89,0-13.654
					c3.768-3.768,9.883-3.768,13.655,0c3.77,3.764,3.77,9.884,0,13.654C33.212,44.098,27.097,44.098,23.329,40.327z"/>
			</g>
			<g>
				<path fill="#414042" d="M18.544,44.903c-1.097-1.097-2.881-1.097-3.986,0l-0.14,0.151L18.4,49.04l0.144-0.144
					C19.649,47.789,19.649,46.007,18.544,44.903z M1.32,58.14c-1.093,1.1-1.093,2.893,0,3.992c1.105,1.097,2.893,1.097,3.994,0
					l11.804-11.806l-3.994-3.99L1.32,58.14z"/>
			</g>
		</g>
		<g>
			<g>
				<path fill="#414042" d="M33.64,12.565c0,0.48,0.393,0.87,0.872,0.87H53.09c0.478,0,0.865-0.39,0.865-0.87
					c0-0.476-0.388-0.87-0.865-0.87H34.512C34.032,11.695,33.64,12.089,33.64,12.565z M53.955,7.729c0-0.484-0.388-0.87-0.865-0.87
					H34.512c-0.479,0-0.872,0.386-0.872,0.87c0,0.48,0.393,0.87,0.872,0.87H53.09C53.567,8.6,53.955,8.21,53.955,7.729z
					 M53.09,16.539H35.117c1.617,0.341,3.191,0.919,4.678,1.732H53.09c0.478,0,0.865-0.382,0.865-0.866S53.567,16.539,53.09,16.539z
					 M53.09,21.366h-9.229c0.539,0.558,1.023,1.146,1.474,1.749h7.755c0.478,0,0.865-0.39,0.865-0.875S53.567,21.366,53.09,21.366z
					 M53.09,26.21h-5.906c0.26,0.57,0.488,1.149,0.691,1.74h5.215c0.478,0,0.865-0.394,0.865-0.87
					C53.955,26.6,53.567,26.21,53.09,26.21z M53.09,31.046h-4.486c0.078,0.582,0.132,1.16,0.154,1.744h4.332
					c0.478,0,0.865-0.389,0.865-0.871C53.955,31.435,53.567,31.046,53.09,31.046z"/>
			</g>
			<g>
				<path fill="#414042" d="M44.467,35.777H55.37c1.019-0.004,1.849-0.833,1.849-1.846V5.135c0-1.026-0.83-1.855-1.849-1.855H32.193
					c-1.023,0-1.846,0.829-1.846,1.855v15.053c-1.141,0.09-2.24,0.333-3.285,0.694V5.135c0-2.84,2.297-5.135,5.131-5.135H55.37
					c2.835,0.008,5.126,2.295,5.13,5.135v28.796c-0.004,2.831-2.295,5.126-5.13,5.13H43.412C43.9,38.032,44.26,36.932,44.467,35.777
					z"/>
			</g>
		</g>
	</g>
</g>
<g id="Layer_7" display="none">
	<path display="inline" fill="#414042" d="M8.197,39.377V64h16.198V45.097h16.204V64h16.204V39.377L32.499,15.093L8.197,39.377z
		 M54.103,26.176V7.296H43.299v8.09l-10.8-10.79L0.097,36.969v0.062l2.838,2.83l29.563-29.539L62.061,39.86l2.842-2.83v-0.062
		L54.103,26.176z"/>
</g>
<g id="Layer_8" display="none">
	<path display="inline" fill="#414042" d="M19.216,9.102c0,4.487-3.649,8.137-8.144,8.137c-4.49,0-8.135-3.65-8.135-8.137
		c0-4.492,3.645-8.141,8.135-8.141C15.567,0.961,19.216,4.609,19.216,9.102z"/>
	<rect x="16.251" y="6.788" display="inline" fill="#414042" width="43.249" height="5.088"/>
	<rect x="16.251" y="30.356" display="inline" fill="#414042" width="43.249" height="5.088"/>
	<path display="inline" fill="#414042" d="M19.216,32.903c0,4.492-3.649,8.132-8.144,8.132c-4.49,0-8.135-3.64-8.135-8.132
		c0-4.493,3.645-8.137,8.135-8.137C15.567,24.766,19.216,28.411,19.216,32.903z"/>
	<path display="inline" fill="#414042" d="M19.216,55.863c0,4.491-3.649,8.137-8.144,8.137c-4.49,0-8.135-3.646-8.135-8.137
		c0-4.493,3.645-8.134,8.135-8.134C15.567,47.729,19.216,51.37,19.216,55.863z"/>
	<rect x="16.251" y="53.549" display="inline" fill="#414042" width="43.249" height="5.093"/>
</g>
<g id="Layer_11" display="none">
	<g display="inline">
		<path fill="#414042" d="M58.798,0.1H5.1C2.285,0.1,0,2.383,0,5.197v53.7C0,61.719,2.285,64,5.1,64h53.698
			c2.821,0,5.103-2.281,5.103-5.103v-53.7C63.9,2.383,61.619,0.1,58.798,0.1z M12.864,57.676c0,1.18-0.957,2.141-2.139,2.141H6.016
			c-1.182,0-2.139-0.961-2.139-2.141v-4.712c0-1.18,0.957-2.136,2.139-2.136h4.709c1.182,0,2.139,0.956,2.139,2.136V57.676z
			 M12.864,46.038c0,1.188-0.957,2.141-2.139,2.141H6.016c-1.182,0-2.139-0.953-2.139-2.141v-4.711c0-1.18,0.957-2.137,2.139-2.137
			h4.709c1.182,0,2.139,0.957,2.139,2.137V46.038z M12.864,34.41c0,1.175-0.957,2.136-2.139,2.136H6.016
			c-1.182,0-2.139-0.961-2.139-2.136v-4.716c0-1.181,0.957-2.142,2.139-2.142h4.709c1.182,0,2.139,0.961,2.139,2.142V34.41z
			 M12.864,22.772c0,1.176-0.957,2.141-2.139,2.141H6.016c-1.182,0-2.139-0.965-2.139-2.141v-4.711c0-1.188,0.957-2.141,2.139-2.141
			h4.709c1.182,0,2.139,0.954,2.139,2.141V22.772z M12.864,11.133c0,1.182-0.957,2.139-2.139,2.139H6.016
			c-1.182,0-2.139-0.957-2.139-2.139V6.42c0-1.18,0.957-2.135,2.139-2.135h4.709c1.182,0,2.139,0.955,2.139,2.135V11.133z
			 M60.04,57.676c0,1.18-0.956,2.141-2.137,2.141h-4.714c-1.185,0-2.138-0.961-2.138-2.141v-4.712c0-1.18,0.953-2.136,2.138-2.136
			h4.714c1.181,0,2.137,0.956,2.137,2.136V57.676z M60.04,46.038c0,1.188-0.956,2.141-2.137,2.141h-4.714
			c-1.185,0-2.138-0.953-2.138-2.141v-4.711c0-1.18,0.953-2.137,2.138-2.137h4.714c1.181,0,2.137,0.957,2.137,2.137V46.038z
			 M60.04,34.41c0,1.175-0.956,2.136-2.137,2.136h-4.714c-1.185,0-2.138-0.961-2.138-2.136v-4.716c0-1.181,0.953-2.142,2.138-2.142
			h4.714c1.181,0,2.137,0.961,2.137,2.142V34.41z M60.04,22.772c0,1.176-0.956,2.141-2.137,2.141h-4.714
			c-1.185,0-2.138-0.965-2.138-2.141v-4.711c0-1.188,0.953-2.141,2.138-2.141h4.714c1.181,0,2.137,0.954,2.137,2.141V22.772z
			 M60.04,11.133c0,1.182-0.956,2.139-2.137,2.139h-4.714c-1.185,0-2.138-0.957-2.138-2.139V6.42c0-1.18,0.953-2.135,2.138-2.135
			h4.714c1.181,0,2.137,0.955,2.137,2.135V11.133z"/>
	</g>
</g>
<g id="Layer_16" display="none">
	<path display="inline" fill-rule="evenodd" clip-rule="evenodd" fill="#414042" d="M49.099,28.689c-0.96-1-1.673-1.743-2.561-2.668
		c1.916-1.748,3.811-3.478,5.843-5.333c-5.384-4.729-11.204-7.246-18.125-7.678c0,2.742,0,5.308,0,7.977c-1.165,0-2.182,0-3.408,0
		c0-2.592,0-5.201,0-7.783c-5.119-0.458-12.835,2.692-17.873,7.255c1.889,1.727,3.777,3.453,5.731,5.239
		c-1.199,1.045-2.011,1.754-2.908,2.536c-1.53-1.615-3.292-3.475-5.039-5.319c-4.206,3.854-7.608,12.287-7.316,17.898
		c2.421,0,4.865,0,7.383,0c0,1.234,0,2.258,0,3.393c-3.03,0-6.092,0-9.389,0C0.946,33.694,4.55,24.888,12.681,18.227
		c10.19-8.348,23.629-9.473,34.895-3.327c10.53,5.745,17.06,17.659,15.956,29.276c-3.081,0-6.175,0-9.323,0c0-1.033,0-2.015,0-3.214
		c2.414,0,4.854,0,7.25,0c0.718-4.23-2.599-13.951-7.216-18.088C52.566,24.77,50.868,26.688,49.099,28.689z"/>
	<path display="inline" fill-rule="evenodd" clip-rule="evenodd" fill="#ED1C24" d="M49.771,31.525
		c-1.696,1.691-3.354,3.422-5.097,5.065c-3.028,2.858-6.1,5.671-9.171,8.482c-1.218,1.114-2.65,1.319-4.125,0.624
		c-1.35-0.635-2.09-1.771-2.088-3.285c0.002-1.633,0.729-2.821,2.292-3.463c4.802-1.973,9.599-3.954,14.391-5.949
		c1.246-0.52,2.467-1.101,3.699-1.654C49.704,31.406,49.737,31.465,49.771,31.525z"/>
</g>
<g id="Layer_17">
	<path fill-rule="evenodd" clip-rule="evenodd" fill="#414042" d="M32.714,24.784c-3.413,0-6.828,0.043-10.239-0.017
		c-1.814-0.032-3.56-0.424-3.443-2.794c0.109-2.218,1.846-2.38,3.515-2.387c6.731-0.034,13.46-0.047,20.193-0.022
		c1.741,0.006,3.667,0.071,3.72,2.479c0.057,2.565-1.914,2.698-3.789,2.717c-3.317,0.033-6.638,0.009-9.956,0.009
		C32.714,24.773,32.714,24.778,32.714,24.784z"/>
	<path fill-rule="evenodd" clip-rule="evenodd" fill="#414042" d="M32.73,44.336c-3.516,0-7.034-0.012-10.55,0.008
		c-1.864,0.01-3.275-0.602-3.192-2.705c0.076-1.941,1.479-2.439,3.194-2.436c7.035,0.016,14.068,0.027,21.104,0.006
		c1.735-0.004,3.098,0.52,3.181,2.441c0.096,2.117-1.315,2.709-3.183,2.695C39.766,44.32,36.248,44.338,32.73,44.336z"/>
	<path fill-rule="evenodd" clip-rule="evenodd" fill="#414042" d="M32.728,29.416c3.417,0,6.837-0.001,10.255,0.002
		c1.72,0.001,3.398,0.234,3.479,2.418c0.087,2.332-1.589,2.744-3.468,2.746c-6.834,0.002-13.672,0.002-20.507,0.002
		c-1.888,0-3.535-0.449-3.474-2.762c0.058-2.231,1.734-2.377,3.462-2.365c3.417,0.022,6.835,0.007,10.252,0.007
		C32.728,29.448,32.728,29.432,32.728,29.416z"/>
	<g>
		<path fill="#414042" d="M53.978,6.35l-6.19,6.19c-0.816,0.819-0.816,2.144,0,2.964c0.824,0.823,2.148,0.823,2.972,0l2.604-2.604
			v19.588c0,1.154,0.938,2.096,2.096,2.096c1.161,0,2.099-0.941,2.099-2.096V12.9l2.609,2.604c0.818,0.823,2.15,0.823,2.966,0
			c0.41-0.408,0.618-0.945,0.618-1.482c0-0.538-0.208-1.074-0.618-1.482l-6.188-6.19c-0.207-0.207-0.442-0.357-0.693-0.459
			C56,5.784,55.729,5.732,55.458,5.732C54.921,5.732,54.384,5.94,53.978,6.35z"/>
	</g>
	<g>
		<path fill="#414042" d="M11.614,57.65l6.189-6.189c0.817-0.822,0.817-2.145,0-2.963c-0.823-0.824-2.147-0.824-2.971,0L12.229,51.1
			V31.511c0-1.154-0.939-2.095-2.097-2.095c-1.161,0-2.097,0.941-2.097,2.095V51.1l-2.61-2.602c-0.816-0.824-2.148-0.824-2.964,0
			c-0.412,0.406-0.618,0.943-0.618,1.479c0,0.539,0.207,1.076,0.618,1.484l6.187,6.189c0.205,0.205,0.444,0.355,0.694,0.461
			c0.25,0.107,0.521,0.156,0.791,0.156C10.669,58.268,11.207,58.059,11.614,57.65z"/>
	</g>
</g>
</svg>
