<?xml version="1.0" encoding="utf-8"?>
<!-- Generator: Adobe Illustrator 18.1.1, SVG Export Plug-In . SVG Version: 6.00 Build 0)  -->
<!DOCTYPE svg PUBLIC "-//W3C//DTD SVG 1.1//EN" "http://www.w3.org/Graphics/SVG/1.1/DTD/svg11.dtd">
<svg version="1.1" id="Layer_1" xmlns="http://www.w3.org/2000/svg" xmlns:xlink="http://www.w3.org/1999/xlink" x="0px" y="0px"
	 viewBox="17 -16 65 64" enable-background="new 17 -16 65 64" xml:space="preserve">
<g id="Layer_2" display="none">
	<rect x="4.5" y="-23.7" display="inline" fill="#00A651" width="112.3" height="90.7"/>
</g>
<g id="explode_your_income" display="none">
	<path display="inline" fill="#414042" d="M47.6-1c-1.2,0.1-1.7-0.8-2.3-1.8c-0.1,0.5-0.1,0.8-0.1,1.2c-0.1,0.2-0.2,0.4-0.4,0.5
		c-0.1,0-0.4-0.1-0.5-0.3c-0.5-0.8-1-1.6-1.4-2.5c-0.5-1.1-1-2.3-1.6-3.6c0.5,2.2,1.1,4.1,1.5,6.1c0.1,0.4,0,1-0.1,1.4
		c-0.4-0.2-0.9-0.4-1.3-0.6c-0.1,0-0.1-0.1-0.2-0.1c0.2,0.6,0.3,1.1,0.4,1.7c0.1,0.4,0,0.8-0.6,0.8c-0.1,0-0.2,0.2-0.3,0.4
		c2-0.3,3.5,0.3,4.8,1.8c0.2,0.2,0.6,0.3,1,0.3c0.8,0.1,1.4,0.4,1.7,1.1c0.2,0.4,0,1-0.2,1.4c-0.1-1.1-0.5-1.8-1.3-1.9
		c-0.9-0.2-1.8,0.5-2.5,2c-0.2-0.8,0.1-1.5,1-2.4c-1-1.3-2.3-1.7-3.9-1.6c-1.1,0.1-1.6,0.7-2.2,2.3c-0.6-0.1-1.2-0.4-1.7-0.4
		c-2.8-0.3-4.7,2-3.9,4.8c0.3,1,0.8,2,1.2,3c-0.5-0.8-1-1.6-1.6-2.5c-0.9,0.7-1.6,1.6-1.7,2.7c0,1.1,0.4,2.2,0.6,3.4
		c-0.5-1-0.9-1.8-1.4-2.7c-1.3,0.1-2.3,0.8-2.9,2c-0.8,1.5,0,2.7,1.1,3.8c-1.9,1-3.4,2.3-2.9,4.7c0.5,2.2,2.6,4,4.5,4.1
		c0.3-0.9,0.7-1.7,1.7-2.1c-0.1,0.1-0.2,0.3-0.4,0.4c-1,1.1-0.9,2.2,0.4,3c1,0.6,2.1,0.9,3.3,0.9c0.2,0,0.5-0.3,0.6-0.5
		c0.3-0.7,0.6-1.4,0.8-2.1c0.1,0,0.2,0.1,0.3,0.1c-1,2.5-1.9,5-2.9,7.6c1-1.2,1.9-2.3,2.9-3.5c0.3-0.3,0.6-0.6,0.9-0.9
		c0.2-0.1,0.5-0.2,0.7-0.2c0,0.2,0.2,0.5,0.1,0.7c-0.4,1.3-0.8,2.5-1.3,3.8c-0.5,1.3-1,2.5-1.6,3.9c1.1-1.6,2.2-3.1,3.3-4.6
		c0.2-0.3,0.5-0.6,0.8-0.9c0.5-0.4,0.8-0.2,0.8,0.4c0,0.4-0.1,0.8-0.1,1.2c0.5-0.4,1-0.9,1.6-1.3c0.1,0.1,0.2,0.1,0.2,0.2
		c0,2.3-0.8,4.4-1.4,6.7c0.1-0.2,0.2-0.3,0.3-0.4c0.1-0.1,0.1-0.3,0.2-0.4c1-1.6,1.9-3.2,2.9-4.8c0.3-0.5,0.7-1,1.4-1
		c0,0.1,0,0.2-0.1,0.2c-1.7,1.6-1.6,1.7,0,3.2c1.4,1.3,3.1,2.2,5.2,1.4c0.7-0.3,1.3-0.8,2-1.3c1.6,0.9,3.4,1.1,5.2,0.2
		c1.8-0.9,2.4-2.2,2.1-4.8c0.7,0.5,1.3,0.4,1.8-0.2c0.8-0.9,0.7-1.4-0.2-2.8c1,0.4,1.4,1.2,1.2,2.1c-0.3,1.1-1.2,1.8-2.3,1.7
		c0,0.6,0,1.3-0.1,1.9c-0.4,2.2-2.9,3.8-5.1,3.3c-0.8-0.1-1.5-0.5-2.2-0.7c-0.2-0.1-0.5-0.1-0.6,0.1c-2.7,2.4-6,2-8-1.1
		c-0.2-0.3-0.3-0.5-0.6-1c-1.8,3.5-3.5,6.9-5.2,10.2c0,0-0.1,0-0.1,0c0.5-1.9,1.1-3.7,1.5-5.6c0.5-1.9,0.9-3.8,1.3-5.7
		c-0.1,0-0.2-0.1-0.2-0.1c-0.7,0.8-1.5,1.7-2.4,2.6c0.4-1.3,0.7-2.4,1-3.4c-0.1,0-0.2-0.1-0.3-0.1c-2.9,3.6-5,7.7-7.4,11.6
		c1.8-4.5,3.6-9,5.4-13.6c-0.1-0.1-0.2-0.1-0.3-0.2c-1.3,1.6-2.6,3.1-3.8,4.7c-1.2,1.6-2.4,3.2-3.7,4.7c1-1.7,2-3.5,2.9-5.2
		c0.9-1.8,1.7-3.6,2.5-5.3c-1.2-0.3-2.2-0.5-3.2-0.7c-0.4-0.1-1-0.4-1.2-0.8c-0.5-0.7-1.1-0.9-1.9-1c-2.2-0.4-3.2-2.1-4-4
		c-0.6-1.5-0.3-3,0.9-4c0.4-0.4,0.9-0.6,1.3-0.9c0.2-0.1,0.4-0.2,0.6-0.3c-0.3-0.3-0.5-0.6-0.7-0.9c-1.3-1.9-0.7-3.9,1.4-4.8
		c0.5-0.2,1-0.2,1.5-0.4c0.2-0.1,0.5-0.3,0.6-0.5c0.2-1,0.8-1.9,1.6-2.5c0.5-0.3,0.6-0.6,0.5-1.2c-0.2-1.1-0.1-2.1,0.5-3.1
		c1.2-1.7,2.7-2.2,4.6-1.6c0.3,0.1,0.5,0.2,0.8,0.3C39,4.4,39.2,4,39.5,3.6c0.3-0.4,0.6-0.7,1-1.2c-0.2-0.5-0.4-1.3-0.7-2.2
		c0.5,0.5,0.9,0.8,1.2,1.2c0.1,0,0.2-0.1,0.3-0.1c-0.4-1.3-0.8-2.5-1.2-3.8c0,0,0.1-0.1,0.1-0.1c0.6,0.7,1.2,1.5,1.9,2.2
		c0.1-0.1,0.3-0.2,0.4-0.3c-0.8-4.2-2.1-8.4-3.1-12.6C41-9.4,42.4-5.5,44.6-2c0-1.4,0-2.8,0-4.4C45.4-4.4,45.4-2,47.6-1L47.6-1z"/>
	<path display="inline" fill="#414042" d="M47.6-1c0.8-0.5,1.6-1.2,2.4-1.5c2.3-0.7,5.3,1.1,5.9,3.6c0.2,0.6,0.4,0.8,1,1
		c1.2,0.3,1.9,1.2,2.2,2.4c0.1,0.3,0.1,0.5,0.2,0.8c0.8,0.2,1.6,0.3,2.4,0.4c0.2,0,0.5-0.3,0.8-0.4c0.6-0.3,1.2-0.6,1.9-0.9
		c-0.3,0.3-0.6,0.7-0.8,1c0.2,0.1,0.4,0.2,0.7,0.3c-0.6,0.1-1,0.1-1.6,0.2c0.5,0.4,1,0.7,1.4,1c1.2,1.2,1.8,2.6,1.7,4.4
		c0,0.3,0.1,0.7,0.3,0.9c0.7,0.8,0.9,1.5,0.4,2.5c-0.2,0.4-0.2,0.6,0.1,0.9c1.7,2,1.2,4.4-1.2,5.6c-0.7,0.3-1.4,0.5-2.2,0.8
		c0.2,0.3,0.4,0.6,0.7,0.8c2.7,2.1,5.5,4.1,8.2,6.1c0.8,0.6,1.6,1.1,2.4,1.7c-3.7-1.7-7.2-3.8-11.1-5.3c-0.1,0.1-0.1,0.1-0.2,0.2
		c0.2,0.3,0.4,0.7,0.7,1c1.6,1.5,3.2,3,4.8,4.4c0.2,0.2,0.4,0.3,0.5,0.6c-1.8-1.1-3.6-2.2-5.4-3.4c0,0-0.1,0.1-0.1,0.1
		c0.4,0.5,0.7,0.9,1.2,1.6c-1.3-0.4-2.2-1.5-3.6-1.2c0.4-0.6,0.6-0.6,1.7-0.2c0-0.3-0.1-0.7-0.1-1c0.5,0.1,0.9,0.2,1.4,0.3
		c-0.4-0.4-0.7-0.8-1.1-1.2c-0.2-0.2-0.4-0.5-0.5-0.8c-0.1-0.3-0.1-0.7,0-0.9c0.1-0.2,0.6-0.2,0.8-0.1c0.7,0.2,1.3,0.4,1.9,0.7
		c0.2,0.1,0.4,0.1,0.6,0.1c-1-0.8-1.9-1.6-3-2.5c-0.5,0.7-1.2,1-2.3,0.8c0.8-0.4,1.8-0.6,1.9-1.7c-0.3,0-0.6,0-0.9-0.1
		c1-0.4,2-0.7,3-1.1c0.9-0.4,1.6-1,1.9-2c0.5-1.4,0.2-2.6-0.9-3.6c1-2,0.5-2.7-2.7-3.7c0.7,0,1.4,0,2,0c0.6-2.5-2.5-5.7-5.5-5.8
		C59,6.6,58.6,7.3,58.2,8c-0.1,0-0.2-0.1-0.2-0.1c0.6-1.3,1.1-2.6,0.4-4c-0.8-1.4-2-1.8-3.5-1.8c0.3-0.1,0.5-0.2,0.9-0.3
		c-0.6-1.8-1.9-2.9-3.6-3.6c-1.8-0.7-3.3-0.1-4.8,1.1C47.4-0.7,47.5-0.8,47.6-1C47.6-1,47.6-1,47.6-1z"/>
	<path display="inline" fill="#414042" d="M49.9,13c0.3-1.5,0.5-3,0.8-4.5c0,0,0.1,0,0.1,0c0.3,1.7,0.5,3.4,0.8,5.1
		c0.1,0,0.2,0,0.2,0c0.5-2.4,1-4.7,1.5-7.1c0.1,0,0.1,0,0.2,0c0,0.5-0.1,0.9-0.1,1.4c0,1,0.1,2.1,0.1,3.1c0.1,0.9,0.2,1,1.1,0.7
		c0.1,0,0.3-0.1,0.4-0.1c0,0.1,0.1,0.2,0.1,0.3c-0.5,0.2-1,0.6-1.6,0.6c-0.3,0-0.5-0.6-0.7-0.9c-0.3,1-0.6,2.2-0.9,3.4
		c-0.1,0-0.2,0-0.3,0c-0.7-0.8-0.5-2-0.9-3c-0.2,0.5-0.3,0.9-0.4,1.3c-0.3,0.7-0.8,0.8-1.2,0.1c-0.2-0.2-0.3-0.5-0.4-0.7
		c-0.1-0.2-0.2-0.5-0.4-0.9c0,0.5-0.1,0.9-0.1,1.2c-0.1,0.5-0.4,0.6-0.7,0.2c-0.4-0.5-0.8-1.1-1.2-1.7c0.1-0.1,0.1-0.1,0.2-0.2
		c0.4,0.4,0.7,0.8,1.2,1.3c0-1.3,0-2.4,0-3.5c0,0,0.1,0,0.1,0c0.6,1.3,1.2,2.6,1.7,4C49.6,13,49.8,13,49.9,13z"/>
	<path display="inline" fill="#414042" d="M38.3,26c0.2-0.5,0.3-1,0.4-1.5c0.1,0,0.1,0,0.2,0c0,1,0.3,2,1.4,2.4
		c-0.1,0.1-0.1,0.2-0.2,0.3c-0.5-0.2-1-0.5-1.6-0.7c-2.5,0.7-4.7-0.4-5.1-2.9c-0.1-0.5,0-1.1,0.2-1.6c0.2-0.5,0.3-0.8-0.2-1.3
		c-0.8-0.9-0.9-2-0.5-3.2c0.4-1,1.2-1.4,2.2-1.6c-0.9,0.6-1.6,1.3-1.8,2.4c-0.1,1.1,0.2,2,1,2.8c-0.7,1.4-0.6,2.8,0.6,3.9
		C36,25.9,37,26.5,38.3,26z"/>
	<path display="inline" fill="#414042" d="M58.1,18.8c0.4,0.7,0.8,1.2,1,1.8c0.3,1.2-0.3,2.1-1.5,2.6c-0.5,0.2-0.9,0.4-1.1,0.9
		c-0.2,0.3-0.7,0.5-1.1,0.7c1-0.9,1-2,0.8-3.2c0.1,0,0.1,0,0.2,0c0.2,0.4,0.4,0.9,0.5,1.3c1-0.3,1.4-1,1.4-2.1
		c0-0.9-0.3-1.3-1.1-1.6c1.9-2.6,1.1-4.3-2.6-5.4c1-0.4,2.6,0,3.5,1C59.2,16.1,59.2,16.9,58.1,18.8z"/>
	<path display="inline" fill="#414042" d="M64.6,6.7c1,0.3,1.9,0.8,2.6-0.1c0.6-0.8,0.5-1.7,0-2.3C67.6,3.9,68,3.8,68,3.5
		c0.2-0.7,0.3-1.4-0.3-1.9c-0.6-0.6-1.4-1-2.4-0.8c0,0.6,0.2,1.3-0.8,1.7c0.6-0.8,0.4-1.3-0.2-1.7c-0.5-0.4-1.2-0.7-1.8-0.3
		c-1,0.6-0.9,1.5-0.5,2.6c-0.8-0.7-0.9-1.7-0.4-2.5c0.5-0.8,1.6-1.1,2.4-0.6c0.5,0.3,0.9,0.4,1.5,0.3c1.1-0.2,2,0.3,2.7,1.1
		c0.7,0.9,0.3,1.8-0.2,2.7c-0.1,0.2-0.2,0.5-0.2,0.7c0.3,1,0,2.1-0.7,2.5C66.7,7.8,65.7,7.6,64.6,6.7z"/>
	<path display="inline" fill="#414042" d="M30.6,4.5c0.5-0.9,0.3-2-0.5-2.4c-1-0.5-1.9,0.1-2.5,1.4C27.8,3.6,28,3.6,28,3.6
		c-0.5,0.4-1.2,0.7-1.6,1.3c-0.4,0.5,0.3,1.6,0.9,1.6c0.5,1.6,1.2,1.9,2.7,1.3c-0.1,0.5-0.4,0.8-0.9,0.8c-0.8,0.1-1.4-0.1-1.9-0.8
		c-0.3-0.4-0.5-0.8-0.8-1.1c-0.9-0.9-0.9-2.6,0.4-3c0.2-0.1,0.3-0.4,0.4-0.6c0.3-0.4,0.5-0.9,0.8-1.3c0.7-0.8,1.4-0.9,2.3-0.4
		C31.2,2,31.7,3.2,31.4,4c-0.1,0.3-0.4,0.5-0.6,0.7C30.7,4.6,30.7,4.5,30.6,4.5z"/>
	<path display="inline" fill="#414042" d="M49,24.8c-0.9-0.7-0.9-1.4-0.5-2.1c0.2,0.5,0.3,1.1,0.6,1.5c0.3,0.3,0.9,0.3,1.5,0.5
		c-0.1,0.1-0.3,0.3-0.5,0.3c-0.7-0.1-1,0.4-1.4,0.8c-0.8,0.8-2.2,0.6-3-0.4c-0.2-0.3-0.4-0.6-0.6-0.9c-2.2,0.3-3.4-0.1-3.9-1.5
		c-0.3-1,0.2-2,1.4-2.8c-0.6,1.1-1.4,2-0.4,3.1c0.8,0.9,1.6,1,3,0.5c0.5,1,1.2,1.8,2.5,1.8C48.1,25.5,48.5,25.1,49,24.8z"/>
	<path display="inline" fill="#414042" d="M50.6,27c0.1-0.7,0.2-1.3,0.3-2c0,0,0,0,0.1,0c0,1.6,0,3.2,0,4.9c-0.1,0-0.1,0-0.2,0
		c-0.3-1-0.5-2.1-0.9-3.3c-0.3,0.7-0.6,1.2-0.8,1.7c-0.1,0-0.1-0.1-0.2-0.1c0.3-0.8,0.6-1.7,0.9-2.5c0.1,0,0.2,0,0.3,0
		C50.2,26.2,50.4,26.6,50.6,27z"/>
	<path display="inline" fill="#414042" d="M43.4,16.1c-0.7-0.4-0.9-1-0.7-1.7c0.2-0.9,0.9-1.2,2-1.2c0.2-0.6,0.5-1.1,1.2-1
		c-0.3,0.5-0.7,1-0.9,1.4c-0.5,0.1-1.1,0.1-1.5,0.4C42.9,14.5,43,15.3,43.4,16.1z"/>
	<path display="inline" fill="#414042" d="M30.1,4.4c0.4,1.2,1.2,2,2.5,2.2C31.3,7.2,29.9,6,30.1,4.4z"/>
	<path display="inline" fill="#414042" d="M61.3,5.4c0.7-0.6,1.3-1.3,1.9-1.8C63.3,4.5,62.5,5.3,61.3,5.4z"/>
	<path display="inline" fill="#414042" d="M31.7,7.8c-0.8-0.2-1.6-0.4-2.4-0.6C29.9,6.8,30.8,7,31.7,7.8z"/>
</g>
<g id="maximize_your_budget" display="none">
	<g display="inline">
		<path fill="#414042" d="M43,11.1c6.8,0,12.4-2,12.7-4.6c0-0.1,0-0.1,0-0.2l0,0V3.1c0-2.7-5.7-4.9-12.7-4.9c-7,0-12.7,2.2-12.7,4.9
			v3.3l0,0C30.3,9,36,11.1,43,11.1z M36.8,9.8c-0.6-0.1-1.2-0.3-1.7-0.4V6.9c0.5,0.2,1.1,0.3,1.7,0.5V9.8z M40.2,10.3
			c-0.6,0-1.2-0.1-1.7-0.2V7.6c0.6,0.1,1.1,0.2,1.7,0.2V10.3z M43.7,10.4c-0.2,0-0.5,0-0.7,0c-0.3,0-0.7,0-1,0V8c0.3,0,0.7,0,1,0
			c0.2,0,0.5,0,0.7,0L43.7,10.4L43.7,10.4z M54.1,7.8c-0.3,0.3-0.8,0.6-1.3,0.9V6.1c0.5-0.2,0.9-0.5,1.3-0.8V7.8z M43-0.8
			C49.1-0.8,54,0.9,54,3c0,2.1-4.9,3.8-10.9,3.8c-6,0-11-1.7-11-3.8C32.1,0.9,37-0.8,43-0.8z M31.6,5.1c0.4,0.4,1,0.8,1.7,1.1v2.6
			c-0.7-0.3-1.5-0.8-1.7-1.1C31.6,7.6,31.6,5.1,31.6,5.1z"/>
		<path fill="#414042" d="M38.6,5.1c0.7,0.5,2.1,0.7,3.6,0.8v0.4c0,0.1,0.1,0.1,0.3,0.1h1.1c0.2,0,0.3-0.1,0.3-0.1V5.9
			c1-0.1,1.8-0.2,2.4-0.4c1-0.4,1.5-1,1-1.6c-0.5-0.6-2-0.9-3.4-1.1V0.8c0.2,0,0.3,0,0.5,0.1c0.4,0.1,1,0.2,1.3,0.4
			c0.1,0,0.1,0,0.2,0.1c0,0,0,0,0.1,0c0,0,0,0,0,0c0,0,0.1,0,0.1,0.1c0.5,0.3,1.8-0.2,1.4-0.5c-0.5-0.3-1.7-0.6-2.6-0.8
			c-0.3,0-0.6-0.1-0.9-0.1v-0.4c0-0.1-0.1-0.1-0.3-0.1h-1.1c-0.2,0-0.3,0.1-0.3,0.1v0.4c-1,0.1-1.9,0.2-2.5,0.5
			c-1,0.4-1.3,1.1-0.7,1.6c0.3,0.2,0.7,0.5,1.3,0.6c0.3,0.1,1.1,0.2,2,0.4v1.9c-0.2,0-0.4,0-0.6-0.1c-0.4-0.1-1-0.2-1.3-0.3
			c-0.1,0-0.1,0-0.2-0.1c0,0,0,0-0.1,0c0,0,0,0,0,0c0,0-0.1,0-0.1-0.1C39.5,4.3,38.1,4.8,38.6,5.1z M44,3.6c0.4,0.1,0.7,0.1,0.8,0.2
			c0.5,0.1,0.6,0.2,0.9,0.4C46,4.5,45.8,4.8,45.3,5c-0.4,0.1-0.8,0.2-1.3,0.2V3.6z M41.9,2.3c-0.6-0.1-1-0.2-1.3-0.4
			c-0.4-0.3-0.3-0.7,0.2-0.9c0.4-0.1,0.9-0.2,1.4-0.3v1.6C42,2.4,41.9,2.3,41.9,2.3z"/>
		<path fill="#414042" d="M29.8,11.4L29.8,11.4c0,1.2,1.3,2.3,3.3,3.2l1.1-1.2c0.1-0.1,0.2-0.2,0.3-0.3v-1.2c0.5,0.2,1,0.3,1.6,0.4
			c0.3-0.1,0.6-0.1,0.9-0.1c0.7,0,1.4,0.2,2,0.6c0.2,0,0.4,0.1,0.7,0.1v0.4l1.7,1.5V13c0.3,0,0.7,0,1,0c0.2,0,0.5,0,0.7,0v2.5
			c-0.2,0-0.5,0-0.7,0c-0.1,0-0.1,0-0.2,0l0.8,0.7c6.6-0.1,11.8-2.1,12.1-4.6c0-0.1,0-0.1,0-0.2l0,0V9.1c-2.4,2-7.3,3-12.1,3
			c-5.7,0-11.6-1.5-13.2-4.2c0,0.1,0,0.2,0,0.4c0,0,0,0.1,0,0.1C29.8,8.3,29.8,11.4,29.8,11.4z M52.3,11.6c0.3-0.1,1-0.4,1.3-0.6
			v1.9c-0.3,0.3-0.8,0.6-1.3,0.9V11.6z M31,10.1c0.4,0.4,1,0.8,1.7,1.1v2.6C32,13.5,31.2,13,31,12.7V10.1z"/>
		<path fill="#414042" d="M48.2,29.1v-0.5c0,0,0-0.1,0-0.1c0-0.2,0-0.3,0.1-0.5c0.1-0.3,0.3-0.6,0.6-0.7c0-0.1,0-0.3-0.1-0.4
			c0-0.1,0-0.1,0-0.2v-3.1c0,0,0-0.1,0-0.1c0-0.1,0-0.2,0-0.4l-10.3-8.7c-1-0.8-2.4-0.8-3.3,0.2L17.7,32.3c-1,1-0.9,2.6,0,3.6
			c1,1,2.5,1,3.5,0l15.9-16.2L48.2,29.1z"/>
		<path fill="#414042" d="M80.4-0.9c-0.5-0.5-1.1-0.7-1.7-0.5L65.3,1.1c-1.1,0.2-1.8,1.3-1.6,2.4c0.2,1.1,1.2,1.8,2.3,1.6L71.9,4
			l0.3,0.2l-12,13.3c0.7-0.1,1.5-0.1,2.3-0.1c1.5,0,2.9,0.1,4.2,0.3L76,7.4l0.1,0.1l-0.9,6.7c-0.1,1.1,0.6,2.1,1.7,2.3
			c1.1,0.1,2.1-0.6,2.2-1.8L81,0.9C81.1,0.2,80.9-0.4,80.4-0.9z"/>
		<path fill="#414042" d="M32.3,15.3c-0.8-0.3-1.5-0.7-2-1.2v2.3l0,0c0,0.2,0.1,0.5,0.2,0.7l1.1-1.1l0-0.5c0.1,0.1,0.2,0.1,0.3,0.2
			L32.3,15.3z"/>
		<path fill="#414042" d="M55.7,16.7c0-0.1,0-0.1,0-0.2l0,0v-3.2c0-0.1,0-0.2,0-0.3c-1.4,2.5-6.4,3.9-11.6,4.2l4.3,3.7
			C52.6,20.1,55.5,18.5,55.7,16.7z M54.1,18c-0.3,0.3-0.8,0.6-1.3,0.9v-2.6c0.4-0.1,0.9-0.4,1.3-0.7V18z"/>
		<path fill="#414042" d="M33.9,25.1c2.3,0.8,5.2,1.3,8.5,1.3c0.1,0,0.2,0,0.3,0l-0.8-0.7c-0.2,0-0.3,0-0.5,0v-0.4l-1.7-1.5v1.8
			c-0.6-0.1-1.2-0.1-1.7-0.2v-2.5c0.3,0,0.5,0.1,0.8,0.1l-1.5-1.2c0,0,0,0,0,0l-1,1.1V25c-0.6-0.1-1.2-0.3-1.7-0.4v-0.1L33.9,25.1z"
			/>
		<path fill="#414042" d="M30.9,28.1c1.6,1.9,6.4,3.3,12.1,3.3c1.8,0,3.6-0.2,5.2-0.4l-4.4-3.7c-0.5,0-0.9,0-1.4,0
			c-3.3,0-6.7-0.5-9.3-1.5l-0.6,0.6c0.2,0.1,0.4,0.2,0.7,0.3V29c-0.7-0.3-1.5-0.8-1.7-1.1v-0.4L30.9,28.1z M42,28.2c0.3,0,0.7,0,1,0
			c0.2,0,0.5,0,0.7,0v2.5c-0.2,0-0.5,0-0.7,0c-0.3,0-0.7,0-1,0L42,28.2L42,28.2z M38.5,27.9c0.6,0.1,1.1,0.2,1.7,0.2v2.5
			c-0.6-0.1-1.2-0.1-1.7-0.2V27.9z M35,27.1c0.5,0.2,1.1,0.3,1.7,0.5v2.5c-0.6-0.1-1.2-0.3-1.7-0.4V27.1z"/>
		<path fill="#414042" d="M43,32.4c-5.2,0-10.6-1.2-12.7-3.6l-0.5,0.5v2.4l0,0c0,2.6,5.7,4.8,12.7,4.8c2.4,0,4.6-0.2,6.5-0.7v-1.4
			c0-0.3,0.1-0.5,0.3-0.7c-0.5-0.6-0.8-1.2-0.8-1.9C46.6,32.2,44.8,32.4,43,32.4z M32.7,34.1c-0.7-0.3-1.5-0.8-1.7-1.1v-2.5
			c0.4,0.4,1,0.8,1.7,1.1V34.1z M36.2,35.2c-0.6-0.1-1.2-0.3-1.7-0.4v-2.5c0.5,0.2,1.1,0.3,1.7,0.5V35.2z M39.7,35.7
			c-0.6-0.1-1.2-0.1-1.7-0.2V33c0.6,0.1,1.1,0.2,1.7,0.2V35.7z M43.2,35.8c-0.2,0-0.5,0-0.7,0c-0.3,0-0.7,0-1,0v-2.5
			c0.3,0,0.7,0,1,0c0.2,0,0.5,0,0.7,0C43.2,33.3,43.2,35.8,43.2,35.8z"/>
		<path fill="#414042" d="M61.9,37.4c-4.7,0-9.7-1-12.1-3v2.3l0,0c0,2.6,5.7,4.8,12.7,4.8c6.8,0,12.4-2,12.7-4.6c0-0.1,0-0.1,0-0.2
			l0,0v-3.2c0-0.1,0-0.2,0-0.3C73.6,36,67.6,37.4,61.9,37.4z M52.8,39.2c-0.7-0.3-1.5-0.8-1.7-1.1l0-2.1c0.3,0.2,0.8,0.6,1.7,0.9
			C52.8,36.8,52.8,39.2,52.8,39.2z M56.3,40.2c-0.6-0.1-1.2-0.3-1.7-0.4v-2.5c0.5,0.2,1.1,0.3,1.7,0.5V40.2z M59.7,40.8
			c-0.6,0-1.2-0.1-1.7-0.2v-2.5c0.6,0.1,1.1,0.2,1.7,0.2V40.8z M63.2,40.9c-0.2,0-0.5,0-0.7,0c-0.3,0-0.7,0-1,0v-2.5
			c0.3,0,0.7,0,1,0c0.2,0,0.5,0,0.7,0L63.2,40.9L63.2,40.9z M73.6,38.3c-0.3,0.3-0.8,0.6-1.3,0.9v-2.6c0.4-0.1,0.9-0.4,1.3-0.7V38.3
			z"/>
		<path fill="#414042" d="M49.3,31.7c0,2.6,5.7,4.8,12.7,4.8c6.8,0,12.4-2,12.7-4.6c0-0.1,0-0.1,0-0.2l0,0v-2.3c-2.4,2-7.3,3-12.1,3
			c-5.7,0-11.6-1.5-13.2-4.2c0,0.1,0,0.2,0,0.4c0,0,0,0.1,0,0.1L49.3,31.7L49.3,31.7z M71.8,31.9c0.3-0.1,1-0.4,1.3-0.6v1.9
			c-0.3,0.3-0.8,0.6-1.3,0.9V31.9z M60.9,33.3c0.3,0,0.7,0,1,0c0.2,0,0.5,0,0.7,0v2.5c-0.2,0-0.5,0-0.7,0c-0.3,0-0.7,0-1,0
			L60.9,33.3L60.9,33.3z M57.4,33c0.6,0.1,1.1,0.2,1.7,0.2v2.5c-0.6,0-1.2-0.1-1.7-0.2V33z M54,32.2c0.5,0.2,1.1,0.3,1.7,0.5v2.5
			c-0.6-0.1-1.2-0.3-1.7-0.4V32.2z M50.5,30.4c0.4,0.4,1,0.8,1.7,1.1v2.6c-0.7-0.3-1.5-0.8-1.7-1.1V30.4z"/>
		<path fill="#414042" d="M49.3,38.3c0,0.1,0,0.2,0,0.4c0,0,0,0.1,0,0.1v3.1l0,0c0,2.6,5.7,4.8,12.7,4.8c6.8,0,12.4-2,12.7-4.6
			c0-0.1,0-0.1,0-0.2l0,0v-2.3c-2.4,2-7.3,3-12.1,3C56.8,42.5,50.9,41,49.3,38.3z M52.2,44.2c-0.7-0.3-1.5-0.8-1.7-1.1v-2.5
			c0.4,0.4,1,0.8,1.7,1.1V44.2z M55.7,45.3c-0.6-0.1-1.2-0.3-1.7-0.4v-2.5c0.5,0.2,1.1,0.3,1.7,0.5V45.3z M59.2,45.8
			c-0.6,0-1.2-0.1-1.7-0.2v-2.5c0.6,0.1,1.1,0.2,1.7,0.2V45.8z M71.8,42c0.3-0.1,1-0.4,1.3-0.6v1.9c-0.3,0.3-0.8,0.6-1.3,0.9V42z
			 M62.6,45.9c-0.2,0-0.5,0-0.7,0c-0.3,0-0.7,0-1,0v-2.5c0.3,0,0.7,0,1,0c0.2,0,0.5,0,0.7,0L62.6,45.9L62.6,45.9z"/>
		<path fill="#414042" d="M62.5,18.5c-7,0-12.7,2.2-12.7,4.9v3.3l0,0c0,2.6,5.7,4.8,12.7,4.8c6.8,0,12.4-2,12.7-4.6
			c0-0.1,0-0.1,0-0.2l0,0v-3.2C75.2,20.7,69.5,18.5,62.5,18.5z M62.5,19.4c6,0,11,1.8,11,3.9c0,2.2-4.9,3.9-11,3.9
			c-6,0-10.9-1.7-10.9-3.9C51.5,21.1,56.4,19.4,62.5,19.4z M52.8,29c-0.7-0.3-1.5-0.8-1.7-1.1v-2.5c0.4,0.4,1,0.8,1.7,1.1V29z
			 M56.3,30.1c-0.6-0.1-1.2-0.3-1.7-0.4v-2.5c0.5,0.2,1.1,0.3,1.7,0.5V30.1z M59.7,30.6c-0.6,0-1.2-0.1-1.7-0.2v-2.5
			c0.6,0.1,1.1,0.2,1.7,0.2V30.6z M63.2,30.7c-0.2,0-0.5,0-0.7,0c-0.3,0-0.7,0-1,0v-2.5c0.3,0,0.7,0,1,0c0.2,0,0.5,0,0.7,0
			L63.2,30.7L63.2,30.7z M73.6,28.1c-0.3,0.3-0.8,0.6-1.3,0.9v-2.6c0.5-0.2,0.9-0.5,1.3-0.8V28.1z"/>
		<path fill="#414042" d="M58,25.4c0.7,0.5,2.1,0.7,3.6,0.8v0.4c0,0.1,0.1,0.1,0.3,0.1h1.1c0.2,0,0.3-0.1,0.3-0.1v-0.5
			c0.9-0.1,1.8-0.2,2.4-0.4c1-0.4,1.5-1,1-1.6c-0.5-0.6-2-0.9-3.4-1.1v-1.9c0.2,0,0.3,0,0.5,0.1c0.4,0.1,1,0.2,1.3,0.4
			c0.1,0,0.1,0,0.2,0.1c0,0,0,0,0.1,0c0,0,0,0,0,0c0,0,0.1,0,0.1,0.1c0.5,0.3,1.8-0.2,1.4-0.5c-0.5-0.3-1.7-0.6-2.6-0.7
			c-0.3,0-0.6-0.1-0.9-0.1v-0.4c0-0.1-0.1-0.1-0.3-0.1H62c-0.2,0-0.3,0.1-0.3,0.1v0.4c-1,0.1-1.9,0.2-2.5,0.5
			c-1,0.4-1.3,1.1-0.7,1.6c0.3,0.2,0.7,0.5,1.3,0.6c0.3,0.1,1.1,0.2,2,0.4v1.9c-0.2,0-0.4,0-0.6-0.1c-0.4-0.1-1-0.2-1.3-0.3
			c-0.1,0-0.1,0-0.2-0.1c-0.1-0.1,0,0-0.1,0c0,0-0.1,0-0.1-0.1C59,24.6,57.6,25.1,58,25.4z M63.4,23.9c0.4,0.1,0.7,0.1,0.8,0.2
			c0.5,0.1,0.6,0.2,0.9,0.4c0.4,0.3,0.2,0.7-0.4,0.9c-0.4,0.1-0.8,0.2-1.3,0.2L63.4,23.9L63.4,23.9z M61.3,22.6
			c-0.6-0.1-1-0.2-1.3-0.4c-0.4-0.3-0.3-0.7,0.2-0.9c0.4-0.2,0.9-0.2,1.4-0.3v1.7C61.5,22.6,61.4,22.6,61.3,22.6z"/>
	</g>
</g>
<g id="rech_new_customers" display="none">
	<path display="inline" fill="#414042" d="M29.3,24.7c0-1.8-1.2-3.3-3.2-3.3c-2.1,0-3.2,1.5-3.2,3.3C22.8,31.7,29.3,31.6,29.3,24.7
		L29.3,24.7z M18.6,38.2v-0.7c0-1.7,0.1-3.7,0.9-5.1c0.7-1.3,2-2.5,3.6-2.5h0.6c1.4,1.4,3.5,1.4,5,0h0.6c0.8,0,1.5,0.3,2.1,0.8
		c-0.5,1.1-0.8,2.4-0.9,3.7L18.6,38.2L18.6,38.2z M44.4,21.2c-0.1-2.2-1.5-4.1-4-4.1c-2.6,0-4,1.9-4,4.1
		C36.3,29.9,44.4,29.7,44.4,21.2L44.4,21.2z M31.2,34c0.1-1.2,0.4-2.3,0.9-3.3c0.9-1.6,2.5-3.1,4.4-3.1h0.7c1.8,1.7,4.4,1.7,6.1,0
		h0.7c0.9,0,1.7,0.3,2.4,0.8c-0.1,0.1-0.2,0.3-0.2,0.4c-1.2,2.3-1.4,5.3-1.4,7.9V39l-0.1,0l-6.2-5.3l-1.8-1.5L31.2,34L31.2,34z
		 M61.6,18.2c-0.1-2.6-1.8-4.8-4.8-4.8c-3.1,0-4.7,2.2-4.8,4.8C52.1,28.3,61.7,28.1,61.6,18.2L61.6,18.2z M46,38.5v-1.8
		c0-2.5,0.1-5.3,1.2-7.4c1-1.9,2.9-3.7,5.2-3.7h0.8c2,2,5.1,2,7.2,0h0.8c2.3,0,4.2,1.8,5.2,3.7c0.2,0.4,0.4,0.8,0.5,1.2L46,38.5
		L46,38.5z M67.1,26.8l1.8,4.6l-24.3,9.3l-6.9-5.9l-1.2-1l-1.4,0.5l-16.3,5.4l1.7,5.1l14.9-4.9l7,5.9l1.2,1l1.5-0.6l25.8-9.8
		l1.7,4.3l8-11.3L67.1,26.8L67.1,26.8z"/>
</g>
<g id="Layer_12" display="none">
	<polygon display="inline" fill="#FFFFFF" points="42.5,5.7 60.3,-12.5 75.1,-13.1 57.9,3.2 68.2,3.2 48.9,18.9 58.4,18.9 
		32.5,33.1 42.3,21.6 36.7,21.3 52.1,6 	"/>
	<g display="inline">
		<g>
			<g>
				<g>
					<rect x="55.8" y="37.2" fill="#FFFFFF" width="6.8" height="5.3"/>
					<rect x="35.9" y="37.2" fill="#FFFFFF" width="6.8" height="5.3"/>
					<rect x="22.1" y="21.9" fill="#FFFFFF" width="5.3" height="6.8"/>
					<rect x="45.9" y="37.2" fill="#FFFFFF" width="6.8" height="5.3"/>
					<rect x="22.1" y="2" fill="#FFFFFF" width="5.3" height="6.8"/>
					<path fill="#FFFFFF" d="M32.7,37.2h-5.2v-5.2h-5.3v7.9c0,1.5,1.2,2.7,2.7,2.7h7.9V37.2z"/>
					<rect x="22.1" y="12" fill="#FFFFFF" width="5.3" height="6.8"/>
					<g>
						<path fill="#FFFFFF" d="M79.7,39.2L73,32.5c-0.4-0.4-0.8-0.5-1-0.3c-0.1,0.1-0.2,0.4-0.2,0.8v4.2h-5.9v5.3h5.9l0,4.2
							c0,1,0.6,1.2,1.2,0.5l6.7-6.7C80.3,39.8,80.3,39.8,79.7,39.2z"/>
						<path fill="#FFFFFF" d="M25.4-15.1c-0.7-0.7-0.7-0.7-1.4,0l-6.7,6.7c-0.4,0.4-0.5,0.8-0.3,1c0.1,0.1,0.4,0.2,0.8,0.2l4.2,0
							v5.9h5.3v-5.9h4.2c1,0,1.2-0.6,0.5-1.2L25.4-15.1z"/>
					</g>
				</g>
			</g>
		</g>
	</g>
</g>
<g id="Layer_9" display="none">
	<g id="homework_copy_14_1_" display="inline" enable-background="new    ">
		<g>
			<g>
				<path id="SVGID_1_" fill="#FFFFFF" d="M51.3,16.1l19-14.3L47.1-0.6l-19,13L51.3,16.1z M51.8,17.9l-14.4-2.5l1.5,5.8l14.3,2.1
					l11.8-8.7l-1.7-5.7L51.8,17.9z M36.6,26.6l-3-11.8l-1.2-0.5l3.2,12.5L36.6,26.6z M35.7,27.8L35,29.4l0.1,0.5l3.4-0.9l-0.1-0.5
					l-1.3-1.1L35.7,27.8z"/>
			</g>
			<g>
				<defs>
					<path id="SVGID_2_" d="M51.3,16.1l19-14.3L47.1-0.6l-19,13L51.3,16.1z M51.8,17.9l-14.4-2.5l1.5,5.8l14.3,2.1l11.8-8.7
						l-1.7-5.7L51.8,17.9z M36.6,26.6l-3-11.8l-1.2-0.5l3.2,12.5L36.6,26.6z M35.7,27.8L35,29.4l0.1,0.5l3.4-0.9l-0.1-0.5l-1.3-1.1
						L35.7,27.8z"/>
				</defs>
				<clipPath id="SVGID_4_">
					<use xlink:href="#SVGID_2_"  overflow="visible"/>
				</clipPath>
				<path clip-path="url(#SVGID_4_)" fill="#FFFFFF" d="M33.5,35.7c14.1-3.6,28.1-7.1,42.2-10.7c-3-11.7-5.9-23.4-8.9-35.2
					C52.7-6.5,38.7-3,24.6,0.6C27.6,12.3,30.5,24,33.5,35.7z"/>
			</g>
		</g>
	</g>
	<path display="inline" fill="#FFFFFF" d="M92.5,24.9c0,0-0.5-3.5-2-5c-1.9-2-4.1-2-5.1-2.2c-7.1-0.5-17.9-0.5-17.9-0.5h0
		c0,0-0.6,0-1.5,0l0,0.1l-12,8.9l-11.4-1.6c0,0.2-0.1,0.3-0.1,0.3S42,29,42,33.1v3.8c0,4.1,0.5,8.2,0.5,8.2s0.5,3.5,2,5
		c1.9,2,4.5,2,5.6,2.2c4.1,0.4,17.3,0.5,17.3,0.5s10.7,0,17.9-0.5c1-0.1,3.2-0.1,5.1-2.2c1.5-1.5,2-5,2-5S93,41,93,36.9v-3.8
		C93,29,92.5,24.9,92.5,24.9z M61.8,45.9V26.1L78.9,36L61.8,45.9z"/>
</g>
<g id="Layer_10" display="none">
	<g id="homework_copy_14_2_" display="inline" enable-background="new    ">
		<g>
			<g>
				<path id="SVGID_3_" fill="#414042" d="M40.3,11.2l19-14.3L36.1-5.5l-19,13L40.3,11.2z M40.8,13l-14.4-2.5l1.5,5.8l14.3,2.1
					l11.8-8.7L52.2,4L40.8,13z M25.6,21.7l-3-11.8l-1.2-0.5l3.2,12.5L25.6,21.7z M24.7,22.9L24,24.5l0.1,0.5l3.4-0.9l-0.1-0.5
					l-1.3-1.1L24.7,22.9z"/>
			</g>
			<g>
				<defs>
					<path id="SVGID_5_" d="M40.3,11.2l19-14.3L36.1-5.5l-19,13L40.3,11.2z M40.8,13l-14.4-2.5l1.5,5.8l14.3,2.1l11.8-8.7L52.2,4
						L40.8,13z M25.6,21.7l-3-11.8l-1.2-0.5l3.2,12.5L25.6,21.7z M24.7,22.9L24,24.5l0.1,0.5l3.4-0.9l-0.1-0.5l-1.3-1.1L24.7,22.9z"
						/>
				</defs>
				<clipPath id="SVGID_6_">
					<use xlink:href="#SVGID_5_"  overflow="visible"/>
				</clipPath>
				<path clip-path="url(#SVGID_6_)" fill="#414042" d="M22.5,30.9c14.1-3.6,28.1-7.1,42.2-10.7c-3-11.7-5.9-23.4-8.9-35.2
					C41.7-11.4,27.7-7.8,13.6-4.3C16.6,7.4,19.5,19.1,22.5,30.9z"/>
			</g>
		</g>
	</g>
	<path display="inline" fill="#414042" d="M81.5,20c0,0-0.5-3.5-2-5c-1.9-2-4.1-2-5.1-2.2c-7.1-0.5-17.9-0.5-17.9-0.5h0
		c0,0-0.6,0-1.5,0l0,0.1l-12,8.9l-11.4-1.6c0,0.2-0.1,0.3-0.1,0.3S31,24.1,31,28.2v3.8c0,4.1,0.5,8.2,0.5,8.2s0.5,3.5,2,5
		c1.9,2,4.5,2,5.6,2.2c4.1,0.4,17.3,0.5,17.3,0.5s10.7,0,17.9-0.5c1-0.1,3.2-0.1,5.1-2.2c1.5-1.5,2-5,2-5s0.5-4.1,0.5-8.2v-3.8
		C82,24.1,81.5,20,81.5,20z M50.8,41V21.2l17.1,9.9L50.8,41z"/>
</g>
<g id="Layer_1_1_" display="none">
	<g display="inline">
		<g>
			<g>
				<polygon fill="#414042" points="71.3,-15.7 69.2,-6.3 74.9,-12.1 				"/>
			</g>
			<g>
				<polygon fill="#414042" points="81.2,-5.8 71.8,-3.7 77.6,-9.4 				"/>
			</g>
			<path fill="#414042" d="M46,16.4l3.3-3.3c-2.2-1-4.9-0.6-6.7,1.3c-2.4,2.4-2.4,6.2,0,8.6c2.4,2.4,6.2,2.4,8.6,0
				c1.8-1.8,2.2-4.5,1.3-6.7l-3.3,3.3H46l0,0l0,0V16.4z"/>
			<g>
				<path fill="#414042" d="M55.1,26.8c-4.5,4.5-11.8,4.5-16.3,0c-4.5-4.5-4.5-11.8,0-16.3c4-4,10.1-4.4,14.6-1.4l4.3-4.3
					c-6.9-5.4-16.9-4.9-23.2,1.5c-6.9,6.9-6.9,18,0,24.9c6.9,6.9,18,6.9,24.9,0c6.3-6.3,6.8-16.3,1.4-23.2l-4.3,4.3
					C59.5,16.6,59.1,22.8,55.1,26.8z"/>
			</g>
			<g>
				<path fill="#414042" d="M63.3,34.9c-9,9-23.6,9-32.7,0c-9-9-9-23.6,0-32.7c8.5-8.5,21.9-9,31-1.5l4.3-4.3
					C54.5-13.4,37.2-12.9,26.3-2c-11.4,11.4-11.4,29.9,0,41.2c11.4,11.4,29.9,11.4,41.2,0C78.4,28.4,78.9,11,69-0.4l-4.3,4.3
					C72.2,13,71.8,26.4,63.3,34.9z"/>
			</g>
		</g>
	</g>
</g>
<g id="Layer_3" display="none">
	<g display="inline">
		<g>
			<path fill="none" d="M71.9,12.4c-2,0-3.6,1.6-3.6,3.6c0,2,1.6,3.6,3.6,3.6c2,0,3.6-1.6,3.6-3.6S73.9,12.4,71.9,12.4z"/>
			<path fill="none" d="M55.6,12.9h-25c-4.4,0-7.9,4-7.9,9v12c0,5,3.5,9,7.9,9h25c4.4,0,7.9-4,7.9-9v-12
				C63.5,16.9,59.9,12.9,55.6,12.9z"/>
			<path fill="#414042" d="M68.6,6.1h-1.3H17.5V48h49.8h1.3h10.3V6.1H68.6z M63.5,33.8c0,5-3.5,9-7.9,9h-25c-4.4,0-7.9-4-7.9-9v-12
				c0-5,3.5-9,7.9-9h25c4.4,0,7.9,4,7.9,9V33.8z M71.7,27.1c-1.2,0-2.1-1-2.1-2.1c0-1.2,1-2.1,2.1-2.1c1.2,0,2.1,1,2.1,2.1
				C73.9,26.1,72.9,27.1,71.7,27.1z M71.9,19.6c-2,0-3.6-1.6-3.6-3.6s1.6-3.6,3.6-3.6c2,0,3.6,1.6,3.6,3.6S73.9,19.6,71.9,19.6z"/>
		</g>
		<polygon fill="#414042" points="42.2,6.6 38.5,8.9 27.3,-9.2 30.9,-11.5 		"/>
		<polygon fill="#414042" points="38.9,10.8 36.6,7.2 62.8,-9.2 65.1,-5.5 		"/>
	</g>
</g>
<g id="Layer_4" display="none">
	<g display="inline">
		<g>
			<polygon fill="#414042" points="52.6,-11.7 51.7,1.6 60.3,-0.1 62.3,-13.6 			"/>
			<polygon fill="#414042" points="67.8,-14.7 66.9,-1.4 76.7,-3.3 74.2,-15.9 			"/>
			<polygon fill="#414042" points="37.8,-8.8 36.9,4.5 45.1,2.9 47.1,-10.6 			"/>
			<polygon fill="#414042" points="17.5,-4.8 20,7.8 29.8,7.8 32.3,-7.7 			"/>
		</g>
		<g>
			<path fill="#414042" d="M19.7,10.6V48h57.8V10.6H19.7z M48.6,43c-7.6,0-13.7-6.1-13.7-13.7c0-7.6,6.1-13.7,13.7-13.7
				c7.6,0,13.7,6.1,13.7,13.7C62.3,36.9,56.2,43,48.6,43z"/>
		</g>
		<polygon fill="#414042" points="43.2,22.1 43.2,36.6 57,29.3 		"/>
	</g>
</g>
<g id="Layer_5" display="none">
	<g display="inline">
		<g>
			<path fill="#414042" d="M45.9,11.7v19.1c0,0.5,0.5,0.9,1.1,0.9h6.2c0.6,0,1.1-0.4,1.1-0.9V11.7c0-0.5-0.5-0.9-1.1-0.9H47
				C46.4,10.8,45.9,11.2,45.9,11.7z"/>
			<path fill="#414042" d="M57.9,4.7v26.1c0,0.5,0.5,0.9,1.1,0.9h6.2c0.6,0,1.1-0.4,1.1-0.9V4.7c0-0.5-0.5-0.9-1.1-0.9h-6.2
				C58.4,3.8,57.9,4.2,57.9,4.7z"/>
			<path fill="#414042" d="M34,18.6v12.2c0,0.5,0.5,0.9,1,0.9h6.2c0.6,0,1.1-0.4,1.1-0.9V18.6c0-0.5-0.5-0.9-1.1-0.9H35
				C34.4,17.7,34,18.1,34,18.6z"/>
			<g>
				<g>
					<rect x="55.8" y="37.6" fill="#414042" width="6.8" height="5.3"/>
					<rect x="35.9" y="37.6" fill="#414042" width="6.8" height="5.3"/>
					<rect x="22.1" y="22.4" fill="#414042" width="5.3" height="6.8"/>
					<rect x="45.9" y="37.6" fill="#414042" width="6.8" height="5.3"/>
					<rect x="22.1" y="2.4" fill="#414042" width="5.3" height="6.8"/>
					<path fill="#414042" d="M32.7,37.6h-5.2v-5.2h-5.3v7.9c0,1.5,1.2,2.7,2.7,2.7h7.9V37.6z"/>
					<rect x="22.1" y="12.4" fill="#414042" width="5.3" height="6.8"/>
					<g>
						<path fill="#414042" d="M79.7,39.6L73,32.9c-0.4-0.4-0.8-0.5-1-0.3c-0.1,0.1-0.2,0.4-0.2,0.8v4.2h-5.9v5.3h5.9l0,4.2
							c0,1,0.6,1.2,1.2,0.5l6.7-6.7C80.3,40.2,80.3,40.3,79.7,39.6z"/>
						<path fill="#414042" d="M25.4-14.7c-0.7-0.7-0.7-0.7-1.4,0L17.4-8c-0.4,0.4-0.5,0.8-0.3,1c0.1,0.1,0.4,0.2,0.8,0.2l4.2,0v5.9
							h5.3v-5.9h4.2c1,0,1.2-0.6,0.5-1.2L25.4-14.7z"/>
					</g>
				</g>
			</g>
		</g>
	</g>
</g>
<g id="Layer_6" display="none">
	<g display="inline">
		<g>
			<g>
				<path fill="#414042" d="M57,7.7c-5.4-5.4-14.2-5.4-19.6,0c-5.4,5.4-5.4,14.2,0,19.6c5.4,5.4,14.2,5.4,19.6,0
					C62.4,21.9,62.4,13.1,57,7.7z M40.3,24.3c-3.8-3.8-3.8-9.9,0-13.7c3.8-3.8,9.9-3.8,13.7,0c3.8,3.8,3.8,9.9,0,13.7
					C50.2,28.1,44.1,28.1,40.3,24.3z"/>
			</g>
			<g>
				<path fill="#414042" d="M35.5,28.9c-1.1-1.1-2.9-1.1-4,0l-0.1,0.2l4,4l0.1-0.1C36.6,31.8,36.6,30,35.5,28.9z M18.3,42.1
					c-1.1,1.1-1.1,2.9,0,4c1.1,1.1,2.9,1.1,4,0l11.8-11.8l-4-4L18.3,42.1z"/>
			</g>
		</g>
		<g>
			<g>
				<path fill="#414042" d="M50.6-3.4c0,0.5,0.4,0.9,0.9,0.9h18.6C70.6-2.6,71-3,71-3.4c0-0.5-0.4-0.9-0.9-0.9H51.5
					C51-4.3,50.6-3.9,50.6-3.4z M71-8.3c0-0.5-0.4-0.9-0.9-0.9H51.5c-0.5,0-0.9,0.4-0.9,0.9c0,0.5,0.4,0.9,0.9,0.9h18.6
					C70.6-7.4,71-7.8,71-8.3z M70.1,0.5h-18c1.6,0.3,3.2,0.9,4.7,1.7h13.3c0.5,0,0.9-0.4,0.9-0.9S70.6,0.5,70.1,0.5z M70.1,5.4h-9.2
					c0.5,0.6,1,1.1,1.5,1.7h7.8c0.5,0,0.9-0.4,0.9-0.9S70.6,5.4,70.1,5.4z M70.1,10.2h-5.9c0.3,0.6,0.5,1.1,0.7,1.7h5.2
					c0.5,0,0.9-0.4,0.9-0.9C71,10.6,70.6,10.2,70.1,10.2z M70.1,15h-4.5c0.1,0.6,0.1,1.2,0.2,1.7h4.3c0.5,0,0.9-0.4,0.9-0.9
					C71,15.4,70.6,15,70.1,15z"/>
			</g>
			<g>
				<path fill="#414042" d="M61.5,19.8h10.9c1,0,1.8-0.8,1.8-1.8v-28.8c0-1-0.8-1.9-1.8-1.9H49.2c-1,0-1.8,0.8-1.8,1.9V4.2
					c-1.1,0.1-2.2,0.3-3.3,0.7v-15.7c0-2.8,2.3-5.1,5.1-5.1h23.2c2.8,0,5.1,2.3,5.1,5.1v28.8c0,2.8-2.3,5.1-5.1,5.1h-12
					C60.9,22,61.3,20.9,61.5,19.8z"/>
			</g>
		</g>
	</g>
</g>
<g id="Layer_7" display="none">
	<path display="inline" fill="#414042" d="M25.2,23.4V48h16.2V29.1h16.2V48h16.2V23.4L49.5-0.9L25.2,23.4z M71.1,10.2V-8.7H60.3v8.1
		L49.5-11.4L17.1,21V21l2.8,2.8L49.5-5.7l29.6,29.5l2.8-2.8V21L71.1,10.2z"/>
</g>
<g id="Layer_8" display="none">
	<path display="inline" fill="#414042" d="M36.2-6.9c0,4.5-3.6,8.1-8.1,8.1c-4.5,0-8.1-3.6-8.1-8.1c0-4.5,3.6-8.1,8.1-8.1
		C32.6-15,36.2-11.4,36.2-6.9z"/>
	<rect x="33.3" y="-9.2" display="inline" fill="#414042" width="43.2" height="5.1"/>
	<rect x="33.3" y="14.4" display="inline" fill="#414042" width="43.2" height="5.1"/>
	<path display="inline" fill="#414042" d="M36.2,16.9c0,4.5-3.6,8.1-8.1,8.1c-4.5,0-8.1-3.6-8.1-8.1c0-4.5,3.6-8.1,8.1-8.1
		C32.6,8.8,36.2,12.4,36.2,16.9z"/>
	<path display="inline" fill="#414042" d="M36.2,39.9c0,4.5-3.6,8.1-8.1,8.1c-4.5,0-8.1-3.6-8.1-8.1c0-4.5,3.6-8.1,8.1-8.1
		C32.6,31.7,36.2,35.4,36.2,39.9z"/>
	<rect x="33.3" y="37.5" display="inline" fill="#414042" width="43.2" height="5.1"/>
</g>
<g id="Layer_11" display="none">
	<g display="inline">
		<path fill="#414042" d="M75.8-15.9H22.1c-2.8,0-5.1,2.3-5.1,5.1v53.7c0,2.8,2.3,5.1,5.1,5.1h53.7c2.8,0,5.1-2.3,5.1-5.1v-53.7
			C80.9-13.6,78.6-15.9,75.8-15.9z M29.9,41.7c0,1.2-1,2.1-2.1,2.1H23c-1.2,0-2.1-1-2.1-2.1V37c0-1.2,1-2.1,2.1-2.1h4.7
			c1.2,0,2.1,1,2.1,2.1V41.7z M29.9,30c0,1.2-1,2.1-2.1,2.1H23c-1.2,0-2.1-1-2.1-2.1v-4.7c0-1.2,1-2.1,2.1-2.1h4.7
			c1.2,0,2.1,1,2.1,2.1V30z M29.9,18.4c0,1.2-1,2.1-2.1,2.1H23c-1.2,0-2.1-1-2.1-2.1v-4.7c0-1.2,1-2.1,2.1-2.1h4.7
			c1.2,0,2.1,1,2.1,2.1V18.4z M29.9,6.8c0,1.2-1,2.1-2.1,2.1H23c-1.2,0-2.1-1-2.1-2.1V2.1c0-1.2,1-2.1,2.1-2.1h4.7
			c1.2,0,2.1,1,2.1,2.1V6.8z M29.9-4.9c0,1.2-1,2.1-2.1,2.1H23c-1.2,0-2.1-1-2.1-2.1v-4.7c0-1.2,1-2.1,2.1-2.1h4.7
			c1.2,0,2.1,1,2.1,2.1V-4.9z M77,41.7c0,1.2-1,2.1-2.1,2.1h-4.7c-1.2,0-2.1-1-2.1-2.1V37c0-1.2,1-2.1,2.1-2.1h4.7
			c1.2,0,2.1,1,2.1,2.1V41.7z M77,30c0,1.2-1,2.1-2.1,2.1h-4.7c-1.2,0-2.1-1-2.1-2.1v-4.7c0-1.2,1-2.1,2.1-2.1h4.7
			c1.2,0,2.1,1,2.1,2.1V30z M77,18.4c0,1.2-1,2.1-2.1,2.1h-4.7c-1.2,0-2.1-1-2.1-2.1v-4.7c0-1.2,1-2.1,2.1-2.1h4.7
			c1.2,0,2.1,1,2.1,2.1V18.4z M77,6.8c0,1.2-1,2.1-2.1,2.1h-4.7c-1.2,0-2.1-1-2.1-2.1V2.1c0-1.2,1-2.1,2.1-2.1h4.7
			c1.2,0,2.1,1,2.1,2.1V6.8z M77-4.9c0,1.2-1,2.1-2.1,2.1h-4.7c-1.2,0-2.1-1-2.1-2.1v-4.7c0-1.2,1-2.1,2.1-2.1h4.7
			c1.2,0,2.1,1,2.1,2.1V-4.9z"/>
	</g>
</g>
<g id="Layer_16" display="none">
	<path display="inline" fill="#414042" d="M66.1,12.7c-1-1-1.7-1.7-2.6-2.7c1.9-1.7,3.8-3.5,5.8-5.3C64,0,58.2-2.6,51.3-3
		c0,2.7,0,5.3,0,8c-1.2,0-2.2,0-3.4,0c0-2.6,0-5.2,0-7.8C42.7-3.3,35-0.1,30,4.5c1.9,1.7,3.8,3.5,5.7,5.2c-1.2,1-2,1.8-2.9,2.5
		c-1.5-1.6-3.3-3.5-5-5.3c-4.2,3.9-7.6,12.3-7.3,17.9c2.4,0,4.9,0,7.4,0c0,1.2,0,2.3,0,3.4c-3,0-6.1,0-9.4,0
		c-0.5-10.5,3.1-19.3,11.2-26c10.2-8.3,23.6-9.5,34.9-3.3c10.5,5.7,17.1,17.7,16,29.3c-3.1,0-6.2,0-9.3,0c0-1,0-2,0-3.2
		c2.4,0,4.9,0,7.2,0c0.7-4.2-2.6-14-7.2-18.1C69.6,8.8,67.9,10.7,66.1,12.7z"/>
	<path display="inline" fill="#ED1C24" d="M66.8,15.5c-1.7,1.7-3.4,3.4-5.1,5.1c-3,2.9-6.1,5.7-9.2,8.5c-1.2,1.1-2.7,1.3-4.1,0.6
		c-1.3-0.6-2.1-1.8-2.1-3.3c0-1.6,0.7-2.8,2.3-3.5c4.8-2,9.6-4,14.4-5.9c1.2-0.5,2.5-1.1,3.7-1.7C66.7,15.4,66.7,15.5,66.8,15.5z"/>
</g>
<g id="Layer_17" display="none">
	<path display="inline" fill="#414042" d="M49.7,8.8c-3.4,0-6.8,0-10.2,0c-1.8,0-3.6-0.4-3.4-2.8c0.1-2.2,1.8-2.4,3.5-2.4
		c6.7,0,13.5,0,20.2,0c1.7,0,3.7,0.1,3.7,2.5c0.1,2.6-1.9,2.7-3.8,2.7C56.4,8.8,53,8.8,49.7,8.8C49.7,8.8,49.7,8.8,49.7,8.8z"/>
	<path display="inline" fill="#414042" d="M49.7,28.3c-3.5,0-7,0-10.5,0c-1.9,0-3.3-0.6-3.2-2.7c0.1-1.9,1.5-2.4,3.2-2.4
		c7,0,14.1,0,21.1,0c1.7,0,3.1,0.5,3.2,2.4c0.1,2.1-1.3,2.7-3.2,2.7C56.8,28.3,53.2,28.3,49.7,28.3z"/>
	<path display="inline" fill="#414042" d="M49.7,13.4c3.4,0,6.8,0,10.3,0c1.7,0,3.4,0.2,3.5,2.4c0.1,2.3-1.6,2.7-3.5,2.7
		c-6.8,0-13.7,0-20.5,0c-1.9,0-3.5-0.4-3.5-2.8c0.1-2.2,1.7-2.4,3.5-2.4C42.9,13.5,46.3,13.5,49.7,13.4
		C49.7,13.4,49.7,13.4,49.7,13.4z"/>
	<g display="inline">
		<path fill="#414042" d="M71-9.6l-6.2,6.2c-0.8,0.8-0.8,2.1,0,3c0.8,0.8,2.1,0.8,3,0l2.6-2.6v19.6c0,1.2,0.9,2.1,2.1,2.1
			c1.2,0,2.1-0.9,2.1-2.1V-3.1l2.6,2.6c0.8,0.8,2.2,0.8,3,0c0.4-0.4,0.6-0.9,0.6-1.5c0-0.5-0.2-1.1-0.6-1.5l-6.2-6.2
			c-0.2-0.2-0.4-0.4-0.7-0.5c-0.3-0.1-0.5-0.2-0.8-0.2C71.9-10.3,71.4-10.1,71-9.6z"/>
	</g>
	<g display="inline">
		<path fill="#414042" d="M28.6,41.7l6.2-6.2c0.8-0.8,0.8-2.1,0-3c-0.8-0.8-2.1-0.8-3,0l-2.6,2.6V15.5c0-1.2-0.9-2.1-2.1-2.1
			c-1.2,0-2.1,0.9-2.1,2.1v19.6l-2.6-2.6c-0.8-0.8-2.1-0.8-3,0c-0.4,0.4-0.6,0.9-0.6,1.5c0,0.5,0.2,1.1,0.6,1.5l6.2,6.2
			c0.2,0.2,0.4,0.4,0.7,0.5c0.2,0.1,0.5,0.2,0.8,0.2C27.7,42.3,28.2,42.1,28.6,41.7z"/>
	</g>
</g>
<g id="Layer_18" display="none">
	<path display="inline" fill="#414042" d="M45.1,30.1c0,2,0.1,4,0,6.1c-0.2,3.1-1.8,4.8-4.9,4.9c-3.8,0.1-7.7,0.1-11.5,0
		c-3.4-0.1-5.1-2-5.2-5.4c-0.1-3.7-0.1-7.5,0.1-11.2c0.1-3.5,1.8-5.1,5.3-5.1c3.7,0,7.5-0.1,11.2,0c3.4,0,4.9,1.6,5.1,5
		c0,0.2,0,0.4,0,0.6C45.2,26.7,45.2,28.4,45.1,30.1C45.2,30.1,45.2,30.1,45.1,30.1z"/>
	<path display="inline" fill="#414042" d="M34.6-9.2c1.9,0,3.8-0.1,5.8,0c3,0.1,4.7,1.7,4.8,4.7c0.1,4,0.1,8.1,0,12.1
		c-0.1,3.1-1.8,4.8-5,4.9c-3.8,0.1-7.7,0.1-11.5,0c-3.3-0.1-5-1.8-5.1-5.1c-0.1-3.8-0.2-7.7,0-11.5c0.1-3.5,1.9-5.1,5.4-5.1
		C30.8-9.2,32.7-9.2,34.6-9.2z"/>
	<path display="inline" fill="#414042" d="M64.1,41.1c-2.8,0-5.6,0-8.5,0c-2.5,0-3.6-1.4-3.6-3.9c0-2.4,1.1-3.8,3.6-3.8
		c5.6,0,11.3,0,16.9,0c2.5,0,3.5,1.3,3.5,3.8c0,2.5-1.1,3.8-3.6,3.8C69.7,41.2,66.9,41.1,64.1,41.1z"/>
	<path display="inline" fill="#414042" d="M63.8,12.6c-2.7,0-5.5,0-8.2,0c-2.5,0-3.6-1.4-3.6-3.9c0-2.5,1.2-3.8,3.7-3.8
		c5.6,0,11.1,0,16.7,0c2.4,0,3.7,1.2,3.7,3.7c0.1,2.7-1.3,3.9-3.8,4C69.5,12.7,66.6,12.6,63.8,12.6C63.8,12.6,63.8,12.6,63.8,12.6z"
		/>
	<path display="inline" fill="#414042" d="M64.1,26.7c-2.8,0-5.7-0.1-8.5,0C52.9,26.8,52,25.3,52,23c0-2.2,0.9-3.6,3.4-3.6
		c5.8,0,11.5,0,17.3,0c2.5,0,3.4,1.3,3.4,3.6c0,2.4-0.9,3.8-3.5,3.8C69.7,26.7,66.9,26.7,64.1,26.7z"/>
	<path display="inline" fill="#414042" d="M63.8-1.8c-2.7,0-5.5-0.1-8.2,0C53-1.7,52-3.1,52-5.5c0-2.3,0.9-3.6,3.4-3.6
		c5.8,0,11.5,0,17.3,0c2.5,0,3.4,1.3,3.4,3.6c0,2.4-0.8,3.8-3.5,3.8C69.7-1.9,66.7-1.8,63.8-1.8z"/>
</g>
<g id="Layer_19">
	<g>
		<g>
			<g>
				<g>
					<rect x="56.2" y="37.2" fill="#FFFFFF" width="6.8" height="5.3"/>
					<rect x="36.3" y="37.2" fill="#FFFFFF" width="6.8" height="5.3"/>
					<rect x="22.5" y="21.9" fill="#FFFFFF" width="5.3" height="6.8"/>
					<rect x="46.3" y="37.2" fill="#FFFFFF" width="6.8" height="5.3"/>
					<rect x="22.5" y="2" fill="#FFFFFF" width="5.3" height="6.8"/>
					<path fill="#FFFFFF" d="M33.1,37.2h-5.2v-5.2h-5.3v7.9c0,1.5,1.2,2.7,2.7,2.7h7.9V37.2z"/>
					<rect x="22.5" y="12" fill="#FFFFFF" width="5.3" height="6.8"/>
					<g>
						<path fill="#FFFFFF" d="M80.1,39.1l-6.7-6.7c-0.4-0.4-0.8-0.5-1-0.3c-0.1,0.1-0.2,0.4-0.2,0.8v4.2h-5.9v5.3h5.9v4.2
							c0,1,0.6,1.2,1.2,0.5l6.7-6.7C80.8,39.8,80.8,39.8,80.1,39.1z"/>
						<path fill="#FFFFFF" d="M25.9-15c-0.7-0.7-0.7-0.7-1.4,0l-6.7,6.7c-0.4,0.4-0.5,0.8-0.3,1c0.1,0.1,0.4,0.2,0.8,0.2l4.2,0v5.9
							h5.3v-5.9H32c1,0,1.2-0.6,0.5-1.2L25.9-15z"/>
					</g>
				</g>
			</g>
		</g>
	</g>
</g>
<text transform="matrix(1 0 0 1 37.0155 30.1737)" fill="#FFFFFF" font-family="'Arial-Black'" font-size="45.954">+</text>
</svg>
