<?xml version="1.0" encoding="utf-8"?>
<!-- Generator: Adobe Illustrator 18.1.1, SVG Export Plug-In . SVG Version: 6.00 Build 0)  -->
<!DOCTYPE svg PUBLIC "-//W3C//DTD SVG 1.1//EN" "http://www.w3.org/Graphics/SVG/1.1/DTD/svg11.dtd">
<svg version="1.1" id="Layer_1" xmlns="http://www.w3.org/2000/svg" xmlns:xlink="http://www.w3.org/1999/xlink" x="0px" y="0px"
	 viewBox="0 0 841.9 595.3" enable-background="new 0 0 841.9 595.3" xml:space="preserve">
<g id="Layer_2" display="none">
	<rect x="19.4" y="-87.6" display="inline" fill="#00A651" width="1044.5" height="843.6"/>
</g>
<g id="explode_your_income" display="none">
	<path display="inline" fill="#414042" d="M420.3,123.5c-11.2,0.9-15.8-7.4-21.4-16.7c-0.9,4.7-0.9,7.4-0.9,11.2
		c-0.9,1.9-1.9,3.7-3.7,4.7c-0.9,0-3.7-0.9-4.7-2.8c-4.7-7.4-9.3-14.9-13-23.3c-4.7-10.2-9.3-21.4-14.9-33.5
		c4.7,20.5,10.2,38.1,14,56.7c0.9,3.7,0,9.3-0.9,13c-3.7-1.9-8.4-3.7-12.1-5.6c-0.9,0-0.9-0.9-1.9-0.9c1.9,5.6,2.8,10.2,3.7,15.8
		c0.9,3.7,0,7.4-5.6,7.4c-0.9,0-1.9,1.9-2.8,3.7c18.6-2.8,32.6,2.8,44.6,16.7c1.9,1.9,5.6,2.8,9.3,2.8c7.4,0.9,13,3.7,15.8,10.2
		c1.9,3.7,0,9.3-1.9,13c-0.9-10.2-4.7-16.7-12.1-17.7c-8.4-1.9-16.7,4.7-23.3,18.6c-1.9-7.4,0.9-14,9.3-22.3
		c-9.3-12.1-21.4-15.8-36.3-14.9c-10.2,0.9-14.9,6.5-20.5,21.4c-5.6-0.9-11.2-3.7-15.8-3.7c-26-2.8-43.7,18.6-36.3,44.6
		c2.8,9.3,7.4,18.6,11.2,27.9c-4.7-7.4-9.3-14.9-14.9-23.3c-8.4,6.5-14.9,14.9-15.8,25.1c0,10.2,3.7,20.5,5.6,31.6
		c-4.7-9.3-8.4-16.7-13-25.1c-12.1,0.9-21.4,7.4-27,18.6c-7.4,14,0,25.1,10.2,35.3c-17.7,9.3-31.6,21.4-27,43.7
		c4.7,20.5,24.2,37.2,41.9,38.1c2.8-8.4,6.5-15.8,15.8-19.5c-0.9,0.9-1.9,2.8-3.7,3.7c-9.3,10.2-8.4,20.5,3.7,27.9
		c9.3,5.6,19.5,8.4,30.7,8.4c1.9,0,4.7-2.8,5.6-4.7c2.8-6.5,5.6-13,7.4-19.5c0.9,0,1.9,0.9,2.8,0.9c-9.3,23.3-17.7,46.5-27,70.7
		c9.3-11.2,17.7-21.4,27-32.6c2.8-2.8,5.6-5.6,8.4-8.4c1.9-0.9,4.7-1.9,6.5-1.9c0,1.9,1.9,4.7,0.9,6.5c-3.7,12.1-7.4,23.3-12.1,35.3
		c-4.7,12-9.3,23.3-14.9,36.3c10.2-14.9,20.5-28.8,30.7-42.8c1.9-2.8,4.7-5.6,7.4-8.4c4.7-3.7,7.4-1.9,7.4,3.7
		c0,3.7-0.9,7.4-0.9,11.2c4.7-3.7,9.3-8.4,14.9-12.1c0.9,0.9,1.9,0.9,1.9,1.9c0,21.4-7.4,40.9-13,62.3c0.9-1.9,1.9-2.8,2.8-3.7
		c0.9-0.9,0.9-2.8,1.9-3.7c9.3-14.9,17.7-29.8,27-44.6c2.8-4.7,6.5-9.3,13-9.3c0,0.9,0,1.9-0.9,1.9c-15.8,14.9-14.9,15.8,0,29.8
		c13,12.1,28.8,20.5,48.4,13c6.5-2.8,12.1-7.4,18.6-12.1c14.9,8.4,31.6,10.2,48.4,1.9c16.7-8.4,22.3-20.5,19.5-44.6
		c6.5,4.7,12.1,3.7,16.7-1.9c7.4-8.4,6.5-13-1.9-26c9.3,3.7,13,11.2,11.2,19.5c-2.8,10.2-11.2,16.7-21.4,15.8c0,5.6,0,12.1-0.9,17.7
		c-3.7,20.5-27,35.3-47.4,30.7c-7.4-0.9-14-4.7-20.5-6.5c-1.9-0.9-4.7-0.9-5.6,0.9c-25.1,22.3-55.8,18.6-74.4-10.2
		c-1.9-2.8-2.8-4.7-5.6-9.3c-16.7,32.6-32.6,64.2-48.4,94.9h-0.9c4.7-17.7,10.2-34.4,14-52.1c4.7-17.7,8.4-35.3,12.1-53
		c-0.9,0-1.9-0.9-1.9-0.9c-6.5,7.4-14,15.8-22.3,24.2c3.7-12.1,6.5-22.3,9.3-31.6c-0.9,0-1.9-0.9-2.8-0.9
		c-27,33.5-46.5,71.6-68.8,107.9c16.7-41.9,33.5-83.7,50.2-126.5c-0.9-0.9-1.9-0.9-2.8-1.9c-12.1,14.9-24.2,28.8-35.3,43.7
		c-11.2,14.9-22.3,29.8-34.4,43.7c9.3-15.8,18.6-32.6,27-48.4c8.4-16.7,15.8-33.5,23.3-49.3c-11.2-2.8-20.5-4.7-29.8-6.5
		c-3.7-0.9-9.3-3.7-11.2-7.4c-4.7-6.5-10.2-8.4-17.7-9.3c-20.5-3.7-29.8-19.5-37.2-37.2c-5.6-14-2.8-27.9,8.4-37.2
		c3.7-3.7,8.4-5.6,12.1-8.4c1.9-0.9,3.7-1.9,5.6-2.8c-2.8-2.8-4.7-5.6-6.5-8.4c-12.1-17.7-6.5-36.3,13-44.6c4.7-1.9,9.3-1.9,14-3.7
		c1.9-0.9,4.7-2.8,5.6-4.7c1.9-9.3,7.4-17.7,14.9-23.3c4.7-2.8,5.6-5.6,4.7-11.2c-1.9-10.2-0.9-19.5,4.7-28.8
		c11.2-15.8,25.1-20.5,42.8-14.9c2.8,0.9,4.7,1.9,7.4,2.8c2.8-2.8,4.7-6.5,7.4-10.2c2.8-3.7,5.6-6.5,9.3-11.2
		c-1.9-4.7-3.7-12.1-6.5-20.5c4.7,4.7,8.4,7.4,11.2,11.2c0.9,0,1.9-0.9,2.8-0.9c-3.7-12.1-7.4-23.3-11.2-35.3l0.9-0.9
		c5.6,6.5,11.2,14,17.7,20.5c0.9-0.9,2.8-1.9,3.7-2.8c-7.5-38.9-19.6-77.9-28.9-117c14.9,36.3,27.9,72.5,48.4,105.1
		c0-13,0-26,0-40.9C399.8,91.9,399.8,114.2,420.3,123.5L420.3,123.5z"/>
	<path display="inline" fill="#414042" d="M420.3,123.5c7.4-4.7,14.9-11.2,22.3-14c21.4-6.5,49.3,10.2,54.9,33.5
		c1.9,5.6,3.7,7.4,9.3,9.3c11.2,2.8,17.7,11.2,20.5,22.3c0.9,2.8,0.9,4.7,1.9,7.4c7.4,1.9,14.9,2.8,22.3,3.7c1.9,0,4.7-2.8,7.4-3.7
		c5.6-2.8,11.2-5.6,17.7-8.4c-2.8,2.8-5.6,6.5-7.4,9.3c1.9,0.9,3.7,1.9,6.5,2.8c-5.6,0.9-9.3,0.9-14.9,1.9c4.7,3.7,9.3,6.5,13,9.3
		c11.2,11.2,16.7,24.2,15.8,40.9c0,2.8,0.9,6.5,2.8,8.4c6.5,7.4,8.4,14,3.7,23.3c-1.9,3.7-1.9,5.6,0.9,8.4
		c15.8,18.6,11.2,40.9-11.2,52.1c-6.5,2.8-13,4.7-20.5,7.4c1.9,2.8,3.7,5.6,6.5,7.4c25.1,19.5,51.2,38.1,76.3,56.7
		c7.4,5.6,14.9,10.2,22.3,15.8c-34.4-15.8-67-35.3-103.2-49.3c-0.9,0.9-0.9,0.9-1.9,1.9c1.9,2.8,3.7,6.5,6.5,9.3
		c14.9,14,29.8,27.9,44.6,40.9c1.9,1.9,3.7,2.8,4.7,5.6c-16.7-10.2-33.5-20.5-50.2-31.6L570,395c3.7,4.7,6.5,8.4,11.2,14.9
		c-12.1-3.7-20.5-14-33.5-11.2c3.7-5.6,5.6-5.6,15.8-1.9c0-2.8-0.9-6.5-0.9-9.3c4.7,0.9,8.4,1.9,13,2.8c-3.7-3.7-6.5-7.4-10.2-11.2
		c-1.9-1.9-3.7-4.7-4.7-7.4c-0.9-2.8-0.9-6.5,0-8.4c0.9-1.9,5.6-1.9,7.4-0.9c6.5,1.9,12.1,3.7,17.7,6.5c1.9,0.9,3.7,0.9,5.6,0.9
		c-9.3-7.4-17.7-14.9-27.9-23.3c-4.7,6.5-11.2,9.3-21.4,7.4c7.4-3.7,16.7-5.6,17.7-15.8c-2.8,0-5.6,0-8.4-0.9
		c9.3-3.7,18.6-6.5,27.9-10.2c8.4-3.7,14.9-9.3,17.7-18.6c4.7-13,1.9-24.2-8.4-33.5c9.3-18.6,4.7-25.1-25.1-34.4c6.5,0,13,0,18.6,0
		c5.6-23.3-23.3-53-51.2-53.9c-4.7,7.4-8.4,14-12.1,20.5c-0.9,0-1.9-0.9-1.9-0.9c5.6-12.1,10.2-24.2,3.7-37.2
		c-7.4-13-18.6-16.7-32.6-16.7c2.8-0.9,4.7-1.9,8.4-2.8c-5.6-16.7-17.7-27-33.5-33.5c-16.7-6.5-30.7-0.9-44.6,10.2
		C418.4,126.3,419.3,125.4,420.3,123.5L420.3,123.5z"/>
	<path display="inline" fill="#414042" d="M441.7,253.7c2.8-14,4.7-27.9,7.4-41.9h0.9c2.8,15.8,4.7,31.6,7.4,47.4c0.9,0,1.9,0,1.9,0
		c4.7-22.3,9.3-43.7,14-66c0.9,0,0.9,0,1.9,0c0,4.7-0.9,8.4-0.9,13c0,9.3,0.9,19.5,0.9,28.8c0.9,8.4,1.9,9.3,10.2,6.5
		c0.9,0,2.8-0.9,3.7-0.9c0,0.9,0.9,1.9,0.9,2.8c-4.7,1.9-9.3,5.6-14.9,5.6c-2.8,0-4.7-5.6-6.5-8.4c-2.8,9.3-5.6,20.5-8.4,31.6
		c-0.9,0-1.9,0-2.8,0c-6.5-7.4-4.7-18.6-8.4-27.9c-1.9,4.7-2.8,8.4-3.7,12.1c-2.8,6.5-7.4,7.4-11.2,0.9c-1.9-1.9-2.8-4.7-3.7-6.5
		c-0.9-1.9-1.9-4.7-3.7-8.4c0,4.7-0.9,8.4-0.9,11.2c-0.9,4.7-3.7,5.6-6.5,1.9c-3.7-4.7-7.4-10.2-11.2-15.8c0.9-0.9,0.9-0.9,1.9-1.9
		c3.7,3.7,6.5,7.4,11.2,12.1c0-12.1,0-22.3,0-32.6h0.9c5.6,12.1,11.2,24.2,15.8,37.2C438.9,253.7,440.7,253.7,441.7,253.7z"/>
	<path display="inline" fill="#414042" d="M333.8,374.7c1.9-4.7,2.8-9.3,3.7-14c0.9,0,0.9,0,1.9,0c0,9.3,2.8,18.6,13,22.3
		c-0.9,0.9-0.9,1.9-1.9,2.8c-4.7-1.9-9.3-4.7-14.9-6.5c-23.3,6.5-43.7-3.7-47.4-27c-0.9-4.7,0-10.2,1.9-14.9
		c1.9-4.7,2.8-7.4-1.9-12.1c-7.4-8.4-8.4-18.6-4.7-29.8c3.7-9.3,11.2-13,20.5-14.9c-8.4,5.6-14.9,12.1-16.7,22.3
		c-0.9,10.2,1.9,18.6,9.3,26c-6.5,13-5.6,26,5.6,36.3C312.4,373.7,321.7,379.3,333.8,374.7z"/>
	<path display="inline" fill="#414042" d="M517.9,307.7c3.7,6.5,7.4,11.2,9.3,16.7c2.8,11.2-2.8,19.5-14,24.2
		c-4.7,1.9-8.4,3.7-10.2,8.4c-1.9,2.8-6.5,4.7-10.2,6.5c9.3-8.4,9.3-18.6,7.4-29.8c0.9,0,0.9,0,1.9,0c1.9,3.7,3.7,8.4,4.7,12.1
		c9.3-2.8,13-9.3,13-19.5c0-8.4-2.8-12.1-10.2-14.9c17.7-24.2,10.2-40-24.2-50.2c9.3-3.7,24.2,0,32.6,9.3
		C528.2,282.6,528.2,290,517.9,307.7z"/>
	<path display="inline" fill="#414042" d="M578.4,195.1c9.3,2.8,17.7,7.4,24.2-0.9c5.6-7.4,4.7-15.8,0-21.4c3.7-3.7,7.4-4.7,7.4-7.4
		c1.9-6.5,2.8-13-2.8-17.7c-5.6-5.6-13-9.3-22.3-7.4c0,5.6,1.9,12.1-7.4,15.8c5.6-7.4,3.7-12.1-1.9-15.8c-4.7-3.7-11.2-6.5-16.7-2.8
		c-9.3,5.6-8.4,14-4.7,24.2c-7.4-6.5-8.4-15.8-3.7-23.3c4.7-7.4,14.9-10.2,22.3-5.6c4.7,2.8,8.4,3.7,14,2.8
		c10.2-1.9,18.6,2.8,25.1,10.2c6.5,8.4,2.8,16.7-1.9,25.1c-0.9,1.9-1.9,4.7-1.9,6.5c2.8,9.3,0,19.5-6.5,23.3
		C597.9,205.4,588.6,203.5,578.4,195.1z"/>
	<path display="inline" fill="#414042" d="M262.2,174.7c4.7-8.4,2.8-18.6-4.7-22.3c-9.3-4.7-17.7,0.9-23.3,13
		c1.9,0.9,3.7,0.9,3.7,0.9c-4.7,3.7-11.2,6.5-14.9,12.1c-3.7,4.7,2.8,14.9,8.4,14.9c4.7,14.9,11.2,17.7,25.1,12.1
		c-0.9,4.7-3.7,7.4-8.4,7.4c-7.4,0.9-13-0.9-17.7-7.4c-2.8-3.7-4.7-7.4-7.4-10.2c-8.4-8.4-8.4-24.2,3.7-27.9
		c1.9-0.9,2.8-3.7,3.7-5.6c2.8-3.7,4.7-8.4,7.4-12.1c6.5-7.4,13-8.4,21.4-3.7c8.4,5.6,13,16.7,10.2,24.2c-0.9,2.8-3.7,4.7-5.6,6.5
		C263.1,175.6,263.1,174.7,262.2,174.7z"/>
	<path display="inline" fill="#414042" d="M433.3,363.5c-8.4-6.5-8.4-13-4.7-19.5c1.9,4.7,2.8,10.2,5.6,14c2.8,2.8,8.4,2.8,14,4.7
		c-0.9,0.9-2.8,2.8-4.7,2.8c-6.5-0.9-9.3,3.7-13,7.4c-7.4,7.4-20.5,5.6-27.9-3.7c-1.9-2.8-3.7-5.6-5.6-8.4
		c-20.5,2.8-31.6-0.9-36.3-14c-2.8-9.3,1.9-18.6,13-26c-5.6,10.2-13,18.6-3.7,28.8c7.4,8.4,14.9,9.3,27.9,4.7
		c4.7,9.3,11.2,16.7,23.3,16.7C424.9,370,428.6,366.3,433.3,363.5z"/>
	<path display="inline" fill="#414042" d="M448.2,384c0.9-6.5,1.9-12.1,2.8-18.6c0,0,0,0,0.9,0c0,14.9,0,29.8,0,45.6
		c-0.9,0-0.9,0-1.9,0c-2.8-9.3-4.7-19.5-8.4-30.7c-2.8,6.5-5.6,11.2-7.4,15.8c-0.9,0-0.9-0.9-1.9-0.9c2.8-7.4,5.6-15.8,8.4-23.3
		c0.9,0,1.9,0,2.8,0C444.5,376.5,446.3,380.2,448.2,384z"/>
	<path display="inline" fill="#414042" d="M381.2,282.6c-6.5-3.7-8.4-9.3-6.5-15.8c1.9-8.4,8.4-11.2,18.6-11.2
		c1.9-5.6,4.7-10.2,11.2-9.3c-2.8,4.7-6.5,9.3-8.4,13c-4.7,0.9-10.2,0.9-14,3.7C376.6,267.7,377.5,275.1,381.2,282.6z"/>
	<path display="inline" fill="#414042" d="M257.5,173.7c3.7,11.2,11.2,18.6,23.3,20.5C268.7,199.8,255.6,188.6,257.5,173.7z"/>
	<path display="inline" fill="#414042" d="M547.7,183c6.5-5.6,12.1-12.1,17.7-16.7C566.3,174.7,558.9,182.1,547.7,183z"/>
	<path display="inline" fill="#414042" d="M272.4,205.4c-7.4-1.9-14.9-3.7-22.3-5.6C255.6,196.1,264,197.9,272.4,205.4z"/>
</g>
<g id="maximize_your_budget" display="none">
	<g display="inline">
		<path fill="#414042" d="M377.5,236.1c63.2,0,115.3-18.6,118.1-42.8c0-0.9,0-0.9,0-1.9l0,0v-29.8c0-25.1-53-45.6-118.1-45.6
			s-118.1,20.5-118.1,45.6v30.7l0,0C259.4,216.5,312.4,236.1,377.5,236.1z M319.8,224c-5.6-0.9-11.2-2.8-15.8-3.7V197
			c4.7,1.9,10.2,2.8,15.8,4.7V224z M351.4,228.6c-5.6,0-11.2-0.9-15.8-1.9v-23.3c5.6,0.9,10.2,1.9,15.8,1.9V228.6z M384,229.6
			c-1.9,0-4.7,0-6.5,0c-2.8,0-6.5,0-9.3,0v-22.3c2.8,0,6.5,0,9.3,0c1.9,0,4.7,0,6.5,0V229.6L384,229.6z M480.7,205.4
			c-2.8,2.8-7.4,5.6-12.1,8.4v-24.2c4.7-1.9,8.4-4.7,12.1-7.4V205.4z M377.5,125.4c56.7,0,102.3,15.8,102.3,35.3
			S434.2,196,378.4,196s-102.3-15.8-102.3-35.3S321.7,125.4,377.5,125.4z M271.5,180.3c3.7,3.7,9.3,7.4,15.8,10.2v24.2
			c-6.5-2.8-14-7.4-15.8-10.2V180.3z"/>
		<path fill="#414042" d="M336.6,180.3c6.5,4.7,19.5,6.5,33.5,7.4v3.7c0,0.9,0.9,0.9,2.8,0.9h10.2c1.9,0,2.8-0.9,2.8-0.9v-3.7
			c9.3-0.9,16.7-1.9,22.3-3.7c9.3-3.7,14-9.3,9.3-14.9c-4.7-5.6-18.6-8.4-31.6-10.2v-18.6c1.9,0,2.8,0,4.7,0.9
			c3.7,0.9,9.3,1.9,12.1,3.7c0.9,0,0.9,0,1.9,0.9c0,0,0,0,0.9,0l0,0c0,0,0.9,0,0.9,0.9c4.7,2.8,16.7-1.9,13-4.7
			c-4.7-2.8-15.8-5.6-24.2-7.4c-2.8,0-5.6-0.9-8.4-0.9V130c0-0.9-0.9-0.9-2.8-0.9h-10.2c-1.9,0-2.8,0.9-2.8,0.9v3.7
			c-9.3,0.9-17.7,1.9-23.3,4.7c-9.3,3.7-12.1,10.2-6.5,14.9c2.8,1.9,6.5,4.7,12.1,5.6c2.8,0.9,10.2,1.9,18.6,3.7v17.7
			c-1.9,0-3.7,0-5.6-0.9c-3.7-0.9-9.3-1.9-12.1-2.8c-0.9,0-0.9,0-1.9-0.9c0,0,0,0-0.9,0l0,0c0,0-0.9,0-0.9-0.9
			C344.9,172.8,331.9,177.5,336.6,180.3z M386.8,166.3c3.7,0.9,6.5,0.9,7.4,1.9c4.7,0.9,5.6,1.9,8.4,3.7c2.8,2.8,0.9,5.6-3.7,7.4
			c-3.7,0.9-7.4,1.9-12.1,1.9L386.8,166.3L386.8,166.3z M367.3,154.2c-5.6-0.9-9.3-1.9-12.1-3.7c-3.7-2.8-2.8-6.5,1.9-8.4
			c3.7-0.9,8.4-1.9,13-2.8v14.9C368.2,155.1,367.3,154.2,367.3,154.2z"/>
		<path fill="#414042" d="M254.7,238.9L254.7,238.9c0,11.2,12.1,21.4,30.7,29.8l10.2-11.2c0.9-0.9,1.9-1.9,2.8-2.8v-11.2
			c4.7,1.9,9.3,2.8,14.9,3.7c2.8-0.9,5.6-0.9,8.4-0.9c6.5,0,13,1.9,18.6,5.6c1.9,0,3.7,0.9,6.5,0.9v3.7l15.8,14v-16.7
			c2.8,0,6.5,0,9.3,0c1.9,0,4.7,0,6.5,0V277c-1.9,0-4.7,0-6.5,0c-0.9,0-0.9,0-1.9,0l7.4,6.5c61.4-0.9,109.8-19.5,112.5-42.8
			c0-0.9,0-0.9,0-1.9l0,0v-21.4c-22.3,18.6-67.9,27.9-112.5,27.9c-53,0-107.9-14-122.8-39.1c0,0.9,0,1.9,0,3.7v0.9v28.1H254.7z
			 M464,240.7c2.8-0.9,9.3-3.7,12.1-5.6v17.7c-2.8,2.8-7.4,5.6-12.1,8.4V240.7z M265.9,226.8c3.7,3.7,9.3,7.4,15.8,10.2v24.2
			c-6.5-2.8-14-7.4-15.8-10.2V226.8z"/>
		<path fill="#414042" d="M425.9,403.5v-4.7v-0.9c0-1.9,0-2.8,0.9-4.7c0.9-2.8,2.8-5.6,5.6-6.5c0-0.9,0-2.8-0.9-3.7
			c0-0.9,0-0.9,0-1.9v-28.8v-0.9c0-0.9,0-1.9,0-3.7l-95.8-80.9c-9.3-7.4-22.3-7.4-30.7,1.9L142.2,433.3c-9.3,9.3-8.4,24.2,0,33.5
			c9.3,9.3,23.3,9.3,32.6,0l147.9-150.7L425.9,403.5z"/>
		<path fill="#414042" d="M725.4,124.4c-4.7-4.7-10.2-6.5-15.8-4.7L585,143c-10.2,1.9-16.7,12.1-14.9,22.3
			c1.9,10.2,11.2,16.7,21.4,14.9l54.9-10.2l2.8,1.9L537.5,295.6c6.5-0.9,14-0.9,21.4-0.9c14,0,27,0.9,39.1,2.8l86.5-95.8l0.9,0.9
			l-8.4,62.3c-0.9,10.2,5.6,19.5,15.8,21.4c10.2,0.9,19.5-5.6,20.5-16.7L731,141.2C731.9,134.7,730,129.1,725.4,124.4z"/>
		<path fill="#414042" d="M278,275.1c-7.4-2.8-14-6.5-18.6-11.2v21.4l0,0c0,1.9,0.9,4.7,1.9,6.5l10.2-10.2V277
			c0.9,0.9,1.9,0.9,2.8,1.9L278,275.1z"/>
		<path fill="#414042" d="M495.6,288.2c0-0.9,0-0.9,0-1.9l0,0v-29.8c0-0.9,0-1.9,0-2.8c-13,23.3-59.5,36.3-107.9,39.1l40,34.4
			C466.8,319.8,493.8,304.9,495.6,288.2z M480.7,300.2c-2.8,2.8-7.4,5.6-12.1,8.4v-24.2c3.7-0.9,8.4-3.7,12.1-6.5V300.2z"/>
		<path fill="#414042" d="M292.8,366.3c21.4,7.4,48.4,12.1,79.1,12.1c0.9,0,1.9,0,2.8,0l-7.4-6.5c-1.9,0-2.8,0-4.7,0v-3.7l-15.8-14
			v16.7c-5.6-0.9-11.2-0.9-15.8-1.9v-23.3c2.8,0,4.7,0.9,7.4,0.9l-14-11.2l0,0l-9.3,10.2v19.5c-5.6-0.9-11.2-2.8-15.8-3.7v-0.9
			L292.8,366.3z"/>
		<path fill="#414042" d="M264.9,394.2c14.9,17.7,59.5,30.7,112.5,30.7c16.7,0,33.5-1.9,48.4-3.7l-40.9-34.4c-4.7,0-8.4,0-13,0
			c-30.7,0-62.3-4.7-86.5-14l-5.6,5.6c1.9,0.9,3.7,1.9,6.5,2.8v21.4c-6.5-2.8-14-7.4-15.8-10.2v-3.7L264.9,394.2z M368.2,395.1
			c2.8,0,6.5,0,9.3,0c1.9,0,4.7,0,6.5,0v23.3c-1.9,0-4.7,0-6.5,0c-2.8,0-6.5,0-9.3,0V395.1L368.2,395.1z M335.6,392.3
			c5.6,0.9,10.2,1.9,15.8,1.9v23.3c-5.6-0.9-11.2-0.9-15.8-1.9V392.3z M303.1,384.9c4.7,1.9,10.2,2.8,15.8,4.7v23.3
			c-5.6-0.9-11.2-2.8-15.8-3.7V384.9z"/>
		<path fill="#414042" d="M377.5,434.2c-48.4,0-98.6-11.2-118.1-33.5l-4.7,4.7v22.3l0,0c0,24.2,53,44.6,118.1,44.6
			c22.3,0,42.8-1.9,60.5-6.5v-13c0-2.8,0.9-4.7,2.8-6.5c-4.7-5.6-7.4-11.2-7.4-17.7C411,432.3,394.2,434.2,377.5,434.2z M281.7,450
			c-6.5-2.8-14-7.4-15.8-10.2v-23.3c3.7,3.7,9.3,7.4,15.8,10.2V450z M314.2,460.2c-5.6-0.9-11.2-2.8-15.8-3.7v-23.3
			c4.7,1.9,10.2,2.8,15.8,4.7V460.2z M346.8,464.9c-5.6-0.9-11.2-0.9-15.8-1.9v-23.3c5.6,0.9,10.2,1.9,15.8,1.9V464.9z M379.3,465.8
			c-1.9,0-4.7,0-6.5,0c-2.8,0-6.5,0-9.3,0v-23.3c2.8,0,6.5,0,9.3,0c1.9,0,4.7,0,6.5,0V465.8z"/>
		<path fill="#414042" d="M553.3,480.7c-43.7,0-90.2-9.3-112.5-27.9v21.4l0,0c0,24.2,53,44.6,118.1,44.6
			c63.2,0,115.3-18.6,118.1-42.8c0-0.9,0-0.9,0-1.9l0,0v-29.8c0-0.9,0-1.9,0-2.8C662.1,467.7,606.3,480.7,553.3,480.7z M468.6,497.4
			c-6.5-2.8-14-7.4-15.8-10.2v-19.5c2.8,1.9,7.4,5.6,15.8,8.4V497.4z M501.2,506.7c-5.6-0.9-11.2-2.8-15.8-3.7v-23.3
			c4.7,1.9,10.2,2.8,15.8,4.7V506.7z M532.8,512.3c-5.6,0-11.2-0.9-15.8-1.9v-23.3c5.6,0.9,10.2,1.9,15.8,1.9V512.3z M565.4,513.2
			c-1.9,0-4.7,0-6.5,0c-2.8,0-6.5,0-9.3,0V490c2.8,0,6.5,0,9.3,0c1.9,0,4.7,0,6.5,0V513.2L565.4,513.2z M662.1,489.1
			c-2.8,2.8-7.4,5.6-12.1,8.4v-24.2c3.7-0.9,8.4-3.7,12.1-6.5V489.1z"/>
		<path fill="#414042" d="M436.1,427.7c0,24.2,53,44.6,118.1,44.6c63.2,0,115.3-18.6,118.1-42.8c0-0.9,0-0.9,0-1.9l0,0v-21.4
			c-22.3,18.6-67.9,27.9-112.5,27.9c-53,0-107.9-14-122.8-39.1c0,0.9,0,1.9,0,3.7v0.9L436.1,427.7L436.1,427.7z M645.4,429.5
			c2.8-0.9,9.3-3.7,12.1-5.6v17.7c-2.8,2.8-7.4,5.6-12.1,8.4V429.5z M544,442.6c2.8,0,6.5,0,9.3,0c1.9,0,4.7,0,6.5,0v23.3
			c-1.9,0-4.7,0-6.5,0c-2.8,0-6.5,0-9.3,0V442.6L544,442.6z M511.4,439.8c5.6,0.9,10.2,1.9,15.8,1.9V465c-5.6,0-11.2-0.9-15.8-1.9
			L511.4,439.8L511.4,439.8z M479.8,432.3c4.7,1.9,10.2,2.8,15.8,4.7v23.3c-5.6-0.9-11.2-2.8-15.8-3.7V432.3z M447.2,415.6
			c3.7,3.7,9.3,7.4,15.8,10.2V450c-6.5-2.8-14-7.4-15.8-10.2V415.6z"/>
		<path fill="#414042" d="M436.1,489.1c0,0.9,0,1.9,0,3.7v0.9v28.8l0,0c0,24.2,53,44.6,118.1,44.6c63.2,0,115.3-18.6,118.1-42.8
			c0-0.9,0-0.9,0-1.9l0,0V501c-22.3,18.6-67.9,27.9-112.5,27.9C505.8,528.1,451,514.2,436.1,489.1z M463.1,543.9
			c-6.5-2.8-14-7.4-15.8-10.2v-23.3c3.7,3.7,9.3,7.4,15.8,10.2V543.9z M495.6,554.2c-5.6-0.9-11.2-2.8-15.8-3.7v-23.3
			c4.7,1.9,10.2,2.8,15.8,4.7V554.2z M528.2,558.8c-5.6,0-11.2-0.9-15.8-1.9v-23.3c5.6,0.9,10.2,1.9,15.8,1.9V558.8z M645.4,523.5
			c2.8-0.9,9.3-3.7,12.1-5.6v17.7c-2.8,2.8-7.4,5.6-12.1,8.4V523.5z M559.8,559.7c-1.9,0-4.7,0-6.5,0c-2.8,0-6.5,0-9.3,0v-23.3
			c2.8,0,6.5,0,9.3,0c1.9,0,4.7,0,6.5,0V559.7L559.8,559.7z"/>
		<path fill="#414042" d="M558.9,304.9c-65.1,0-118.1,20.5-118.1,45.6v30.7l0,0c0,24.2,53,44.6,118.1,44.6
			c63.2,0,115.3-18.6,118.1-42.8c0-0.9,0-0.9,0-1.9l0,0v-29.8C677,325.4,624,304.9,558.9,304.9z M558.9,313.3
			c55.8,0,102.3,16.7,102.3,36.3c0,20.5-45.6,36.3-102.3,36.3c-55.8,0-101.4-15.8-101.4-36.3C456.5,329.1,502.1,313.3,558.9,313.3z
			 M468.6,402.6c-6.5-2.8-14-7.4-15.8-10.2v-23.3c3.7,3.7,9.3,7.4,15.8,10.2V402.6z M501.2,412.8c-5.6-0.9-11.2-2.8-15.8-3.7v-23.3
			c4.7,1.9,10.2,2.8,15.8,4.7V412.8z M532.8,417.4c-5.6,0-11.2-0.9-15.8-1.9v-23.3c5.6,0.9,10.2,1.9,15.8,1.9V417.4z M565.4,418.4
			c-1.9,0-4.7,0-6.5,0c-2.8,0-6.5,0-9.3,0v-23.3c2.8,0,6.5,0,9.3,0c1.9,0,4.7,0,6.5,0V418.4L565.4,418.4z M662.1,394.2
			c-2.8,2.8-7.4,5.6-12.1,8.4v-24.2c4.7-1.9,8.4-4.7,12.1-7.4V394.2z"/>
		<path fill="#414042" d="M517,369.1c6.5,4.7,19.5,6.5,33.5,7.4v3.7c0,0.9,0.9,0.9,2.8,0.9h10.2c1.9,0,2.8-0.9,2.8-0.9v-4.7
			c8.4-0.9,16.7-1.9,22.3-3.7c9.3-3.7,14-9.3,9.3-14.9c-4.7-5.6-18.6-8.4-31.6-10.2V329c1.9,0,2.8,0,4.7,0.9
			c3.7,0.9,9.3,1.9,12.1,3.7c0.9,0,0.9,0,1.9,0.9c0,0,0,0,0.9,0l0,0c0,0,0.9,0,0.9,0.9c4.7,2.8,16.7-1.9,13-4.7
			c-4.7-2.8-15.8-5.6-24.2-6.5c-2.8,0-5.6-0.9-8.4-0.9v-3.7c0-0.9-0.9-0.9-2.8-0.9h-10.2c-1.9,0-2.8,0.9-2.8,0.9v3.7
			c-9.3,0.9-17.7,1.9-23.3,4.7c-9.3,3.7-12.1,10.2-6.5,14.9c2.8,1.9,6.5,4.7,12.1,5.6c2.8,0.9,10.2,1.9,18.6,3.7V370
			c-1.9,0-3.7,0-5.6-0.9c-3.7-0.9-9.3-1.9-12.1-2.8c-0.9,0-0.9,0-1.9-0.9c-0.9-0.9,0,0-0.9,0c0,0-0.9,0-0.9-0.9
			C526.3,361.6,513.3,366.3,517,369.1z M567.2,355.1c3.7,0.9,6.5,0.9,7.4,1.9c4.7,0.9,5.6,1.9,8.4,3.7c3.7,2.8,1.9,6.5-3.7,8.4
			c-3.7,0.9-7.4,1.9-12.1,1.9L567.2,355.1L567.2,355.1z M547.7,343c-5.6-0.9-9.3-1.9-12.1-3.7c-3.7-2.8-2.8-6.5,1.9-8.4
			c3.7-1.9,8.4-1.9,13-2.8V344C549.6,343,548.6,343,547.7,343z"/>
	</g>
</g>
<g id="rech_new_customers" display="none">
	<path display="inline" fill="#414042" d="M250.1,362.6c0-16.7-11.2-30.7-29.8-30.7c-19.5,0-29.8,14-29.8,30.7
		C189.6,427.7,250.1,426.7,250.1,362.6L250.1,362.6z M150.5,488.1v-6.5c0-15.8,0.9-34.4,8.4-47.4c6.5-12.1,18.6-23.3,33.5-23.3h5.6
		c13,13,32.6,13,46.5,0h5.6c7.4,0,14,2.8,19.5,7.4c-4.7,10.2-7.4,22.3-8.4,34.4L150.5,488.1L150.5,488.1z M390.5,330
		c-0.9-20.5-14-38.1-37.2-38.1c-24.2,0-37.2,17.7-37.2,38.1C315.2,410.9,390.5,409.1,390.5,330L390.5,330z M267.7,449.1
		c0.9-11.2,3.7-21.4,8.4-30.7c8.4-14.9,23.3-28.8,40.9-28.8h6.5c16.7,15.8,40.9,15.8,56.7,0h6.5c8.4,0,15.8,2.8,22.3,7.4
		c-0.9,0.9-1.9,2.8-1.9,3.7c-11.2,21.4-13,49.3-13,73.5v21.4h-0.9l-57.7-49.3l-16.7-14L267.7,449.1L267.7,449.1z M550.5,302.1
		c-0.9-24.2-16.7-44.6-44.6-44.6c-28.8,0-43.7,20.5-44.6,44.6C462.1,396,551.4,394.2,550.5,302.1L550.5,302.1z M405.4,490.9v-16.7
		c0-23.3,0.9-49.3,11.2-68.8c9.3-17.7,27-34.4,48.4-34.4h7.4c18.6,18.6,47.4,18.6,67,0h7.4c21.4,0,39.1,16.7,48.4,34.4
		c1.9,3.7,3.7,7.4,4.7,11.2L405.4,490.9L405.4,490.9z M601.6,382.1l16.7,42.8l-226,86.5l-64.2-54.9l-11.2-9.3l-13,4.7l-151.6,50.2
		l15.8,47.4l138.6-45.6l65.1,54.9l11.2,9.3l14-5.6l240-91.2l15.8,40l74.4-105.1L601.6,382.1L601.6,382.1z"/>
</g>
<g id="Layer_12" display="none">
	<polygon display="inline" fill="#FFFFFF" points="372.8,185.8 538.4,16.6 676.1,11 516.1,162.6 611.9,162.6 432.4,308.6 
		520.7,308.6 279.8,440.7 371,333.7 318.9,330.9 462.1,188.6 	"/>
	<g display="inline">
		<g>
			<g>
				<g>
					<rect x="496.5" y="478.8" fill="#FFFFFF" width="63.2" height="49.3"/>
					<rect x="311.4" y="478.8" fill="#FFFFFF" width="63.2" height="49.3"/>
					<rect x="183.1" y="336.5" fill="#FFFFFF" width="49.3" height="63.2"/>
					<rect x="404.5" y="478.8" fill="#FFFFFF" width="63.2" height="49.3"/>
					<rect x="183.1" y="151.4" fill="#FFFFFF" width="49.3" height="63.2"/>
					<path fill="#FFFFFF" d="M281.7,478.8h-48.4v-48.4H184v73.5c0,14,11.2,25.1,25.1,25.1h73.5v-50.2H281.7z"/>
					<rect x="183.1" y="244.4" fill="#FFFFFF" width="49.3" height="63.2"/>
					<g>
						<path fill="#FFFFFF" d="M718.8,497.4l-62.3-62.3c-3.7-3.7-7.4-4.7-9.3-2.8c-0.9,0.9-1.9,3.7-1.9,7.4v39.1h-54.9v49.3h54.9
							v39.1c0,9.3,5.6,11.2,11.2,4.7l62.3-62.3C724.4,503,724.4,503,718.8,497.4z"/>
						<path fill="#FFFFFF" d="M213.8-7.6c-6.5-6.5-6.5-6.5-13,0l-62.3,62.3c-3.7,3.7-4.7,7.4-2.8,9.3c0.9,0.9,3.7,1.9,7.4,1.9h39.1
							v54.9h49.3V65.9h39.1c9.3,0,11.2-5.6,4.7-11.2L213.8-7.6z"/>
					</g>
				</g>
			</g>
		</g>
	</g>
</g>
<g id="Layer_9" display="none">
	<g id="homework_copy_14_1_" display="inline" enable-background="new    ">
		<g>
			<g>
				<path id="SVGID_1_" fill="#FFFFFF" d="M454.7,282.6l176.7-133l-215.8-22.3L238.9,248.2L454.7,282.6z M459.3,299.3L325.4,276
					l14,53.9l133,19.5l109.8-80.9l-15.8-53L459.3,299.3z M318,380.2l-27.9-109.8l-11.2-4.7L308.7,382L318,380.2z M309.6,391.4
					l-6.5,14.9l0.9,4.7l31.6-8.4l-0.9-4.7l-12.1-10.2L309.6,391.4z"/>
			</g>
			<g>
				<g>
					<g>
						<defs>
							<path id="SVGID_2_" d="M454.7,282.6l176.7-133l-215.8-22.3L238.9,248.2L454.7,282.6z M459.3,299.3L325.4,276l14,53.9
								l133,19.5l109.8-80.9l-15.8-53L459.3,299.3z M318,380.2l-27.9-109.8l-11.2-4.7L308.7,382L318,380.2z M309.6,391.4l-6.5,14.9
								l0.9,4.7l31.6-8.4l-0.9-4.7l-12.1-10.2L309.6,391.4z"/>
						</defs>
						<clipPath id="SVGID_4_">
							<use xlink:href="#SVGID_2_"  overflow="visible"/>
						</clipPath>
						<path clip-path="url(#SVGID_4_)" fill="#FFFFFF" d="M289.1,464.9c131.1-33.5,261.4-66,392.5-99.5
							C653.7,256.6,626.7,147.8,598.8,38c-131.1,34.4-261.4,67-392.5,100.5C234.2,247.2,261.2,356,289.1,464.9z"/>
					</g>
				</g>
			</g>
		</g>
	</g>
	<path display="inline" fill="#FFFFFF" d="M837.9,364.4c0,0-4.7-32.6-18.6-46.5c-17.7-18.6-38.1-18.6-47.4-20.5
		c-66-4.7-166.5-4.7-166.5-4.7l0,0c0,0-5.6,0-14,0v0.9l-111.6,82.8l-106-14.9c0,1.9-0.9,2.8-0.9,2.8s-4.7,38.1-4.7,76.3V476
		c0,38.1,4.7,76.3,4.7,76.3s4.7,32.6,18.6,46.5c17.7,18.6,41.9,18.6,52.1,20.5c38.1,3.7,160.9,4.7,160.9,4.7s99.5,0,166.5-4.7
		c9.3-0.9,29.8-0.9,47.4-20.5c14-14,18.6-46.5,18.6-46.5s5.6-38.1,5.6-76.3v-35.3C842.5,402.6,837.9,364.4,837.9,364.4z
		 M552.4,559.7V375.6l159.1,92.1L552.4,559.7z"/>
</g>
<g id="Layer_10" display="none">
	<g id="homework_copy_14_2_" display="inline" enable-background="new    ">
		<g>
			<g>
				<path id="SVGID_3_" fill="#414042" d="M352.4,237l176.7-133L313.3,81.7L136.6,202.6L352.4,237z M357,253.7l-133.9-23.3l14,53.9
					L370,304l109.8-81l-16.7-53L357,253.7z M215.6,334.7l-27.9-109.8l-11.2-4.7l29.8,116.3L215.6,334.7z M207.3,345.8l-6.5,14.9
					l0.9,4.7l31.6-8.4l-0.9-4.7l-12.1-10.2L207.3,345.8z"/>
			</g>
			<g>
				<g>
					<g>
						<defs>
							<path id="SVGID_5_" d="M352.4,237l176.7-133L313.3,81.7L136.6,202.6L352.4,237z M357,253.7l-133.9-23.3l14,53.9L370,304
								l109.8-81l-16.7-53L357,253.7z M215.6,334.7l-27.9-109.8l-11.2-4.7l29.8,116.3L215.6,334.7z M207.3,345.8l-6.5,14.9l0.9,4.7
								l31.6-8.4l-0.9-4.7l-12.1-10.2L207.3,345.8z"/>
						</defs>
						<clipPath id="SVGID_6_">
							<use xlink:href="#SVGID_5_"  overflow="visible"/>
						</clipPath>
						<path clip-path="url(#SVGID_6_)" fill="#414042" d="M186.8,420.2c131.1-33.5,261.4-66,392.5-99.5
							c-27.9-108.8-54.9-217.6-82.8-327.4C365.4,26.8,235.2,60.3,104,92.8C131.9,201.6,158.9,310.5,186.8,420.2z"/>
					</g>
				</g>
			</g>
		</g>
	</g>
	<path display="inline" fill="#414042" d="M735.6,318.8c0,0-4.7-32.6-18.6-46.5c-17.7-18.6-38.1-18.6-47.4-20.5
		c-66-4.7-166.5-4.7-166.5-4.7l0,0c0,0-5.6,0-14,0v0.9l-111.6,82.8l-106-14.9c0,1.9-0.9,2.8-0.9,2.8s-4.7,38.1-4.7,76.3v35.3
		c0,38.1,4.7,76.3,4.7,76.3s4.7,32.6,18.6,46.5c17.7,18.6,41.9,18.6,52.1,20.5c38.1,3.7,160.9,4.7,160.9,4.7s99.5,0,166.5-4.7
		c9.3-0.9,29.8-0.9,47.4-20.5c14-14,18.6-46.5,18.6-46.5s4.7-38.1,4.7-76.3V395C740.2,357,735.6,318.8,735.6,318.8z M450,514.2V330
		l159.1,92.1L450,514.2z"/>
</g>
<g id="Layer_1_1_" display="none">
	<g display="inline">
		<g>
			<g>
				<polygon fill="#414042" points="640.7,-13.2 621.2,74.2 674.2,20.3 				"/>
			</g>
			<g>
				<polygon fill="#414042" points="732.8,78.9 645.4,98.4 699.3,45.4 				"/>
			</g>
			<path fill="#414042" d="M405.4,285.4l30.7-30.7c-20.5-9.3-45.6-5.6-62.3,12.1c-22.3,22.3-22.3,57.7,0,80
				c22.3,22.3,57.7,22.3,80,0c16.7-16.7,20.5-41.9,12.1-62.3l-30.7,30.7h-29.8l0,0l0,0L405.4,285.4L405.4,285.4z"/>
			<g>
				<path fill="#414042" d="M490,382.1c-41.9,41.9-109.8,41.9-151.6,0s-41.9-109.8,0-151.6c37.2-37.2,93.9-40.9,135.8-13l40-40
					c-64.2-50.2-157.2-45.6-215.8,14c-64.2,64.2-64.2,167.4,0,231.6s167.4,64.2,231.6,0c58.6-58.6,63.2-151.6,13-215.8l-40,40
					C531,287.2,527.2,344.9,490,382.1z"/>
			</g>
			<g>
				<path fill="#414042" d="M566.3,457.4c-83.7,83.7-219.5,83.7-304.2,0c-83.7-83.7-83.7-219.5,0-304.2
					c79.1-79.1,203.7-83.7,288.3-14l40-40C484.4,8,323.5,12.7,222.1,114.1c-106,106-106,278.1,0,383.2c106,106,278.1,106,383.2,0
					c101.4-100.5,106-262.3,14-368.3l-40,40C649.1,253.7,645.4,378.4,566.3,457.4z"/>
			</g>
		</g>
	</g>
</g>
<g id="Layer_3" display="none">
	<g display="inline">
		<g>
			<path fill="none" d="M646.3,248.2c-18.6,0-33.5,14.9-33.5,33.5c0,18.6,14.9,33.5,33.5,33.5c18.6,0,33.5-14.9,33.5-33.5
				C679.8,263.1,664.9,248.2,646.3,248.2z"/>
			<path fill="none" d="M494.7,252.8H262.2c-40.9,0-73.5,37.2-73.5,83.7v111.6c0,46.5,32.6,83.7,73.5,83.7h232.5
				c40.9,0,73.5-37.2,73.5-83.7V336.5C568.2,290,534.7,252.8,494.7,252.8z"/>
			<path fill="#414042" d="M615.6,189.6h-12.1H140.3v389.7h463.2h12.1h95.8V189.6H615.6z M568.2,447.2c0,46.5-32.6,83.7-73.5,83.7
				H262.2c-40.9,0-73.5-37.2-73.5-83.7V335.6c0-46.5,32.6-83.7,73.5-83.7h232.5c40.9,0,73.5,37.2,73.5,83.7V447.2z M644.4,384.9
				c-11.2,0-19.5-9.3-19.5-19.5c0-11.2,9.3-19.5,19.5-19.5c11.2,0,19.5,9.3,19.5,19.5C664.9,375.6,655.6,384.9,644.4,384.9z
				 M646.3,315.1c-18.6,0-33.5-14.9-33.5-33.5s14.9-33.5,33.5-33.5c18.6,0,33.5,14.9,33.5,33.5S664.9,315.1,646.3,315.1z"/>
		</g>
		<polygon fill="#414042" points="370,194.2 335.6,215.6 231.5,47.2 264.9,25.9 		"/>
		<polygon fill="#414042" points="339.4,233.3 318,199.8 561.7,47.2 583,81.7 		"/>
	</g>
</g>
<g id="Layer_4" display="none">
	<g display="inline">
		<g>
			<polygon fill="#414042" points="466.8,24 458.4,147.7 538.4,131.9 557,6.3 			"/>
			<polygon fill="#414042" points="608.2,-3.9 599.8,119.8 690.9,102.1 667.7,-15.1 			"/>
			<polygon fill="#414042" points="329.1,51 320.7,174.7 397,159.8 415.6,34.2 			"/>
			<polygon fill="#414042" points="140.3,88.2 163.6,205.4 254.7,205.4 278,61.2 			"/>
		</g>
		<g>
			<path fill="#414042" d="M160.8,231.4v347.9h537.6V231.4H160.8z M429.6,532.8c-70.7,0-127.4-56.7-127.4-127.4S358.9,278,429.6,278
				S557,334.7,557,405.3S500.3,532.8,429.6,532.8z"/>
		</g>
		<polygon fill="#414042" points="379.3,338.4 379.3,473.2 507.7,405.3 		"/>
	</g>
</g>
<g id="Layer_5" display="none">
	<g display="inline">
		<g>
			<path fill="#414042" d="M404.5,241.6v177.7c0,4.7,4.7,8.4,10.2,8.4h57.7c5.6,0,10.2-3.7,10.2-8.4V241.6c0-4.7-4.7-8.4-10.2-8.4
				h-57.7C409.1,233.3,404.5,237,404.5,241.6z"/>
			<path fill="#414042" d="M516.1,176.5v242.8c0,4.7,4.7,8.4,10.2,8.4H584c5.6,0,10.2-3.7,10.2-8.4V176.5c0-4.7-4.7-8.4-10.2-8.4
				h-57.7C520.7,168.2,516.1,171.9,516.1,176.5z"/>
			<path fill="#414042" d="M293.8,305.8v113.5c0,4.7,4.7,8.4,9.3,8.4h57.7c5.6,0,10.2-3.7,10.2-8.4V305.8c0-4.7-4.7-8.4-10.2-8.4
				h-57.7C297.5,297.5,293.8,301.2,293.8,305.8z"/>
			<g>
				<g>
					<rect x="496.5" y="482.5" fill="#414042" width="63.2" height="49.3"/>
					<rect x="311.4" y="482.5" fill="#414042" width="63.2" height="49.3"/>
					<rect x="183.1" y="341.2" fill="#414042" width="49.3" height="63.2"/>
					<rect x="404.5" y="482.5" fill="#414042" width="63.2" height="49.3"/>
					<rect x="183.1" y="155.1" fill="#414042" width="49.3" height="63.2"/>
					<path fill="#414042" d="M281.7,482.5h-48.4v-48.4H184v73.5c0,14,11.2,25.1,25.1,25.1h73.5v-50.2H281.7z"/>
					<rect x="183.1" y="248.2" fill="#414042" width="49.3" height="63.2"/>
					<g>
						<path fill="#414042" d="M718.8,501.1l-62.3-62.3c-3.7-3.7-7.4-4.7-9.3-2.8c-0.9,0.9-1.9,3.7-1.9,7.4v39.1h-54.9v49.3h54.9
							v39.1c0,9.3,5.6,11.2,11.2,4.7l62.3-62.3C724.4,506.7,724.4,507.7,718.8,501.1z"/>
						<path fill="#414042" d="M213.8-3.9c-6.5-6.5-6.5-6.5-13,0l-61.4,62.3c-3.7,3.7-4.7,7.4-2.8,9.3c0.9,0.9,3.7,1.9,7.4,1.9h39.1
							v54.9h49.3V69.6h39.1c9.3,0,11.2-5.6,4.7-11.2L213.8-3.9z"/>
					</g>
				</g>
			</g>
		</g>
	</g>
</g>
<g id="Layer_6" display="none">
	<g display="inline">
		<g>
			<g>
				<path fill="#414042" d="M507.7,204.4c-50.2-50.2-132.1-50.2-182.3,0s-50.2,132.1,0,182.3s132.1,50.2,182.3,0
					S557.9,254.7,507.7,204.4z M352.4,358.8c-35.3-35.3-35.3-92.1,0-127.4s92.1-35.3,127.4,0s35.3,92.1,0,127.4
					S387.7,394.2,352.4,358.8z"/>
			</g>
			<g>
				<path fill="#414042" d="M307.7,401.6c-10.2-10.2-27-10.2-37.2,0l-0.9,1.9l37.2,37.2l0.9-0.9C318,428.6,318,411.9,307.7,401.6z
					 M147.7,524.4c-10.2,10.2-10.2,27,0,37.2c10.2,10.2,27,10.2,37.2,0l109.8-109.8l-37.2-37.2L147.7,524.4z"/>
			</g>
		</g>
		<g>
			<g>
				<path fill="#414042" d="M448.2,101.2c0,4.7,3.7,8.4,8.4,8.4h173c4.7-0.9,8.4-4.7,8.4-8.4c0-4.7-3.7-8.4-8.4-8.4h-173
					C451.9,92.8,448.2,96.5,448.2,101.2z M637.9,55.6c0-4.7-3.7-8.4-8.4-8.4h-173c-4.7,0-8.4,3.7-8.4,8.4s3.7,8.4,8.4,8.4h173
					C634.2,64,637.9,60.3,637.9,55.6z M629.6,137.5H462.1c14.9,2.8,29.8,8.4,43.7,15.8h123.7c4.7,0,8.4-3.7,8.4-8.4
					S634.2,137.5,629.6,137.5z M629.6,183H544c4.7,5.6,9.3,10.2,14,15.8h72.5c4.7,0,8.4-3.7,8.4-8.4S634.2,183,629.6,183z
					 M629.6,227.7h-54.9c2.8,5.6,4.7,10.2,6.5,15.8h48.4c4.7,0,8.4-3.7,8.4-8.4C637.9,231.4,634.2,227.7,629.6,227.7z M629.6,272.3
					h-41.9c0.9,5.6,0.9,11.2,1.9,15.8h40c4.7,0,8.4-3.7,8.4-8.4C637.9,276.1,634.2,272.3,629.6,272.3z"/>
			</g>
			<g>
				<path fill="#414042" d="M549.6,317H651c9.3,0,16.7-7.4,16.7-16.7V32.4c0-9.3-7.4-17.7-16.7-17.7H435.2
					c-9.3,0-16.7,7.4-16.7,17.7v139.5c-10.2,0.9-20.5,2.8-30.7,6.5v-146c0-26,21.4-47.4,47.4-47.4H651c26,0,47.4,21.4,47.4,47.4
					v267.9c0,26-21.4,47.4-47.4,47.4H539.3C544,337.4,547.7,327.2,549.6,317z"/>
			</g>
		</g>
	</g>
</g>
<g id="Layer_7" display="none">
	<path display="inline" fill="#414042" d="M211.9,350.5v228.8h150.7V403.5h150.7v175.8H664V350.5l-226-226L211.9,350.5z
		 M638.9,227.7V51.9H538.4v75.3L437.9,26.8L136.6,328.1l0,0l26,26L437.9,79.8l275.3,274.4l26-26l0,0L638.9,227.7z"/>
</g>
<g id="Layer_8" display="none">
	<path display="inline" fill="#414042" d="M314.2,68.6c0,41.9-33.5,75.3-75.3,75.3s-75.3-33.5-75.3-75.3S197-6.7,238.9-6.7
		S314.2,26.8,314.2,68.6z"/>
	<rect x="287.3" y="47.2" display="inline" fill="#414042" width="401.8" height="47.4"/>
	<rect x="287.3" y="266.8" display="inline" fill="#414042" width="401.8" height="47.4"/>
	<path display="inline" fill="#414042" d="M314.2,290c0,41.9-33.5,75.3-75.3,75.3s-75.3-33.5-75.3-75.3s33.5-75.3,75.3-75.3
		C280.8,214.7,314.2,248.2,314.2,290z"/>
	<path display="inline" fill="#414042" d="M314.2,503.9c0,41.9-33.5,75.3-75.3,75.3s-75.3-33.5-75.3-75.3s33.5-75.3,75.3-75.3
		C280.8,427.7,314.2,462.1,314.2,503.9z"/>
	<rect x="287.3" y="481.6" display="inline" fill="#414042" width="401.8" height="47.4"/>
</g>
<g id="Layer_11" display="none">
	<g display="inline">
		<path fill="#414042" d="M682.6-15.1H183.1c-26,0-47.4,21.4-47.4,47.4v499.5c0,26,21.4,47.4,47.4,47.4h499.5
			c26,0,47.4-21.4,47.4-47.4V32.4C730,6.3,708.6-15.1,682.6-15.1z M255.6,520.7c0,11.2-9.3,19.5-19.5,19.5h-44.6
			c-11.2,0-19.5-9.3-19.5-19.5V477c0-11.2,9.3-19.5,19.5-19.5h43.7c11.2,0,19.5,9.3,19.5,19.5v43.7H255.6z M255.6,411.9
			c0,11.2-9.3,19.5-19.5,19.5h-44.6c-11.2,0-19.5-9.3-19.5-19.5v-43.7c0-11.2,9.3-19.5,19.5-19.5h43.7c11.2,0,19.5,9.3,19.5,19.5
			v43.7H255.6z M255.6,304c0,11.2-9.3,19.5-19.5,19.5h-44.6c-11.2,0-19.5-9.3-19.5-19.5v-43.7c0-11.2,9.3-19.5,19.5-19.5h43.7
			c11.2,0,19.5,9.3,19.5,19.5V304H255.6z M255.6,196.1c0,11.2-9.3,19.5-19.5,19.5h-44.6c-11.2,0-19.5-9.3-19.5-19.5v-43.7
			c0-11.2,9.3-19.5,19.5-19.5h43.7c11.2,0,19.5,9.3,19.5,19.5v43.7H255.6z M255.6,87.2c0,11.2-9.3,19.5-19.5,19.5h-44.6
			c-11.2,0-19.5-9.3-19.5-19.5V43.5c0-11.2,9.3-19.5,19.5-19.5h43.7c11.2,0,19.5,9.3,19.5,19.5v43.7H255.6z M693.7,520.7
			c0,11.2-9.3,19.5-19.5,19.5h-43.7c-11.2,0-19.5-9.3-19.5-19.5V477c0-11.2,9.3-19.5,19.5-19.5h43.7c11.2,0,19.5,9.3,19.5,19.5
			V520.7z M693.7,411.9c0,11.2-9.3,19.5-19.5,19.5h-43.7c-11.2,0-19.5-9.3-19.5-19.5v-43.7c0-11.2,9.3-19.5,19.5-19.5h43.7
			c11.2,0,19.5,9.3,19.5,19.5V411.9z M693.7,304c0,11.2-9.3,19.5-19.5,19.5h-43.7c-11.2,0-19.5-9.3-19.5-19.5v-43.7
			c0-11.2,9.3-19.5,19.5-19.5h43.7c11.2,0,19.5,9.3,19.5,19.5V304z M693.7,196.1c0,11.2-9.3,19.5-19.5,19.5h-43.7
			c-11.2,0-19.5-9.3-19.5-19.5v-43.7c0-11.2,9.3-19.5,19.5-19.5h43.7c11.2,0,19.5,9.3,19.5,19.5V196.1z M693.7,87.2
			c0,11.2-9.3,19.5-19.5,19.5h-43.7c-11.2,0-19.5-9.3-19.5-19.5V43.5c0-11.2,9.3-19.5,19.5-19.5h43.7c11.2,0,19.5,9.3,19.5,19.5
			V87.2z"/>
	</g>
</g>
<g id="Layer_16" display="none">
	<path display="inline" fill="#414042" d="M592.3,250.9c-9.3-9.3-15.8-15.8-24.2-25.1c17.7-15.8,35.3-32.6,53.9-49.3
		c-49.3-43.7-103.2-67.9-167.4-71.6c0,25.1,0,49.3,0,74.4c-11.2,0-20.5,0-31.6,0c0-24.2,0-48.4,0-72.5
		c-48.4-4.7-120,25.1-166.5,67.9c17.7,15.8,35.3,32.6,53,48.4c-11.2,9.3-18.6,16.7-27,23.3c-14-14.9-30.7-32.6-46.5-49.3
		c-39.1,36.3-70.7,114.4-67.9,166.5c22.3,0,45.6,0,68.8,0c0,11.2,0,21.4,0,31.6c-27.9,0-56.7,0-87.4,0
		c-4.7-97.7,28.8-179.5,104.2-241.8c94.9-77.2,219.5-88.4,324.6-30.7c97.7,53,159.1,164.6,148.8,272.5c-28.8,0-57.7,0-86.5,0
		c0-9.3,0-18.6,0-29.8c22.3,0,45.6,0,67,0c6.5-39.1-24.2-130.2-67-168.4C624.9,214.7,609.1,232.3,592.3,250.9z"/>
	<path display="inline" fill="#ED1C24" d="M598.9,277c-15.8,15.8-31.6,31.6-47.4,47.4c-27.9,27-56.7,53-85.6,79.1
		c-11.2,10.2-25.1,12.1-38.1,5.6c-12.1-5.6-19.5-16.7-19.5-30.7c0-14.9,6.5-26,21.4-32.6c44.6-18.6,89.3-37.2,133.9-54.9
		c11.2-4.7,23.3-10.2,34.4-15.8C597.9,276.1,597.9,277,598.9,277z"/>
</g>
<g id="Layer_17" display="none">
	<path display="inline" fill="#414042" d="M439.8,214.7c-31.6,0-63.2,0-94.9,0c-16.7,0-33.5-3.7-31.6-26
		c0.9-20.5,16.7-22.3,32.6-22.3c62.3,0,125.6,0,187.9,0c15.8,0,34.4,0.9,34.4,23.3c0.9,24.2-17.7,25.1-35.3,25.1
		C502.1,214.7,470.5,214.7,439.8,214.7L439.8,214.7z"/>
	<path display="inline" fill="#414042" d="M439.8,396c-32.6,0-65.1,0-97.7,0c-17.7,0-30.7-5.6-29.8-25.1c0.9-17.7,14-22.3,29.8-22.3
		c65.1,0,131.1,0,196.3,0c15.8,0,28.8,4.7,29.8,22.3c0.9,19.5-12.1,25.1-29.8,25.1C505.8,396,472.4,396,439.8,396z"/>
	<path display="inline" fill="#414042" d="M439.8,257.5c31.6,0,63.2,0,95.8,0c15.8,0,31.6,1.9,32.6,22.3
		c0.9,21.4-14.9,25.1-32.6,25.1c-63.2,0-127.4,0-190.7,0c-17.7,0-32.6-3.7-32.6-26c0.9-20.5,15.8-22.3,32.6-22.3
		C376.6,258.4,408.2,258.4,439.8,257.5L439.8,257.5z"/>
	<g display="inline">
		<path fill="#414042" d="M637.9,43.5l-57.7,57.7c-7.4,7.4-7.4,19.5,0,27.9c7.4,7.4,19.5,7.4,27.9,0l24.2-24.2v182.3
			c0,11.2,8.4,19.5,19.5,19.5c11.2,0,19.5-8.4,19.5-19.5V104l24.2,24.2c7.4,7.4,20.5,7.4,27.9,0c3.7-3.7,5.6-8.4,5.6-14
			c0-4.7-1.9-10.2-5.6-14l-57.7-57.7c-1.9-1.9-3.7-3.7-6.5-4.7c-2.8-0.9-4.7-1.9-7.4-1.9C646.3,37,641.6,38.9,637.9,43.5z"/>
	</g>
	<g display="inline">
		<path fill="#414042" d="M243.5,520.7l57.7-57.7c7.4-7.4,7.4-19.5,0-27.9c-7.4-7.4-19.5-7.4-27.9,0l-24.2,24.2V277
			c0-11.2-8.4-19.5-19.5-19.5s-19.5,8.4-19.5,19.5v182.3l-24.2-24.2c-7.4-7.4-19.5-7.4-27.9,0c-3.7,3.7-5.6,8.4-5.6,14
			c0,4.7,1.9,10.2,5.6,14l57.7,57.7c1.9,1.9,3.7,3.7,6.5,4.7c1.9,0.9,4.7,1.9,7.4,1.9C235.2,526.3,239.8,524.4,243.5,520.7z"/>
	</g>
</g>
<g id="Layer_18" display="none">
	<path display="inline" fill="#414042" d="M397,412.8c0,18.6,0.9,37.2,0,56.7c-1.9,28.8-16.7,44.6-45.6,45.6
		c-35.3,0.9-71.6,0.9-107,0c-31.6-0.9-47.4-18.6-48.4-50.2c-0.9-34.4-0.9-69.8,0.9-104.2c0.9-32.6,16.7-47.4,49.3-47.4
		c34.4,0,69.8-0.9,104.2,0c31.6,0,45.6,14.9,47.4,46.5c0,1.9,0,3.7,0,5.6C397.9,381.2,397.9,397,397,412.8
		C397.9,412.8,397.9,412.8,397,412.8z"/>
	<path display="inline" fill="#414042" d="M299.4,47.2c17.7,0,35.3-0.9,53.9,0c27.9,0.9,43.7,15.8,44.6,43.7
		c0.9,37.2,0.9,75.3,0,112.5c-0.9,28.8-16.7,44.6-46.5,45.6c-35.3,0.9-71.6,0.9-107,0c-30.7-0.9-46.5-16.7-47.4-47.4
		c-0.9-35.3-1.9-71.6,0-107c0.9-32.6,17.7-47.4,50.2-47.4C264,47.2,281.7,47.2,299.4,47.2z"/>
	<path display="inline" fill="#414042" d="M573.7,515.1c-26,0-52.1,0-79.1,0c-23.3,0-33.5-13-33.5-36.3c0-22.3,10.2-35.3,33.5-35.3
		c52.1,0,105.1,0,157.2,0c23.3,0,32.6,12.1,32.6,35.3c0,23.3-10.2,35.3-33.5,35.3C625.8,516,599.8,515.1,573.7,515.1z"/>
	<path display="inline" fill="#414042" d="M571,250c-25.1,0-51.2,0-76.3,0c-23.3,0-33.5-13-33.5-36.3s11.2-35.3,34.4-35.3
		c52.1,0,103.2,0,155.3,0c22.3,0,34.4,11.2,34.4,34.4c0.9,25.1-12.1,36.3-35.3,37.2C624,250.9,597,250,571,250L571,250z"/>
	<path display="inline" fill="#414042" d="M573.7,381.2c-26,0-53-0.9-79.1,0c-25.1,0.9-33.5-13-33.5-34.4c0-20.5,8.4-33.5,31.6-33.5
		c53.9,0,107,0,160.9,0c23.3,0,31.6,12.1,31.6,33.5c0,22.3-8.4,35.3-32.6,35.3C625.8,381.2,599.8,381.2,573.7,381.2z"/>
	<path display="inline" fill="#414042" d="M571,116.1c-25.1,0-51.2-0.9-76.3,0c-24.2,0.9-33.5-12.1-33.5-34.4
		c0-21.4,8.4-33.5,31.6-33.5c53.9,0,107,0,160.9,0c23.3,0,31.6,12.1,31.6,33.5c0,22.3-7.4,35.3-32.6,35.3
		C625.8,115.1,597.9,116.1,571,116.1z"/>
</g>
<g id="Layer_19">
	<g>
		<g>
			<g>
				<g>
					<rect x="500.3" y="493.4" fill="#FFFFFF" width="63.2" height="49.3"/>
					<rect x="315.2" y="493.4" fill="#FFFFFF" width="63.2" height="49.3"/>
					<rect x="186.8" y="351.1" fill="#FFFFFF" width="49.3" height="63.2"/>
					<rect x="408.2" y="493.4" fill="#FFFFFF" width="63.2" height="49.3"/>
					<rect x="186.8" y="166" fill="#FFFFFF" width="49.3" height="63.2"/>
					<path fill="#FFFFFF" d="M285.4,493.4H237V445h-49.3v73.5c0,14,11.2,25.1,25.1,25.1h73.5v-50.2L285.4,493.4L285.4,493.4z"/>
					<rect x="186.8" y="259" fill="#FFFFFF" width="49.3" height="63.2"/>
					<g>
						<path fill="#FFFFFF" d="M722.6,511.1l-62.3-62.3c-3.7-3.7-7.4-4.7-9.3-2.8c-0.9,0.9-1.9,3.7-1.9,7.4v39.1h-54.9v49.3h54.9
							v39.1c0,9.3,5.6,11.2,11.2,4.7l62.3-62.3C729.1,517.6,729.1,517.6,722.6,511.1z"/>
						<path fill="#FFFFFF" d="M218.4,7.9c-6.5-6.5-6.5-6.5-13,0l-62.3,62.3c-3.7,3.7-4.7,7.4-2.8,9.3c0.9,0.9,3.7,1.9,7.4,1.9h39.1
							v54.9h49.3V81.4h39.1c9.3,0,11.2-5.6,4.7-11.2L218.4,7.9z"/>
					</g>
				</g>
			</g>
		</g>
	</g>
</g>
<g>
	<polygon fill="#FFFFFF" points="542.1,417.1 542.1,271.1 628.6,271.1 461.2,126 294.7,271.1 381.2,271.1 381.2,417.1 	"/>
</g>
</svg>
