<?xml version="1.0" encoding="utf-8"?>
<!-- Generator: Adobe Illustrator 16.0.0, SVG Export Plug-In . SVG Version: 6.00 Build 0)  -->
<!DOCTYPE svg PUBLIC "-//W3C//DTD SVG 1.1//EN" "http://www.w3.org/Graphics/SVG/1.1/DTD/svg11.dtd">
<svg version="1.1" xmlns="http://www.w3.org/2000/svg" xmlns:xlink="http://www.w3.org/1999/xlink" x="0px" y="0px" width="20px"
	 height="16px" viewBox="0 0 20 16" enable-background="new 0 0 20 16" xml:space="preserve">
<g id="all" display="none">
	<rect x="-153" y="-116" display="inline" fill="#00A651" width="348" height="303"/>
</g>
<g id="Layer_9" display="none">
	<g id="homework_copy_14_2_" display="inline" enable-background="new    ">
		<g>
			<defs>
				<path id="SVGID_3_" d="M6.948,4.994l5.679-4.283L5.687,0L0,3.898L6.948,4.994z M7.086,5.541L2.793,4.789l0.436,1.727
					l4.264,0.639l3.521-2.604l-0.505-1.708L7.086,5.541z M2.546,8.135L1.657,4.613l-0.35-0.15l0.945,3.746L2.546,8.135z M2.263,8.49
					L2.07,8.971l0.036,0.141l1.026-0.258L3.096,8.712L2.699,8.381L2.263,8.49z"/>
			</defs>
			<use xlink:href="#SVGID_3_"  overflow="visible" fill="#FFFFFF"/>
			<clipPath id="SVGID_2_">
				<use xlink:href="#SVGID_3_"  overflow="visible"/>
			</clipPath>
			<path clip-path="url(#SVGID_2_)" fill="#FFFFFF" d="M1.617,10.871c4.209-1.062,8.415-2.125,12.617-3.186
				c-0.887-3.508-1.771-7.012-2.654-10.512C7.37-1.764,3.164-0.701-1.037,0.359C-0.151,3.867,0.734,7.371,1.617,10.871z"/>
		</g>
	</g>
	<path display="inline" fill="#FFFFFF" d="M19.258,7.619c0,0-0.148-1.047-0.607-1.508c-0.58-0.605-1.23-0.607-1.527-0.644
		c-2.137-0.153-5.34-0.153-5.34-0.153h-0.006c0,0-0.178,0-0.461,0.002l0.006,0.025L7.725,8L4.321,7.52
		c-0.012,0.058-0.02,0.1-0.02,0.1S4.15,8.849,4.15,10.079v1.151c0,1.229,0.152,2.459,0.152,2.459s0.149,1.047,0.606,1.508
		c0.581,0.605,1.344,0.587,1.685,0.65C7.812,15.964,11.779,16,11.779,16s3.207-0.006,5.344-0.159
		c0.297-0.035,0.947-0.038,1.527-0.644c0.459-0.461,0.607-1.508,0.607-1.508s0.154-1.229,0.154-2.459v-1.151
		C19.412,8.849,19.258,7.619,19.258,7.619z M10.091,13.9V8l5.11,2.95L10.091,13.9z"/>
</g>
<g id="target_lists" display="none">
	<g display="inline">
		<circle fill="#FFFFFF" cx="1.807" cy="2.808" r="1.807"/>
		<rect x="2.957" y="2.294" fill="#FFFFFF" width="14.022" height="1.13"/>
	</g>
	<g display="inline">
		<circle fill="#FFFFFF" cx="1.807" cy="7.907" r="1.807"/>
		<rect x="2.957" y="7.394" fill="#FFFFFF" width="14.022" height="1.129"/>
		<circle fill="#FFFFFF" cx="1.807" cy="8.094" r="1.807"/>
		<rect x="2.957" y="7.581" fill="#FFFFFF" width="14.022" height="1.129"/>
	</g>
	<g display="inline">
		<circle fill="#FFFFFF" cx="1.807" cy="13.193" r="1.807"/>
		<rect x="2.957" y="12.68" fill="#FFFFFF" width="14.022" height="1.131"/>
	</g>
</g>
<g id="home" display="none">
	<path display="inline" fill="#FFFFFF" d="M2.185,9.359V16h4.369v-5.098h4.369V16h4.37V9.359L8.738,2.812L2.185,9.359z
		 M14.563,5.801V0.709H11.65v2.182l-2.913-2.91L0,8.711v0.016L0.766,9.49l7.972-7.965L16.71,9.49l0.766-0.763V8.711L14.563,5.801z"
		/>
</g>
<g id="campaign_builder" display="none">
	<g display="inline">
		<g>
			<path fill="#FFFFFF" d="M7.313,6.816v4.84c0,0.126,0.118,0.228,0.265,0.228h1.561c0.146,0,0.265-0.102,0.265-0.228v-4.84
				c0-0.125-0.119-0.228-0.265-0.228H7.578C7.431,6.588,7.313,6.691,7.313,6.816z"/>
			<path fill="#FFFFFF" d="M10.338,5.062v6.594c0,0.126,0.12,0.228,0.266,0.228h1.561c0.146,0,0.266-0.102,0.266-0.228V5.062
				c0-0.125-0.12-0.228-0.266-0.228h-1.561C10.458,4.834,10.338,4.937,10.338,5.062z"/>
			<path fill="#FFFFFF" d="M4.286,8.571v3.085c0,0.126,0.118,0.228,0.265,0.228h1.562c0.146,0,0.266-0.102,0.266-0.228V8.571
				c0-0.126-0.119-0.228-0.266-0.228H4.551C4.404,8.344,4.286,8.445,4.286,8.571z"/>
			<g>
				<g>
					<rect x="9.815" y="13.366" fill="#FFFFFF" width="1.709" height="1.344"/>
					<rect x="4.771" y="13.366" fill="#FFFFFF" width="1.709" height="1.344"/>
					<rect x="1.29" y="9.519" fill="#FFFFFF" width="1.344" height="1.71"/>
					<rect x="7.294" y="13.366" fill="#FFFFFF" width="1.708" height="1.344"/>
					<rect x="1.29" y="4.475" fill="#FFFFFF" width="1.344" height="1.71"/>
					<path fill="#FFFFFF" d="M3.959,13.366H2.634v-1.325H1.29v1.998c0,0.37,0.301,0.671,0.671,0.671h1.999V13.366z"/>
					<rect x="1.29" y="6.996" fill="#FFFFFF" width="1.344" height="1.71"/>
					<g>
						<path fill="#FFFFFF" d="M15.84,13.868l-1.69-1.691c-0.107-0.105-0.202-0.126-0.258-0.068c-0.037,0.036-0.058,0.104-0.058,0.2
							v1.058h-1.497v1.344h1.497l0.001,1.06c-0.001,0.246,0.14,0.304,0.314,0.129l1.689-1.688
							C16.012,14.037,16.014,14.041,15.84,13.868z"/>
						<path fill="#FFFFFF" d="M2.135,0.161C1.96-0.013,1.964-0.015,1.791,0.159L0.1,1.851c-0.107,0.106-0.126,0.201-0.068,0.258
							c0.036,0.036,0.103,0.057,0.199,0.057L1.29,2.165v1.497h1.344V2.165h1.059c0.247,0.001,0.304-0.141,0.13-0.315L2.135,0.161z"
							/>
					</g>
				</g>
			</g>
		</g>
	</g>
</g>
<g id="keyword_search" display="none">
	<g display="inline">
		<g>
			<path fill="#FFFFFF" d="M6.729,3.111H2.05c-0.12,0-0.218,0.099-0.218,0.219c0,0.122,0.099,0.22,0.218,0.22h4.679
				c0.122,0,0.22-0.098,0.22-0.22C6.948,3.21,6.85,3.111,6.729,3.111z M2.05,2.332h4.679c0.122,0,0.22-0.099,0.22-0.22
				c0-0.122-0.098-0.219-0.22-0.219H2.05c-0.12,0-0.218,0.097-0.218,0.219C1.832,2.233,1.93,2.332,2.05,2.332z M1.832,4.55
				c0,0.121,0.099,0.218,0.218,0.218h3.349c0.374-0.205,0.77-0.351,1.177-0.437H2.05C1.93,4.331,1.832,4.428,1.832,4.55z
				 M1.832,5.768c0,0.121,0.099,0.22,0.218,0.22h1.953c0.113-0.152,0.235-0.299,0.371-0.44H2.05C1.93,5.547,1.832,5.646,1.832,5.768
				z M1.832,6.986c0,0.12,0.099,0.219,0.218,0.219h1.313c0.05-0.148,0.108-0.295,0.174-0.438H2.05
				C1.93,6.767,1.832,6.865,1.832,6.986z M1.832,8.205c0,0.121,0.099,0.219,0.218,0.219h1.091C3.146,8.277,3.16,8.132,3.18,7.985
				H2.05C1.93,7.985,1.832,8.083,1.832,8.205z"/>
		</g>
		<g>
			<g>
				<path fill="#FFFFFF" d="M9.938,6.134c-1.364-1.362-3.573-1.362-4.937,0c-1.364,1.363-1.364,3.574,0,4.938
					c1.363,1.361,3.573,1.361,4.937,0C11.301,9.708,11.301,7.498,9.938,6.134z M5.75,10.322C4.8,9.373,4.8,7.833,5.75,6.884
					c0.95-0.949,2.49-0.949,3.439,0c0.95,0.949,0.95,2.489,0,3.438C8.239,11.272,6.699,11.272,5.75,10.322z"/>
			</g>
			<g>
				<path fill="#FFFFFF" d="M4.545,11.475c-0.276-0.275-0.726-0.275-1.003,0l-0.036,0.038l1.003,1.004l0.036-0.036
					C4.823,12.202,4.823,11.753,4.545,11.475z M0.208,14.809c-0.276,0.277-0.276,0.728,0,1.005c0.278,0.276,0.729,0.276,1.005,0
					l2.973-2.973L3.18,11.836L0.208,14.809z"/>
			</g>
		</g>
		<g>
			<path fill="#FFFFFF" d="M4.222,9.177H1.476C1.219,9.176,1.01,8.967,1.01,8.712V1.458c0-0.258,0.209-0.466,0.466-0.466h5.837
				c0.257,0,0.465,0.208,0.465,0.466V5.25c0.287,0.023,0.564,0.084,0.827,0.174V1.458c0-0.715-0.578-1.292-1.292-1.292H1.476
				C0.762,0.167,0.185,0.744,0.184,1.458v7.253c0.001,0.713,0.578,1.291,1.292,1.292h3.012C4.364,9.744,4.274,9.467,4.222,9.177z"/>
		</g>
	</g>
</g>
<g id="video_search" display="none">
	<g display="inline">
		<g>
			<polygon fill="#FFFFFF" points="8.765,1.06 8.55,4.382 10.71,3.961 11.207,0.583 			"/>
			<polygon fill="#FFFFFF" points="12.571,0.315 12.355,3.639 14.8,3.159 14.181,0 			"/>
			<polygon fill="#FFFFFF" points="5.071,1.782 4.855,5.105 6.903,4.705 7.4,1.327 			"/>
			<polygon fill="#FFFFFF" points="0,2.775 0.618,5.933 3.082,5.933 3.707,2.049 			"/>
		</g>
		<g>
			<path fill="#FFFFFF" d="M0.549,6.642v9.337H15V6.642H0.549z M7.774,14.731c-1.89,0-3.422-1.532-3.422-3.421
				c0-1.89,1.533-3.422,3.422-3.422c1.89,0,3.422,1.532,3.422,3.422C11.196,13.199,9.665,14.731,7.774,14.731z"/>
		</g>
		<polygon fill="#FFFFFF" points="6.423,9.493 6.423,13.128 9.879,11.311 		"/>
	</g>
</g>
<g id="channel_search" display="none">
	<g display="inline">
		<g>
			<circle fill="none" cx="14.592" cy="7.427" r="0.972"/>
			<path fill="none" d="M10.205,6.579H3.503c-1.171,0-2.121,1.077-2.121,2.406v3.207c0,1.328,0.95,2.405,2.121,2.405h6.702
				c1.172,0,2.122-1.077,2.122-2.405V8.985C12.326,7.656,11.377,6.579,10.205,6.579z"/>
			<path fill="#FFFFFF" d="M13.708,4.775h-0.354H0V16h13.354h0.354h2.762V4.775H13.708z M12.326,12.192
				c0,1.328-0.949,2.405-2.122,2.405H3.503c-1.171,0-2.121-1.077-2.121-2.405V8.985c0-1.329,0.95-2.406,2.121-2.406h6.702
				c1.172,0,2.122,1.077,2.122,2.406V12.192z M14.533,10.388c-0.316,0-0.573-0.256-0.573-0.572s0.257-0.572,0.573-0.572
				c0.315,0,0.572,0.256,0.572,0.572S14.849,10.388,14.533,10.388z M14.592,8.399c-0.537,0-0.974-0.435-0.974-0.972
				c0-0.537,0.437-0.972,0.974-0.972s0.972,0.435,0.972,0.972C15.563,7.964,15.129,8.399,14.592,8.399z"/>
		</g>
		
			<rect x="4.041" y="-0.065" transform="matrix(0.8482 -0.5297 0.5297 0.8482 -0.775 2.868)" fill="#FFFFFF" width="1.149" height="5.702"/>
		
			<rect x="8.364" y="-0.786" transform="matrix(0.5295 0.8483 -0.8483 0.5295 7.0536 -6.0024)" fill="#FFFFFF" width="1.147" height="8.287"/>
	</g>
</g>
<g id="target" display="none">
	<g display="inline">
		<g>
			<g>
				<polygon fill="#FFFFFF" points="13.562,-0.084 13.027,2.305 14.49,0.843 				"/>
			</g>
			<g>
				<polygon fill="#FFFFFF" points="16.082,2.435 13.693,2.97 15.154,1.507 				"/>
			</g>
			<path fill="#FFFFFF" d="M7.162,8.054L8.006,7.21C7.443,6.963,6.761,7.068,6.301,7.529C5.702,8.127,5.702,9.102,6.3,9.701
				c0.599,0.599,1.573,0.599,2.173,0c0.46-0.461,0.565-1.143,0.317-1.706L7.948,8.84H7.163l0,0h0L7.162,8.054z"/>
			<g>
				<path fill="#FFFFFF" d="M9.458,10.688c-1.143,1.143-2.999,1.143-4.142-0.002c-1.143-1.143-1.143-2.999,0-4.141
					c1.008-1.01,2.572-1.127,3.711-0.355l1.096-1.097c-1.748-1.36-4.284-1.239-5.89,0.368c-1.739,1.74-1.739,4.569,0,6.308
					c1.739,1.739,4.569,1.739,6.308,0c1.608-1.606,1.729-4.141,0.368-5.89l-1.1,1.099C10.58,8.117,10.467,9.678,9.458,10.688z"/>
			</g>
			<g>
				<path fill="#FFFFFF" d="M11.527,12.754c-2.292,2.289-5.99,2.289-8.28,0c-2.29-2.288-2.29-5.989,0-8.278
					c2.157-2.158,5.565-2.281,7.868-0.374l1.09-1.088C9.303,0.516,4.911,0.64,2.161,3.389c-2.882,2.881-2.882,7.57,0,10.452
					c2.881,2.88,7.57,2.88,10.452-0.002c2.748-2.748,2.871-7.141,0.375-10.041l-1.09,1.09C13.805,7.19,13.684,10.597,11.527,12.754z
					"/>
			</g>
		</g>
	</g>
</g>
<g id="Layer_10">
	<g>
		<path fill="#FFFFFF" d="M14.699,0H1.275C0.571,0,0,0.571,0,1.274v13.425c0,0.705,0.571,1.275,1.275,1.275h13.424
			c0.705,0,1.275-0.57,1.275-1.275V1.274C15.975,0.571,15.404,0,14.699,0z M3.216,14.394c0,0.295-0.239,0.535-0.535,0.535H1.504
			c-0.295,0-0.535-0.24-0.535-0.535v-1.178c0-0.295,0.239-0.534,0.535-0.534h1.177c0.295,0,0.535,0.239,0.535,0.534V14.394z
			 M3.216,11.484c0,0.297-0.239,0.535-0.535,0.535H1.504c-0.295,0-0.535-0.238-0.535-0.535v-1.178c0-0.295,0.239-0.534,0.535-0.534
			h1.177c0.295,0,0.535,0.239,0.535,0.534V11.484z M3.216,8.577c0,0.294-0.239,0.534-0.535,0.534H1.504
			c-0.295,0-0.535-0.24-0.535-0.534V7.398c0-0.295,0.239-0.535,0.535-0.535h1.177c0.295,0,0.535,0.24,0.535,0.535V8.577z
			 M3.216,5.668c0,0.294-0.239,0.535-0.535,0.535H1.504c-0.295,0-0.535-0.241-0.535-0.535V4.49c0-0.296,0.239-0.535,0.535-0.535
			h1.177c0.295,0,0.535,0.239,0.535,0.535V5.668z M3.216,2.758c0,0.295-0.239,0.535-0.535,0.535H1.504
			c-0.295,0-0.535-0.239-0.535-0.535V1.58c0-0.295,0.239-0.534,0.535-0.534h1.177c0.295,0,0.535,0.239,0.535,0.534V2.758z
			 M15.01,14.394c0,0.295-0.239,0.535-0.534,0.535h-1.179c-0.296,0-0.534-0.24-0.534-0.535v-1.178c0-0.295,0.238-0.534,0.534-0.534
			h1.179c0.295,0,0.534,0.239,0.534,0.534V14.394z M15.01,11.484c0,0.297-0.239,0.535-0.534,0.535h-1.179
			c-0.296,0-0.534-0.238-0.534-0.535v-1.178c0-0.295,0.238-0.534,0.534-0.534h1.179c0.295,0,0.534,0.239,0.534,0.534V11.484z
			 M15.01,8.577c0,0.294-0.239,0.534-0.534,0.534h-1.179c-0.296,0-0.534-0.24-0.534-0.534V7.398c0-0.295,0.238-0.535,0.534-0.535
			h1.179c0.295,0,0.534,0.24,0.534,0.535V8.577z M15.01,5.668c0,0.294-0.239,0.535-0.534,0.535h-1.179
			c-0.296,0-0.534-0.241-0.534-0.535V4.49c0-0.296,0.238-0.535,0.534-0.535h1.179c0.295,0,0.534,0.239,0.534,0.535V5.668z
			 M15.01,2.758c0,0.295-0.239,0.535-0.534,0.535h-1.179c-0.296,0-0.534-0.239-0.534-0.535V1.58c0-0.295,0.238-0.534,0.534-0.534
			h1.179c0.295,0,0.534,0.239,0.534,0.534V2.758z"/>
	</g>
</g>
</svg>
