<?xml version="1.0" encoding="UTF-8" standalone="no"?>
<svg width="17px" height="10px" viewBox="0 0 17 10" version="1.1" xmlns="http://www.w3.org/2000/svg" xmlns:xlink="http://www.w3.org/1999/xlink" xmlns:sketch="http://www.bohemiancoding.com/sketch/ns">
    <!-- Generator: Sketch 3.3.3 (12072) - http://www.bohemiancoding.com/sketch -->
    <title>live_viewers_icon</title>
    <desc>Created with Sketch.</desc>
    <defs></defs>
    <g id="Page-1" stroke="none" stroke-width="1" fill="none" fill-rule="evenodd" sketch:type="MSPage">
        <g id="stream" sketch:type="MSArtboardGroup" transform="translate(-329.000000, -20.000000)" fill="#FFFFFF">
            <g id="viewers" sketch:type="MSLayerGroup" transform="translate(271.000000, 5.000000)">
                <g id="viewer_count" transform="translate(0.000000, 5.000000)" sketch:type="MSShapeGroup">
                    <path d="M74.6057926,14.2397437 C73.5721505,12.8404263 70.9218754,10 66.4362586,10 C61.9673584,10 59.2961876,12.8473915 58.2548837,14.2446193 C57.9198555,14.6945741 57.9142833,15.3116946 58.2430428,15.7658285 C59.2571822,17.1672355 61.8719346,20 66.4362586,20 C70.9434676,20 73.5812053,17.1630563 74.6085787,15.7630424 C74.9408208,15.3103016 74.9394278,14.6910915 74.6057926,14.2397437 L74.6057926,14.2397437 Z M66.4292934,18.4335168 C64.5326576,18.4335168 62.9954283,16.8962875 62.9954283,15.0003483 C62.9954283,13.1037125 64.5326576,11.5664832 66.4292934,11.5664832 C68.3252326,11.5664832 69.8624619,13.1037125 69.8624619,15.0003483 C69.8624619,16.8962875 68.3252326,18.4335168 66.4292934,18.4335168 L66.4292934,18.4335168 Z M68.2827446,15.0003483 C68.2827446,16.0235425 67.4524876,16.8537995 66.4292934,16.8537995 C65.4054026,16.8537995 64.5758421,16.0235425 64.5758421,15.0003483 C64.5758421,13.9764575 65.4054026,13.146897 66.4292934,13.146897 C67.4524876,13.146897 68.2827446,13.9764575 68.2827446,15.0003483 L68.2827446,15.0003483 Z" id="live_viewers_icon"></path>
                </g>
            </g>
        </g>
    </g>
</svg>