<?xml version="1.0" encoding="UTF-8" standalone="no"?>
<svg width="12px" height="12px" viewBox="0 0 12 12" version="1.1" xmlns="http://www.w3.org/2000/svg" xmlns:xlink="http://www.w3.org/1999/xlink" xmlns:sketch="http://www.bohemiancoding.com/sketch/ns">
    <!-- Generator: Sketch 3.3.3 (12072) - http://www.bohemiancoding.com/sketch -->
    <title>search</title>
    <desc>Created with Sketch.</desc>
    <defs></defs>
    <g id="Landing" stroke="none" stroke-width="1" fill="none" fill-rule="evenodd" sketch:type="MSPage">
        <g id="blab-feed-laptop-large" sketch:type="MSArtboardGroup" transform="translate(-719.000000, -24.000000)" fill="#475364">
            <g id="header" sketch:type="MSLayerGroup">
                <g id="search-bar" transform="translate(200.000000, 15.000000)" sketch:type="MSShapeGroup">
                    <path d="M527.765715,16.4990363 C527.543233,16.2967322 527.486418,15.9707094 527.626598,15.7046875 C528.047666,14.9055599 528.23882,13.9662531 528.112977,12.9749101 C527.862353,11.0060295 526.309232,9.38494207 524.35044,9.06369808 C521.220833,8.55023867 518.552649,11.2162983 519.062923,14.3459051 C519.382043,16.3020421 520.99729,17.8551638 522.963515,18.1110971 C523.952734,18.2395947 524.890448,18.0510961 525.689576,17.6332135 C525.952943,17.4956892 526.274718,17.5514423 526.476491,17.7696758 L528.950866,20.4410452 C529.383085,20.9077783 530.155664,20.8737954 530.562927,20.3629909 C530.914437,19.921745 530.814612,19.2686374 530.39673,18.8895164 L527.765715,16.4990363 Z M520.177985,13.5754505 C520.177985,11.6989608 521.699248,10.1782289 523.575737,10.1782289 C525.451696,10.1782289 526.972959,11.6989608 526.972959,13.5754505 C526.972959,15.4519402 525.451696,16.9726721 523.575737,16.9726721 C521.699248,16.9726721 520.177985,15.4519402 520.177985,13.5754505 L520.177985,13.5754505 Z" id="search"></path>
                </g>
            </g>
        </g>
    </g>
</svg>