<?xml version="1.0" encoding="UTF-8" standalone="no"?>
<svg width="14px" height="10px" viewBox="0 0 14 10" version="1.1" xmlns="http://www.w3.org/2000/svg" xmlns:xlink="http://www.w3.org/1999/xlink" xmlns:sketch="http://www.bohemiancoding.com/sketch/ns">
    <!-- Generator: Sketch 3.3.3 (12072) - http://www.bohemiancoding.com/sketch -->
    <title>total_viewers_icon</title>
    <desc>Created with Sketch.</desc>
    <defs></defs>
    <g id="Page-1" stroke="none" stroke-width="1" fill="none" fill-rule="evenodd" sketch:type="MSPage">
        <g id="stream" sketch:type="MSArtboardGroup" transform="translate(-277.000000, -20.000000)" fill="#FFFFFF">
            <g id="viewers" sketch:type="MSLayerGroup" transform="translate(271.000000, 5.000000)">
                <g id="viewer_count" transform="translate(0.000000, 5.000000)" sketch:type="MSShapeGroup">
                    <g id="total_viewers_icon" transform="translate(6.000000, 10.000000)">
                        <path d="M7.45645673,6.31997062 L7.99143048,6.04663601 C7.99143048,6.04663601 8.49997096,5.78419584 8.56563112,5.40687545 C8.60412502,5.18513456 8.63700522,4.91878486 8.65755535,4.73623958 C8.1898144,4.35811723 8.18911268,3.72747892 8.18911268,3.72747892 C8.18911268,3.72747892 7.91344024,3.552051 7.87163827,3.39336392 C7.82983631,3.23457659 7.78813458,2.79189677 7.82983631,2.72503367 C7.87163827,2.65817058 7.99694393,2.59972802 7.99694393,2.59972802 C7.99694393,2.59972802 7.74633262,1.5554808 7.9635625,1.18798437 C8.18911268,0.51133383 8.73203703,0.569776388 8.73203703,0.569776388 C8.80722043,0.335905911 9.00891241,0.13250977 9.28338192,0.10193519 C9.80966567,0.0434926317 11.1880279,0.243981682 11.2298299,1.38847342 C11.2716318,2.53286492 11.1713873,2.59972802 11.1713873,2.59972802 C11.1713873,2.59972802 11.3551355,2.63310944 11.3551355,2.8252782 C11.3551355,3.01744695 11.3468152,3.35156195 11.2799521,3.43506564 C11.213089,3.51866958 11.0126,3.74421976 11.0126,3.74421976 C11.0126,3.74421976 10.9696953,4.28453775 10.5619006,4.66025423 C10.5811475,4.83768704 10.6179373,5.15195362 10.6622454,5.40687545 C10.7278053,5.78419584 11.2363458,6.04663601 11.2363458,6.04663601 L12.6579134,6.77290759 C12.6579134,6.77290759 13.1241506,6.98662892 13.3962143,7.33638207 C13.6681777,7.68603497 13.7297278,8.24950944 13.7297278,8.24950944 L13.7297278,9.30829212 C13.7297278,9.65704282 13.3660407,9.93973238 13.01729,9.93973238 L8.57206911,9.93973238 C8.70287981,9.75897486 8.78168843,9.54257313 8.78168843,9.30829212 L8.78168843,8.24950944 L8.77857628,8.19235822 C8.75751915,7.99958605 8.70183666,7.73383064 8.58854719,7.45758861 C8.52113519,7.29321298 8.43885986,7.14389793 8.33714326,7.01317299 L7.50637446,7.65959114 C7.5440448,7.70800461 7.58114091,7.77532744 7.61463525,7.85699914 C7.6543822,7.95391705 7.68593211,8.06280032 7.70889074,8.17237484 C7.72255648,8.23759718 7.72988176,8.28572157 7.732169,8.30666067 L7.72905685,8.24950944 L7.72905685,9.30829212 C7.72905685,9.33247073 7.63376638,9.41341659 7.5429348,9.41341659 L5.50914588,9.41341659 C5.50188428,9.37922829 5.49804841,9.34410858 5.49804841,9.30829212 L5.49804841,8.24950944 C5.49804841,8.24950944 5.55959855,7.68603497 5.83166219,7.33638207 C5.97014198,7.15829287 6.15901712,7.01547261 6.31106282,6.91817758 L6.94410641,7.24159849 C6.97970715,7.25844082 7.01667653,7.27718719 7.06743112,7.3062182 C7.15421309,7.35585645 7.24095677,7.41335549 7.31959124,7.47619794 C7.39613838,7.53737226 7.45971057,7.59958001 7.50627185,7.65945924 L8.33724587,7.01330489 C8.23558767,6.88256938 8.11396645,6.76355849 7.97674963,6.65389868 C7.78765092,6.50277631 7.60196929,6.39171411 7.45645673,6.31997062 Z" id="Fill-1-Copy-2"></path>
                        <path d="M7.89806563,7.31847358 C7.62610223,6.96872043 7.15986495,6.7549991 7.15986495,6.7549991 L5.73829734,6.02872752 C5.73829734,6.02872752 5.22975687,5.76628735 5.16419695,5.38896696 C5.12630452,5.17123585 5.09392553,4.91019911 5.07327516,4.72805481 C5.3032361,4.54390562 5.38824346,4.32086155 5.42242684,4.25259503 C5.48367625,4.12999597 5.67414084,4.40667086 5.65118485,4.55222591 C5.62822885,4.69788121 5.55154179,4.82048026 5.49029239,4.9277419 C5.42894274,5.03500354 5.60517261,5.18065884 5.62051002,5.11930919 C5.63584744,5.05805978 5.59755403,4.94307931 5.72015308,4.86639225 C5.84275214,4.78980544 6.05727542,4.71321862 6.08033166,4.62119414 C6.10328766,4.52926992 6.08795024,4.4526831 6.14158106,4.4526831 C6.19521189,4.4526831 6.49414106,4.49859509 6.59368387,4.34532121 C6.69332693,4.19214758 6.66265211,4.06944828 6.56310929,3.8932184 C6.46346623,3.71698853 6.21826813,3.54837724 6.27189895,3.37986619 C6.32552977,3.2112549 6.70094551,2.86591251 6.67798952,2.56758481 C6.65503352,2.26865563 6.37916059,1.15754532 5.49791097,0.720779924 C5.5056298,0.552168633 5.13011381,0.230383708 4.73164182,0.299351941 C4.58598653,0.0694912452 4.24886419,-0.00719581636 4.04967832,0.000523012059 C3.8503922,0.00814159595 3.27569034,0.284014529 3.1684287,0.529212637 C2.90789318,0.521594053 1.83507627,0.981315444 1.73543322,1.46409308 C1.6588464,1.87028389 1.81973886,1.87790248 1.76610804,1.9698267 C1.71247722,2.06175093 1.26037441,2.22274364 1.26037441,2.57520339 C1.26037441,2.92776338 1.41364829,3.12694926 1.57454075,3.26488572 C1.4748977,3.37214736 1.37525464,3.54075865 1.39831088,3.6863137 C1.42126687,3.831969 1.55148451,4.2457784 1.98063132,4.66720638 C1.95767533,4.80514285 1.79678286,4.82809884 1.72781463,4.79742402 C1.66646498,4.84343626 1.81973886,5.01966613 2.00358732,4.99671013 C2.18753602,4.97375414 2.34842849,4.9277419 2.48636495,4.59061956 C2.5477146,4.72855603 2.64866084,5.21574442 2.92323059,5.18827742 C2.99981741,5.18065884 2.75111074,4.94398151 2.80825012,4.79742402 C2.85015233,4.69016238 2.95180028,4.43644348 3.06668051,4.54490806 C3.09695435,4.573578 3.1281304,4.61157067 3.16672454,4.65317215 C3.14717686,4.83220887 3.11098859,5.13905736 3.06748246,5.38896696 C3.00192254,5.76628735 2.49338207,6.02872752 2.49338207,6.02872752 L1.07181446,6.7549991 C1.07181446,6.7549991 0.605577175,6.96872043 0.333613779,7.31847358 C0.0615501383,7.66812648 0,8.23160095 0,8.23160095 L0,9.29038363 C0,9.63913433 0.363687136,9.92182389 0.712437839,9.92182389 L7.51924157,9.92182389 C7.86799227,9.92182389 8.23167941,9.63913433 8.23167941,9.29038363 L8.23167941,8.23160095 C8.23167941,8.23160095 8.17012927,7.66812648 7.89806563,7.31847358" id="Fill-3-Copy"></path>
                    </g>
                </g>
            </g>
        </g>
    </g>
</svg>